SplineFontDB: 3.2
FontName: EscapeFrom
FullName: EscapeFrom
FamilyName: EscapeFrom
Weight: Regular
Copyright: Copyright (c) 2025, mason
UComments: "2025-12-9: Created with FontForge (http://fontforge.org)"
Version: 001.000
ItalicAngle: 0
UnderlinePosition: -204
UnderlineWidth: 102
Ascent: 1755
Descent: 293
InvalidEm: 0
LayerCount: 2
Layer: 0 1 "Back" 1
Layer: 1 1 "Fore" 0
XUID: [1021 345 228710327 16222]
OS2Version: 0
OS2_WeightWidthSlopeOnly: 0
OS2_UseTypoMetrics: 1
CreationTime: 1765340013
ModificationTime: 1765341595
OS2TypoAscent: 0
OS2TypoAOffset: 1
OS2TypoDescent: 0
OS2TypoDOffset: 1
OS2TypoLinegap: 0
OS2WinAscent: 0
OS2WinAOffset: 1
OS2WinDescent: 0
OS2WinDOffset: 1
HheadAscent: 0
HheadAOffset: 1
HheadDescent: 0
HheadDOffset: 1
OS2Vendor: 'PfEd'
MarkAttachClasses: 1
DEI: 91125
Encoding: ISO8859-1
UnicodeInterp: none
NameList: AGL For New Fonts
DisplaySize: -48
AntiAlias: 1
FitToEm: 0
WinInfo: 48 16 4
BeginPrivate: 0
EndPrivate
BeginChars: 256 26

StartChar: A
Encoding: 65 65 0
Width: 2048
Flags: W
LayerCount: 2
Fore
SplineSet
12 1636 m 1,0,-1
 20 1636 l 1,1,-1
 20 1638 l 1,2,-1
 12 1638 l 1,3,-1
 12 1636 l 1,0,-1
41 1636 m 1,4,-1
 59 1636 l 1,5,-1
 59 1638 l 1,6,-1
 41 1638 l 1,7,-1
 41 1636 l 1,4,-1
76 1636 m 1,8,-1
 92 1636 l 1,9,-1
 92 1638 l 1,10,-1
 76 1638 l 1,11,-1
 76 1636 l 1,8,-1
102 1636 m 1,12,-1
 123 1636 l 1,13,-1
 123 1638 l 1,14,-1
 102 1638 l 1,15,-1
 102 1636 l 1,12,-1
139 1636 m 1,16,-1
 158 1636 l 1,17,-1
 158 1638 l 1,18,-1
 139 1638 l 1,19,-1
 139 1636 l 1,16,-1
172 1636 m 1,20,-1
 188 1636 l 1,21,-1
 188 1638 l 1,22,-1
 172 1638 l 1,23,-1
 172 1636 l 1,20,-1
205 1636 m 1,24,-1
 221 1636 l 1,25,-1
 221 1638 l 1,26,-1
 205 1638 l 1,27,-1
 205 1636 l 1,24,-1
233 1636 m 1,28,-1
 242 1636 l 1,29,-1
 242 1638 l 1,30,-1
 233 1638 l 1,31,-1
 233 1636 l 1,28,-1
250 1636 m 1,32,-1
 258 1636 l 1,33,-1
 258 1638 l 1,34,-1
 250 1638 l 1,35,-1
 250 1636 l 1,32,-1
270 1636 m 1,36,-1
 287 1636 l 1,37,-1
 287 1638 l 1,38,-1
 270 1638 l 1,39,-1
 270 1636 l 1,36,-1
309 1636 m 1,40,-1
 324 1636 l 1,41,-1
 324 1638 l 1,42,-1
 309 1638 l 1,43,-1
 309 1636 l 1,40,-1
10 1632 m 1,44,-1
 12 1632 l 1,45,-1
 12 1636 l 1,46,-1
 10 1636 l 1,47,-1
 10 1632 l 1,44,-1
12 1632 m 1,48,-1
 12 1636 l 1,49,-1
 20 1636 l 1,50,-1
 20 1632 l 1,51,-1
 12 1632 l 1,48,-1
20 1632 m 1,52,-1
 23 1632 l 1,53,-1
 23 1636 l 1,54,-1
 20 1636 l 1,55,-1
 20 1632 l 1,52,-1
39 1634 m 1,56,-1
 41 1634 l 1,57,-1
 41 1636 l 1,58,-1
 39 1636 l 1,59,-1
 39 1634 l 1,56,-1
41 1632 m 1,60,-1
 41 1636 l 1,61,-1
 59 1636 l 1,62,-1
 59 1632 l 1,63,-1
 41 1632 l 1,60,-1
59 1634 m 1,64,-1
 61 1634 l 1,65,-1
 61 1636 l 1,66,-1
 59 1636 l 1,67,-1
 59 1634 l 1,64,-1
74 1634 m 1,68,-1
 76 1634 l 1,69,-1
 76 1636 l 1,70,-1
 74 1636 l 1,71,-1
 74 1634 l 1,68,-1
76 1632 m 1,72,-1
 76 1636 l 1,73,-1
 92 1636 l 1,74,-1
 92 1632 l 1,75,-1
 76 1632 l 1,72,-1
92 1634 m 1,76,-1
 94 1634 l 1,77,-1
 94 1636 l 1,78,-1
 92 1636 l 1,79,-1
 92 1634 l 1,76,-1
100 1632 m 1,80,-1
 102 1632 l 1,81,-1
 102 1636 l 1,82,-1
 100 1636 l 1,83,-1
 100 1632 l 1,80,-1
102 1632 m 1,84,-1
 102 1636 l 1,85,-1
 123 1636 l 1,86,-1
 123 1632 l 1,87,-1
 102 1632 l 1,84,-1
123 1634 m 1,88,-1
 125 1634 l 1,89,-1
 125 1636 l 1,90,-1
 123 1636 l 1,91,-1
 123 1634 l 1,88,-1
137 1634 m 1,92,-1
 139 1634 l 1,93,-1
 139 1636 l 1,94,-1
 137 1636 l 1,95,-1
 137 1634 l 1,92,-1
139 1632 m 1,96,-1
 139 1636 l 1,97,-1
 158 1636 l 1,98,-1
 158 1632 l 1,99,-1
 139 1632 l 1,96,-1
158 1634 m 1,100,-1
 160 1634 l 1,101,-1
 160 1636 l 1,102,-1
 158 1636 l 1,103,-1
 158 1634 l 1,100,-1
170 1634 m 1,104,-1
 172 1634 l 1,105,-1
 172 1636 l 1,106,-1
 170 1636 l 1,107,-1
 170 1634 l 1,104,-1
172 1632 m 1,108,-1
 172 1636 l 1,109,-1
 188 1636 l 1,110,-1
 188 1632 l 1,111,-1
 172 1632 l 1,108,-1
188 1634 m 1,112,-1
 190 1634 l 1,113,-1
 190 1636 l 1,114,-1
 188 1636 l 1,115,-1
 188 1634 l 1,112,-1
203 1634 m 1,116,-1
 205 1634 l 1,117,-1
 205 1636 l 1,118,-1
 203 1636 l 1,119,-1
 203 1634 l 1,116,-1
205 1632 m 1,120,-1
 205 1636 l 1,121,-1
 221 1636 l 1,122,-1
 221 1632 l 1,123,-1
 205 1632 l 1,120,-1
221 1634 m 1,124,-1
 223 1634 l 1,125,-1
 223 1636 l 1,126,-1
 221 1636 l 1,127,-1
 221 1634 l 1,124,-1
231 1632 m 1,128,-1
 233 1632 l 1,129,-1
 233 1636 l 1,130,-1
 231 1636 l 1,131,-1
 231 1632 l 1,128,-1
233 1632 m 1,132,-1
 233 1636 l 1,133,-1
 242 1636 l 1,134,-1
 242 1632 l 1,135,-1
 233 1632 l 1,132,-1
242 1632 m 1,136,-1
 244 1632 l 1,137,-1
 244 1636 l 1,138,-1
 242 1636 l 1,139,-1
 242 1632 l 1,136,-1
248 1632 m 1,140,-1
 250 1632 l 1,141,-1
 250 1636 l 1,142,-1
 248 1636 l 1,143,-1
 248 1632 l 1,140,-1
250 1632 m 1,144,-1
 250 1636 l 1,145,-1
 258 1636 l 1,146,-1
 258 1632 l 1,147,-1
 250 1632 l 1,144,-1
258 1632 m 1,148,-1
 260 1632 l 1,149,-1
 260 1636 l 1,150,-1
 258 1636 l 1,151,-1
 258 1632 l 1,148,-1
268 1634 m 1,152,-1
 270 1634 l 1,153,-1
 270 1636 l 1,154,-1
 268 1636 l 1,155,-1
 268 1634 l 1,152,-1
270 1632 m 1,156,-1
 270 1636 l 1,157,-1
 287 1636 l 1,158,-1
 287 1632 l 1,159,-1
 270 1632 l 1,156,-1
287 1634 m 1,160,-1
 289 1634 l 1,161,-1
 289 1636 l 1,162,-1
 287 1636 l 1,163,-1
 287 1634 l 1,160,-1
307 1634 m 1,164,-1
 309 1634 l 1,165,-1
 309 1636 l 1,166,-1
 307 1636 l 1,167,-1
 307 1634 l 1,164,-1
309 1634 m 1,168,-1
 309 1636 l 1,169,-1
 324 1636 l 1,170,-1
 324 1634 l 1,171,-1
 309 1634 l 1,168,-1
324 1634 m 1,172,-1
 326 1634 l 1,173,-1
 326 1636 l 1,174,-1
 324 1636 l 1,175,-1
 324 1634 l 1,172,-1
37 1610 m 1,176,-1
 39 1610 l 1,177,-1
 39 1634 l 1,178,-1
 37 1634 l 1,179,-1
 37 1610 l 1,176,-1
39 1610 m 1,180,-1
 39 1634 l 1,181,-1
 41 1634 l 1,182,-1
 41 1610 l 1,183,-1
 39 1610 l 1,180,-1
59 1622 m 1,184,-1
 59 1634 l 1,185,-1
 61 1634 l 1,186,-1
 61 1622 l 1,187,-1
 59 1622 l 1,184,-1
61 1622 m 1,188,-1
 63 1622 l 1,189,-1
 63 1634 l 1,190,-1
 61 1634 l 1,191,-1
 61 1622 l 1,188,-1
72 1632 m 1,192,-1
 74 1632 l 1,193,-1
 74 1634 l 1,194,-1
 72 1634 l 1,195,-1
 72 1632 l 1,192,-1
74 1610 m 1,196,-1
 74 1634 l 1,197,-1
 76 1634 l 1,198,-1
 76 1610 l 1,199,-1
 74 1610 l 1,196,-1
92 1628 m 1,200,-1
 92 1634 l 1,201,-1
 94 1634 l 1,202,-1
 94 1628 l 1,203,-1
 92 1628 l 1,200,-1
94 1628 m 1,204,-1
 96 1628 l 1,205,-1
 96 1634 l 1,206,-1
 94 1634 l 1,207,-1
 94 1628 l 1,204,-1
123 1610 m 1,208,-1
 123 1634 l 1,209,-1
 125 1634 l 1,210,-1
 125 1610 l 1,211,-1
 123 1610 l 1,208,-1
125 1632 m 1,212,-1
 127 1632 l 1,213,-1
 127 1634 l 1,214,-1
 125 1634 l 1,215,-1
 125 1632 l 1,212,-1
135 1610 m 1,216,-1
 137 1610 l 1,217,-1
 137 1634 l 1,218,-1
 135 1634 l 1,219,-1
 135 1610 l 1,216,-1
137 1610 m 1,220,-1
 137 1634 l 1,221,-1
 139 1634 l 1,222,-1
 139 1610 l 1,223,-1
 137 1610 l 1,220,-1
158 1628 m 1,224,-1
 158 1634 l 1,225,-1
 160 1634 l 1,226,-1
 160 1628 l 1,227,-1
 158 1628 l 1,224,-1
160 1628 m 1,228,-1
 162 1628 l 1,229,-1
 162 1634 l 1,230,-1
 160 1634 l 1,231,-1
 160 1628 l 1,228,-1
168 1608 m 1,232,-1
 170 1608 l 1,233,-1
 170 1634 l 1,234,-1
 168 1634 l 1,235,-1
 168 1608 l 1,232,-1
170 1608 m 1,236,-1
 170 1634 l 1,237,-1
 172 1634 l 1,238,-1
 172 1608 l 1,239,-1
 170 1608 l 1,236,-1
188 1630 m 1,240,-1
 188 1634 l 1,241,-1
 190 1634 l 1,242,-1
 190 1630 l 1,243,-1
 188 1630 l 1,240,-1
190 1630 m 1,244,-1
 193 1630 l 1,245,-1
 193 1634 l 1,246,-1
 190 1634 l 1,247,-1
 190 1630 l 1,244,-1
201 1632 m 1,248,-1
 203 1632 l 1,249,-1
 203 1634 l 1,250,-1
 201 1634 l 1,251,-1
 201 1632 l 1,248,-1
203 1610 m 1,252,-1
 203 1634 l 1,253,-1
 205 1634 l 1,254,-1
 205 1610 l 1,255,-1
 203 1610 l 1,252,-1
221 1628 m 1,256,-1
 221 1634 l 1,257,-1
 223 1634 l 1,258,-1
 223 1628 l 1,259,-1
 221 1628 l 1,256,-1
223 1628 m 1,260,-1
 225 1628 l 1,261,-1
 225 1634 l 1,262,-1
 223 1634 l 1,263,-1
 223 1628 l 1,260,-1
266 1630 m 1,264,-1
 268 1630 l 1,265,-1
 268 1634 l 1,266,-1
 266 1634 l 1,267,-1
 266 1630 l 1,264,-1
268 1630 m 1,268,-1
 268 1634 l 1,269,-1
 270 1634 l 1,270,-1
 270 1630 l 1,271,-1
 268 1630 l 1,268,-1
287 1630 m 1,272,-1
 287 1634 l 1,273,-1
 289 1634 l 1,274,-1
 289 1630 l 1,275,-1
 287 1630 l 1,272,-1
289 1630 m 1,276,-1
 291 1630 l 1,277,-1
 291 1634 l 1,278,-1
 289 1634 l 1,279,-1
 289 1630 l 1,276,-1
309 1632 m 1,280,-1
 311 1632 l 1,281,-1
 311 1634 l 1,282,-1
 309 1634 l 1,283,-1
 309 1632 l 1,280,-1
311 1632 m 1,284,-1
 311 1634 l 1,285,-1
 322 1634 l 1,286,-1
 322 1632 l 1,287,-1
 311 1632 l 1,284,-1
322 1632 m 1,288,-1
 324 1632 l 1,289,-1
 324 1634 l 1,290,-1
 322 1634 l 1,291,-1
 322 1632 l 1,288,-1
8 1626 m 1,292,-1
 10 1626 l 1,293,-1
 10 1632 l 1,294,-1
 8 1632 l 1,295,-1
 8 1626 l 1,292,-1
10 1626 m 1,296,-1
 10 1632 l 1,297,-1
 14 1632 l 1,298,-1
 14 1626 l 1,299,-1
 10 1626 l 1,296,-1
14 1626 m 1,300,-1
 18 1626 l 1,301,-1
 18 1632 l 1,302,-1
 14 1632 l 1,303,-1
 14 1626 l 1,300,-1
18 1626 m 1,304,-1
 18 1632 l 1,305,-1
 23 1632 l 1,306,-1
 23 1626 l 1,307,-1
 18 1626 l 1,304,-1
23 1626 m 1,308,-1
 25 1626 l 1,309,-1
 25 1632 l 1,310,-1
 23 1632 l 1,311,-1
 23 1626 l 1,308,-1
41 1608 m 1,312,-1
 41 1632 l 1,313,-1
 45 1632 l 1,314,-1
 45 1608 l 1,315,-1
 41 1608 l 1,312,-1
45 1630 m 1,316,-1
 55 1630 l 1,317,-1
 55 1632 l 1,318,-1
 45 1632 l 1,319,-1
 45 1630 l 1,316,-1
55 1630 m 1,320,-1
 55 1632 l 1,321,-1
 59 1632 l 1,322,-1
 59 1630 l 1,323,-1
 55 1630 l 1,320,-1
70 1628 m 1,324,-1
 72 1628 l 1,325,-1
 72 1632 l 1,326,-1
 70 1632 l 1,327,-1
 70 1628 l 1,324,-1
72 1612 m 1,328,-1
 72 1632 l 1,329,-1
 74 1632 l 1,330,-1
 74 1612 l 1,331,-1
 72 1612 l 1,328,-1
76 1630 m 1,332,-1
 76 1632 l 1,333,-1
 80 1632 l 1,334,-1
 80 1630 l 1,335,-1
 76 1630 l 1,332,-1
80 1630 m 1,336,-1
 90 1630 l 1,337,-1
 90 1632 l 1,338,-1
 80 1632 l 1,339,-1
 80 1630 l 1,336,-1
90 1630 m 1,340,-1
 90 1632 l 1,341,-1
 92 1632 l 1,342,-1
 92 1630 l 1,343,-1
 90 1630 l 1,340,-1
102 1612 m 1,344,-1
 104 1612 l 1,345,-1
 104 1632 l 1,346,-1
 102 1632 l 1,347,-1
 102 1612 l 1,344,-1
104 1608 m 1,348,-1
 104 1632 l 1,349,-1
 109 1632 l 1,350,-1
 109 1608 l 1,351,-1
 104 1608 l 1,348,-1
109 1630 m 1,352,-1
 121 1630 l 1,353,-1
 121 1632 l 1,354,-1
 109 1632 l 1,355,-1
 109 1630 l 1,352,-1
121 1630 m 1,356,-1
 121 1632 l 1,357,-1
 123 1632 l 1,358,-1
 123 1630 l 1,359,-1
 121 1630 l 1,356,-1
125 1612 m 1,360,-1
 125 1632 l 1,361,-1
 127 1632 l 1,362,-1
 127 1612 l 1,363,-1
 125 1612 l 1,360,-1
127 1612 m 1,364,-1
 129 1612 l 1,365,-1
 129 1632 l 1,366,-1
 127 1632 l 1,367,-1
 127 1612 l 1,364,-1
139 1630 m 1,368,-1
 139 1632 l 1,369,-1
 143 1632 l 1,370,-1
 143 1630 l 1,371,-1
 139 1630 l 1,368,-1
143 1630 m 1,372,-1
 156 1630 l 1,373,-1
 156 1632 l 1,374,-1
 143 1632 l 1,375,-1
 143 1630 l 1,372,-1
156 1630 m 1,376,-1
 156 1632 l 1,377,-1
 158 1632 l 1,378,-1
 158 1630 l 1,379,-1
 156 1630 l 1,376,-1
172 1608 m 1,380,-1
 172 1632 l 1,381,-1
 174 1632 l 1,382,-1
 174 1608 l 1,383,-1
 172 1608 l 1,380,-1
174 1630 m 1,384,-1
 186 1630 l 1,385,-1
 186 1632 l 1,386,-1
 174 1632 l 1,387,-1
 174 1630 l 1,384,-1
186 1628 m 1,388,-1
 186 1632 l 1,389,-1
 188 1632 l 1,390,-1
 188 1628 l 1,391,-1
 186 1628 l 1,388,-1
199 1628 m 1,392,-1
 201 1628 l 1,393,-1
 201 1632 l 1,394,-1
 199 1632 l 1,395,-1
 199 1628 l 1,392,-1
201 1612 m 1,396,-1
 201 1632 l 1,397,-1
 203 1632 l 1,398,-1
 203 1612 l 1,399,-1
 201 1612 l 1,396,-1
205 1630 m 1,400,-1
 205 1632 l 1,401,-1
 209 1632 l 1,402,-1
 209 1630 l 1,403,-1
 205 1630 l 1,400,-1
209 1630 m 1,404,-1
 219 1630 l 1,405,-1
 219 1632 l 1,406,-1
 209 1632 l 1,407,-1
 209 1630 l 1,404,-1
219 1630 m 1,408,-1
 219 1632 l 1,409,-1
 221 1632 l 1,410,-1
 221 1630 l 1,411,-1
 219 1630 l 1,408,-1
233 1612 m 1,412,-1
 236 1612 l 1,413,-1
 236 1632 l 1,414,-1
 233 1632 l 1,415,-1
 233 1612 l 1,412,-1
236 1608 m 1,416,-1
 236 1632 l 1,417,-1
 240 1632 l 1,418,-1
 240 1608 l 1,419,-1
 236 1608 l 1,416,-1
240 1626 m 1,420,-1
 242 1626 l 1,421,-1
 242 1632 l 1,422,-1
 240 1632 l 1,423,-1
 240 1626 l 1,420,-1
250 1626 m 1,424,-1
 252 1626 l 1,425,-1
 252 1632 l 1,426,-1
 250 1632 l 1,427,-1
 250 1626 l 1,424,-1
252 1608 m 1,428,-1
 252 1632 l 1,429,-1
 256 1632 l 1,430,-1
 256 1608 l 1,431,-1
 252 1608 l 1,428,-1
256 1612 m 1,432,-1
 258 1612 l 1,433,-1
 258 1632 l 1,434,-1
 256 1632 l 1,435,-1
 256 1612 l 1,432,-1
270 1630 m 1,436,-1
 276 1630 l 1,437,-1
 276 1632 l 1,438,-1
 270 1632 l 1,439,-1
 270 1630 l 1,436,-1
276 1608 m 1,440,-1
 276 1632 l 1,441,-1
 281 1632 l 1,442,-1
 281 1608 l 1,443,-1
 276 1608 l 1,440,-1
281 1630 m 1,444,-1
 287 1630 l 1,445,-1
 287 1632 l 1,446,-1
 281 1632 l 1,447,-1
 281 1630 l 1,444,-1
311 1630 m 1,448,-1
 315 1630 l 1,449,-1
 315 1632 l 1,450,-1
 311 1632 l 1,451,-1
 311 1630 l 1,448,-1
315 1610 m 1,452,-1
 315 1632 l 1,453,-1
 319 1632 l 1,454,-1
 319 1610 l 1,455,-1
 315 1610 l 1,452,-1
319 1610 m 1,456,-1
 322 1610 l 1,457,-1
 322 1632 l 1,458,-1
 319 1632 l 1,459,-1
 319 1610 l 1,456,-1
45 1622 m 1,460,-1
 47 1622 l 1,461,-1
 47 1630 l 1,462,-1
 45 1630 l 1,463,-1
 45 1622 l 1,460,-1
55 1624 m 1,464,-1
 57 1624 l 1,465,-1
 57 1630 l 1,466,-1
 55 1630 l 1,467,-1
 55 1624 l 1,464,-1
57 1608 m 1,468,-1
 57 1630 l 1,469,-1
 59 1630 l 1,470,-1
 59 1608 l 1,471,-1
 57 1608 l 1,468,-1
76 1628 m 1,472,-1
 76 1630 l 1,473,-1
 78 1630 l 1,474,-1
 78 1628 l 1,475,-1
 76 1628 l 1,472,-1
78 1628 m 1,476,-1
 80 1628 l 1,477,-1
 80 1630 l 1,478,-1
 78 1630 l 1,479,-1
 78 1628 l 1,476,-1
90 1628 m 1,480,-1
 92 1628 l 1,481,-1
 92 1630 l 1,482,-1
 90 1630 l 1,483,-1
 90 1628 l 1,480,-1
109 1612 m 1,484,-1
 111 1612 l 1,485,-1
 111 1630 l 1,486,-1
 109 1630 l 1,487,-1
 109 1612 l 1,484,-1
121 1614 m 1,488,-1
 123 1614 l 1,489,-1
 123 1630 l 1,490,-1
 121 1630 l 1,491,-1
 121 1614 l 1,488,-1
139 1608 m 1,492,-1
 139 1630 l 1,493,-1
 141 1630 l 1,494,-1
 141 1608 l 1,495,-1
 139 1608 l 1,492,-1
141 1626 m 1,496,-1
 143 1626 l 1,497,-1
 143 1630 l 1,498,-1
 141 1630 l 1,499,-1
 141 1626 l 1,496,-1
156 1628 m 1,500,-1
 158 1628 l 1,501,-1
 158 1630 l 1,502,-1
 156 1630 l 1,503,-1
 156 1628 l 1,500,-1
174 1626 m 1,504,-1
 176 1626 l 1,505,-1
 176 1630 l 1,506,-1
 174 1630 l 1,507,-1
 174 1626 l 1,504,-1
184 1628 m 1,508,-1
 186 1628 l 1,509,-1
 186 1630 l 1,510,-1
 184 1630 l 1,511,-1
 184 1628 l 1,508,-1
188 1628 m 1,512,-1
 190 1628 l 1,513,-1
 190 1630 l 1,514,-1
 188 1630 l 1,515,-1
 188 1628 l 1,512,-1
205 1628 m 1,516,-1
 205 1630 l 1,517,-1
 207 1630 l 1,518,-1
 207 1628 l 1,519,-1
 205 1628 l 1,516,-1
207 1628 m 1,520,-1
 209 1628 l 1,521,-1
 209 1630 l 1,522,-1
 207 1630 l 1,523,-1
 207 1628 l 1,520,-1
219 1628 m 1,524,-1
 221 1628 l 1,525,-1
 221 1630 l 1,526,-1
 219 1630 l 1,527,-1
 219 1628 l 1,524,-1
268 1628 m 1,528,-1
 270 1628 l 1,529,-1
 270 1630 l 1,530,-1
 268 1630 l 1,531,-1
 268 1628 l 1,528,-1
274 1624 m 1,532,-1
 276 1624 l 1,533,-1
 276 1630 l 1,534,-1
 274 1630 l 1,535,-1
 274 1624 l 1,532,-1
281 1624 m 1,536,-1
 283 1624 l 1,537,-1
 283 1630 l 1,538,-1
 281 1630 l 1,539,-1
 281 1624 l 1,536,-1
287 1628 m 1,540,-1
 289 1628 l 1,541,-1
 289 1630 l 1,542,-1
 287 1630 l 1,543,-1
 287 1628 l 1,540,-1
313 1616 m 1,544,-1
 315 1616 l 1,545,-1
 315 1630 l 1,546,-1
 313 1630 l 1,547,-1
 313 1616 l 1,544,-1
68 1616 m 1,548,-1
 70 1616 l 1,549,-1
 70 1628 l 1,550,-1
 68 1628 l 1,551,-1
 68 1616 l 1,548,-1
70 1616 m 1,552,-1
 70 1628 l 1,553,-1
 72 1628 l 1,554,-1
 72 1616 l 1,555,-1
 70 1616 l 1,552,-1
76 1616 m 1,556,-1
 78 1616 l 1,557,-1
 78 1628 l 1,558,-1
 76 1628 l 1,559,-1
 76 1616 l 1,556,-1
92 1626 m 1,560,-1
 94 1626 l 1,561,-1
 94 1628 l 1,562,-1
 92 1628 l 1,563,-1
 92 1626 l 1,560,-1
150 1626 m 1,564,-1
 152 1626 l 1,565,-1
 152 1628 l 1,566,-1
 150 1628 l 1,567,-1
 150 1626 l 1,564,-1
158 1626 m 1,568,-1
 160 1626 l 1,569,-1
 160 1628 l 1,570,-1
 158 1628 l 1,571,-1
 158 1626 l 1,568,-1
180 1626 m 1,572,-1
 182 1626 l 1,573,-1
 182 1628 l 1,574,-1
 180 1628 l 1,575,-1
 180 1626 l 1,572,-1
186 1626 m 1,576,-1
 188 1626 l 1,577,-1
 188 1628 l 1,578,-1
 186 1628 l 1,579,-1
 186 1626 l 1,576,-1
197 1616 m 1,580,-1
 199 1616 l 1,581,-1
 199 1628 l 1,582,-1
 197 1628 l 1,583,-1
 197 1616 l 1,580,-1
199 1616 m 1,584,-1
 199 1628 l 1,585,-1
 201 1628 l 1,586,-1
 201 1616 l 1,587,-1
 199 1616 l 1,584,-1
205 1616 m 1,588,-1
 207 1616 l 1,589,-1
 207 1628 l 1,590,-1
 205 1628 l 1,591,-1
 205 1616 l 1,588,-1
221 1626 m 1,592,-1
 223 1626 l 1,593,-1
 223 1628 l 1,594,-1
 221 1628 l 1,595,-1
 221 1626 l 1,592,-1
6 1620 m 1,596,-1
 8 1620 l 1,597,-1
 8 1626 l 1,598,-1
 6 1626 l 1,599,-1
 6 1620 l 1,596,-1
8 1616 m 1,600,-1
 8 1626 l 1,601,-1
 12 1626 l 1,602,-1
 12 1616 l 1,603,-1
 8 1616 l 1,600,-1
12 1620 m 1,604,-1
 14 1620 l 1,605,-1
 14 1626 l 1,606,-1
 12 1626 l 1,607,-1
 12 1620 l 1,604,-1
18 1620 m 1,608,-1
 20 1620 l 1,609,-1
 20 1626 l 1,610,-1
 18 1626 l 1,611,-1
 18 1620 l 1,608,-1
20 1616 m 1,612,-1
 20 1626 l 1,613,-1
 25 1626 l 1,614,-1
 25 1616 l 1,615,-1
 20 1616 l 1,612,-1
25 1620 m 1,616,-1
 27 1620 l 1,617,-1
 27 1626 l 1,618,-1
 25 1626 l 1,619,-1
 25 1620 l 1,616,-1
141 1618 m 1,620,-1
 141 1626 l 1,621,-1
 143 1626 l 1,622,-1
 143 1618 l 1,623,-1
 141 1618 l 1,620,-1
143 1624 m 1,624,-1
 150 1624 l 1,625,-1
 150 1626 l 1,626,-1
 143 1626 l 1,627,-1
 143 1624 l 1,624,-1
150 1618 m 1,628,-1
 150 1626 l 1,629,-1
 152 1626 l 1,630,-1
 152 1618 l 1,631,-1
 150 1618 l 1,628,-1
152 1624 m 1,632,-1
 154 1624 l 1,633,-1
 154 1626 l 1,634,-1
 152 1626 l 1,635,-1
 152 1624 l 1,632,-1
174 1618 m 1,636,-1
 174 1626 l 1,637,-1
 176 1626 l 1,638,-1
 176 1618 l 1,639,-1
 174 1618 l 1,636,-1
176 1624 m 1,640,-1
 180 1624 l 1,641,-1
 180 1626 l 1,642,-1
 176 1626 l 1,643,-1
 176 1624 l 1,640,-1
180 1618 m 1,644,-1
 180 1626 l 1,645,-1
 182 1626 l 1,646,-1
 182 1618 l 1,647,-1
 180 1618 l 1,644,-1
182 1624 m 1,648,-1
 184 1624 l 1,649,-1
 184 1626 l 1,650,-1
 182 1626 l 1,651,-1
 182 1624 l 1,648,-1
240 1618 m 1,652,-1
 240 1626 l 1,653,-1
 242 1626 l 1,654,-1
 242 1618 l 1,655,-1
 240 1618 l 1,652,-1
242 1624 m 1,656,-1
 250 1624 l 1,657,-1
 250 1626 l 1,658,-1
 242 1626 l 1,659,-1
 242 1624 l 1,656,-1
250 1618 m 1,660,-1
 250 1626 l 1,661,-1
 252 1626 l 1,662,-1
 252 1618 l 1,663,-1
 250 1618 l 1,660,-1
47 1622 m 1,664,-1
 55 1622 l 1,665,-1
 55 1624 l 1,666,-1
 47 1624 l 1,667,-1
 47 1622 l 1,664,-1
55 1616 m 1,668,-1
 55 1624 l 1,669,-1
 57 1624 l 1,670,-1
 57 1616 l 1,671,-1
 55 1616 l 1,668,-1
143 1620 m 1,672,-1
 143 1624 l 1,673,-1
 150 1624 l 1,674,-1
 150 1620 l 1,675,-1
 143 1620 l 1,672,-1
152 1620 m 1,676,-1
 152 1624 l 1,677,-1
 154 1624 l 1,678,-1
 154 1620 l 1,679,-1
 152 1620 l 1,676,-1
154 1620 m 1,680,-1
 156 1620 l 1,681,-1
 156 1624 l 1,682,-1
 154 1624 l 1,683,-1
 154 1620 l 1,680,-1
176 1620 m 1,684,-1
 176 1624 l 1,685,-1
 180 1624 l 1,686,-1
 180 1620 l 1,687,-1
 176 1620 l 1,684,-1
182 1620 m 1,688,-1
 182 1624 l 1,689,-1
 184 1624 l 1,690,-1
 184 1620 l 1,691,-1
 182 1620 l 1,688,-1
184 1620 m 1,692,-1
 186 1620 l 1,693,-1
 186 1624 l 1,694,-1
 184 1624 l 1,695,-1
 184 1620 l 1,692,-1
213 1622 m 1,696,-1
 223 1622 l 1,697,-1
 223 1624 l 1,698,-1
 213 1624 l 1,699,-1
 213 1622 l 1,696,-1
242 1620 m 1,700,-1
 242 1624 l 1,701,-1
 250 1624 l 1,702,-1
 250 1620 l 1,703,-1
 242 1620 l 1,700,-1
272 1620 m 1,704,-1
 274 1620 l 1,705,-1
 274 1624 l 1,706,-1
 272 1624 l 1,707,-1
 272 1620 l 1,704,-1
274 1620 m 1,708,-1
 274 1624 l 1,709,-1
 276 1624 l 1,710,-1
 276 1620 l 1,711,-1
 274 1620 l 1,708,-1
281 1620 m 1,712,-1
 281 1624 l 1,713,-1
 283 1624 l 1,714,-1
 283 1620 l 1,715,-1
 281 1620 l 1,712,-1
283 1620 m 1,716,-1
 285 1620 l 1,717,-1
 285 1624 l 1,718,-1
 283 1624 l 1,719,-1
 283 1620 l 1,716,-1
14 1620 m 1,720,-1
 18 1620 l 1,721,-1
 18 1622 l 1,722,-1
 14 1622 l 1,723,-1
 14 1620 l 1,720,-1
45 1618 m 1,724,-1
 45 1622 l 1,725,-1
 55 1622 l 1,726,-1
 55 1618 l 1,727,-1
 45 1618 l 1,724,-1
59 1618 m 1,728,-1
 61 1618 l 1,729,-1
 61 1622 l 1,730,-1
 59 1622 l 1,731,-1
 59 1618 l 1,728,-1
211 1620 m 1,732,-1
 213 1620 l 1,733,-1
 213 1622 l 1,734,-1
 211 1622 l 1,735,-1
 211 1620 l 1,732,-1
213 1618 m 1,736,-1
 213 1622 l 1,737,-1
 223 1622 l 1,738,-1
 223 1618 l 1,739,-1
 213 1618 l 1,736,-1
223 1620 m 1,740,-1
 225 1620 l 1,741,-1
 225 1622 l 1,742,-1
 223 1622 l 1,743,-1
 223 1620 l 1,740,-1
301 1620 m 1,744,-1
 303 1620 l 1,745,-1
 303 1622 l 1,746,-1
 301 1622 l 1,747,-1
 301 1620 l 1,744,-1
4 1612 m 1,748,-1
 6 1612 l 1,749,-1
 6 1620 l 1,750,-1
 4 1620 l 1,751,-1
 4 1612 l 1,748,-1
6 1608 m 1,752,-1
 6 1620 l 1,753,-1
 8 1620 l 1,754,-1
 8 1608 l 1,755,-1
 6 1608 l 1,752,-1
12 1616 m 1,756,-1
 12 1620 l 1,757,-1
 20 1620 l 1,758,-1
 20 1616 l 1,759,-1
 12 1616 l 1,756,-1
25 1608 m 1,760,-1
 25 1620 l 1,761,-1
 27 1620 l 1,762,-1
 27 1608 l 1,763,-1
 25 1608 l 1,760,-1
27 1612 m 1,764,-1
 29 1612 l 1,765,-1
 29 1620 l 1,766,-1
 27 1620 l 1,767,-1
 27 1612 l 1,764,-1
143 1618 m 1,768,-1
 150 1618 l 1,769,-1
 150 1620 l 1,770,-1
 143 1620 l 1,771,-1
 143 1618 l 1,768,-1
152 1618 m 1,772,-1
 154 1618 l 1,773,-1
 154 1620 l 1,774,-1
 152 1620 l 1,775,-1
 152 1618 l 1,772,-1
176 1618 m 1,776,-1
 180 1618 l 1,777,-1
 180 1620 l 1,778,-1
 176 1620 l 1,779,-1
 176 1618 l 1,776,-1
182 1618 m 1,780,-1
 184 1618 l 1,781,-1
 184 1620 l 1,782,-1
 182 1620 l 1,783,-1
 182 1618 l 1,780,-1
209 1618 m 1,784,-1
 211 1618 l 1,785,-1
 211 1620 l 1,786,-1
 209 1620 l 1,787,-1
 209 1618 l 1,784,-1
211 1618 m 1,788,-1
 211 1620 l 1,789,-1
 213 1620 l 1,790,-1
 213 1618 l 1,791,-1
 211 1618 l 1,788,-1
223 1612 m 1,792,-1
 223 1620 l 1,793,-1
 225 1620 l 1,794,-1
 225 1612 l 1,795,-1
 223 1612 l 1,792,-1
225 1612 m 1,796,-1
 227 1612 l 1,797,-1
 227 1620 l 1,798,-1
 225 1620 l 1,799,-1
 225 1612 l 1,796,-1
242 1618 m 1,800,-1
 250 1618 l 1,801,-1
 250 1620 l 1,802,-1
 242 1620 l 1,803,-1
 242 1618 l 1,800,-1
274 1612 m 1,804,-1
 276 1612 l 1,805,-1
 276 1620 l 1,806,-1
 274 1620 l 1,807,-1
 274 1612 l 1,804,-1
281 1612 m 1,808,-1
 283 1612 l 1,809,-1
 283 1620 l 1,810,-1
 281 1620 l 1,811,-1
 281 1612 l 1,808,-1
299 1610 m 1,812,-1
 301 1610 l 1,813,-1
 301 1620 l 1,814,-1
 299 1620 l 1,815,-1
 299 1610 l 1,812,-1
301 1610 m 1,816,-1
 301 1620 l 1,817,-1
 303 1620 l 1,818,-1
 303 1610 l 1,819,-1
 301 1610 l 1,816,-1
303 1618 m 1,820,-1
 305 1618 l 1,821,-1
 305 1620 l 1,822,-1
 303 1620 l 1,823,-1
 303 1618 l 1,820,-1
45 1616 m 1,824,-1
 55 1616 l 1,825,-1
 55 1618 l 1,826,-1
 45 1618 l 1,827,-1
 45 1616 l 1,824,-1
59 1610 m 1,828,-1
 59 1618 l 1,829,-1
 61 1618 l 1,830,-1
 61 1610 l 1,831,-1
 59 1610 l 1,828,-1
61 1610 m 1,832,-1
 63 1610 l 1,833,-1
 63 1618 l 1,834,-1
 61 1618 l 1,835,-1
 61 1610 l 1,832,-1
92 1616 m 1,836,-1
 94 1616 l 1,837,-1
 94 1618 l 1,838,-1
 92 1618 l 1,839,-1
 92 1616 l 1,836,-1
141 1614 m 1,840,-1
 143 1614 l 1,841,-1
 143 1618 l 1,842,-1
 141 1618 l 1,843,-1
 141 1614 l 1,840,-1
150 1616 m 1,844,-1
 152 1616 l 1,845,-1
 152 1618 l 1,846,-1
 150 1618 l 1,847,-1
 150 1616 l 1,844,-1
158 1616 m 1,848,-1
 160 1616 l 1,849,-1
 160 1618 l 1,850,-1
 158 1618 l 1,851,-1
 158 1616 l 1,848,-1
174 1610 m 1,852,-1
 176 1610 l 1,853,-1
 176 1618 l 1,854,-1
 174 1618 l 1,855,-1
 174 1610 l 1,852,-1
180 1616 m 1,856,-1
 182 1616 l 1,857,-1
 182 1618 l 1,858,-1
 180 1618 l 1,859,-1
 180 1616 l 1,856,-1
211 1616 m 1,860,-1
 219 1616 l 1,861,-1
 219 1618 l 1,862,-1
 211 1618 l 1,863,-1
 211 1616 l 1,860,-1
219 1616 m 1,864,-1
 219 1618 l 1,865,-1
 223 1618 l 1,866,-1
 223 1616 l 1,867,-1
 219 1616 l 1,864,-1
240 1612 m 1,868,-1
 242 1612 l 1,869,-1
 242 1618 l 1,870,-1
 240 1618 l 1,871,-1
 240 1612 l 1,868,-1
250 1612 m 1,872,-1
 252 1612 l 1,873,-1
 252 1618 l 1,874,-1
 250 1618 l 1,875,-1
 250 1612 l 1,872,-1
303 1608 m 1,876,-1
 303 1618 l 1,877,-1
 305 1618 l 1,878,-1
 305 1608 l 1,879,-1
 303 1608 l 1,876,-1
305 1614 m 1,880,-1
 307 1614 l 1,881,-1
 307 1618 l 1,882,-1
 305 1618 l 1,883,-1
 305 1614 l 1,880,-1
8 1608 m 1,884,-1
 8 1616 l 1,885,-1
 10 1616 l 1,886,-1
 10 1608 l 1,887,-1
 8 1608 l 1,884,-1
10 1614 m 1,888,-1
 23 1614 l 1,889,-1
 23 1616 l 1,890,-1
 10 1616 l 1,891,-1
 10 1614 l 1,888,-1
23 1608 m 1,892,-1
 23 1616 l 1,893,-1
 25 1616 l 1,894,-1
 25 1608 l 1,895,-1
 23 1608 l 1,892,-1
45 1612 m 1,896,-1
 47 1612 l 1,897,-1
 47 1616 l 1,898,-1
 45 1616 l 1,899,-1
 45 1612 l 1,896,-1
55 1614 m 1,900,-1
 57 1614 l 1,901,-1
 57 1616 l 1,902,-1
 55 1616 l 1,903,-1
 55 1614 l 1,900,-1
70 1612 m 1,904,-1
 72 1612 l 1,905,-1
 72 1616 l 1,906,-1
 70 1616 l 1,907,-1
 70 1612 l 1,904,-1
76 1608 m 1,908,-1
 76 1616 l 1,909,-1
 78 1616 l 1,910,-1
 78 1608 l 1,911,-1
 76 1608 l 1,908,-1
78 1614 m 1,912,-1
 80 1614 l 1,913,-1
 80 1616 l 1,914,-1
 78 1616 l 1,915,-1
 78 1614 l 1,912,-1
90 1614 m 1,916,-1
 92 1614 l 1,917,-1
 92 1616 l 1,918,-1
 90 1616 l 1,919,-1
 90 1614 l 1,916,-1
92 1610 m 1,920,-1
 92 1616 l 1,921,-1
 94 1616 l 1,922,-1
 94 1610 l 1,923,-1
 92 1610 l 1,920,-1
94 1610 m 1,924,-1
 96 1610 l 1,925,-1
 96 1616 l 1,926,-1
 94 1616 l 1,927,-1
 94 1610 l 1,924,-1
156 1614 m 1,928,-1
 158 1614 l 1,929,-1
 158 1616 l 1,930,-1
 156 1616 l 1,931,-1
 156 1614 l 1,928,-1
158 1610 m 1,932,-1
 158 1616 l 1,933,-1
 160 1616 l 1,934,-1
 160 1610 l 1,935,-1
 158 1610 l 1,932,-1
160 1610 m 1,936,-1
 162 1610 l 1,937,-1
 162 1616 l 1,938,-1
 160 1616 l 1,939,-1
 160 1610 l 1,936,-1
199 1612 m 1,940,-1
 201 1612 l 1,941,-1
 201 1616 l 1,942,-1
 199 1616 l 1,943,-1
 199 1612 l 1,940,-1
205 1608 m 1,944,-1
 205 1616 l 1,945,-1
 207 1616 l 1,946,-1
 207 1608 l 1,947,-1
 205 1608 l 1,944,-1
207 1614 m 1,948,-1
 209 1614 l 1,949,-1
 209 1616 l 1,950,-1
 207 1616 l 1,951,-1
 207 1614 l 1,948,-1
219 1614 m 1,952,-1
 221 1614 l 1,953,-1
 221 1616 l 1,954,-1
 219 1616 l 1,955,-1
 219 1614 l 1,952,-1
221 1610 m 1,956,-1
 221 1616 l 1,957,-1
 223 1616 l 1,958,-1
 223 1610 l 1,959,-1
 221 1610 l 1,956,-1
268 1614 m 1,960,-1
 270 1614 l 1,961,-1
 270 1616 l 1,962,-1
 268 1616 l 1,963,-1
 268 1614 l 1,960,-1
311 1612 m 1,964,-1
 313 1612 l 1,965,-1
 313 1616 l 1,966,-1
 311 1616 l 1,967,-1
 311 1612 l 1,964,-1
313 1608 m 1,968,-1
 313 1616 l 1,969,-1
 315 1616 l 1,970,-1
 315 1608 l 1,971,-1
 313 1608 l 1,968,-1
10 1608 m 1,972,-1
 12 1608 l 1,973,-1
 12 1614 l 1,974,-1
 10 1614 l 1,975,-1
 10 1608 l 1,972,-1
20 1608 m 1,976,-1
 23 1608 l 1,977,-1
 23 1614 l 1,978,-1
 20 1614 l 1,979,-1
 20 1608 l 1,976,-1
47 1612 m 1,980,-1
 55 1612 l 1,981,-1
 55 1614 l 1,982,-1
 47 1614 l 1,983,-1
 47 1612 l 1,980,-1
55 1608 m 1,984,-1
 55 1614 l 1,985,-1
 57 1614 l 1,986,-1
 57 1608 l 1,987,-1
 55 1608 l 1,984,-1
78 1608 m 1,988,-1
 78 1614 l 1,989,-1
 80 1614 l 1,990,-1
 80 1608 l 1,991,-1
 78 1608 l 1,988,-1
80 1612 m 1,992,-1
 90 1612 l 1,993,-1
 90 1614 l 1,994,-1
 80 1614 l 1,995,-1
 80 1612 l 1,992,-1
90 1608 m 1,996,-1
 90 1614 l 1,997,-1
 92 1614 l 1,998,-1
 92 1608 l 1,999,-1
 90 1608 l 1,996,-1
111 1612 m 1,1000,-1
 121 1612 l 1,1001,-1
 121 1614 l 1,1002,-1
 111 1614 l 1,1003,-1
 111 1612 l 1,1000,-1
121 1608 m 1,1004,-1
 121 1614 l 1,1005,-1
 123 1614 l 1,1006,-1
 123 1608 l 1,1007,-1
 121 1608 l 1,1004,-1
141 1608 m 1,1008,-1
 141 1614 l 1,1009,-1
 143 1614 l 1,1010,-1
 143 1608 l 1,1011,-1
 141 1608 l 1,1008,-1
143 1612 m 1,1012,-1
 156 1612 l 1,1013,-1
 156 1614 l 1,1014,-1
 143 1614 l 1,1015,-1
 143 1612 l 1,1012,-1
156 1608 m 1,1016,-1
 156 1614 l 1,1017,-1
 158 1614 l 1,1018,-1
 158 1608 l 1,1019,-1
 156 1608 l 1,1016,-1
207 1608 m 1,1020,-1
 207 1614 l 1,1021,-1
 209 1614 l 1,1022,-1
 209 1608 l 1,1023,-1
 207 1608 l 1,1020,-1
209 1612 m 1,1024,-1
 219 1612 l 1,1025,-1
 219 1614 l 1,1026,-1
 209 1614 l 1,1027,-1
 209 1612 l 1,1024,-1
219 1608 m 1,1028,-1
 219 1614 l 1,1029,-1
 221 1614 l 1,1030,-1
 221 1608 l 1,1031,-1
 219 1608 l 1,1028,-1
266 1610 m 1,1032,-1
 268 1610 l 1,1033,-1
 268 1614 l 1,1034,-1
 266 1614 l 1,1035,-1
 266 1610 l 1,1032,-1
268 1610 m 1,1036,-1
 268 1614 l 1,1037,-1
 270 1614 l 1,1038,-1
 270 1610 l 1,1039,-1
 268 1610 l 1,1036,-1
270 1612 m 1,1040,-1
 274 1612 l 1,1041,-1
 274 1614 l 1,1042,-1
 270 1614 l 1,1043,-1
 270 1612 l 1,1040,-1
283 1612 m 1,1044,-1
 287 1612 l 1,1045,-1
 287 1614 l 1,1046,-1
 283 1614 l 1,1047,-1
 283 1612 l 1,1044,-1
287 1610 m 1,1048,-1
 287 1614 l 1,1049,-1
 289 1614 l 1,1050,-1
 289 1610 l 1,1051,-1
 287 1610 l 1,1048,-1
289 1610 m 1,1052,-1
 291 1610 l 1,1053,-1
 291 1614 l 1,1054,-1
 289 1614 l 1,1055,-1
 289 1610 l 1,1052,-1
305 1608 m 1,1056,-1
 305 1614 l 1,1057,-1
 307 1614 l 1,1058,-1
 307 1608 l 1,1059,-1
 305 1608 l 1,1056,-1
307 1612 m 1,1060,-1
 311 1612 l 1,1061,-1
 311 1614 l 1,1062,-1
 307 1614 l 1,1063,-1
 307 1612 l 1,1060,-1
2 1608 m 1,1064,-1
 4 1608 l 1,1065,-1
 4 1612 l 1,1066,-1
 2 1612 l 1,1067,-1
 2 1608 l 1,1064,-1
4 1608 m 1,1068,-1
 4 1612 l 1,1069,-1
 6 1612 l 1,1070,-1
 6 1608 l 1,1071,-1
 4 1608 l 1,1068,-1
27 1608 m 1,1072,-1
 27 1612 l 1,1073,-1
 29 1612 l 1,1074,-1
 29 1608 l 1,1075,-1
 27 1608 l 1,1072,-1
29 1608 m 1,1076,-1
 31 1608 l 1,1077,-1
 31 1612 l 1,1078,-1
 29 1612 l 1,1079,-1
 29 1608 l 1,1076,-1
45 1608 m 1,1080,-1
 45 1612 l 1,1081,-1
 55 1612 l 1,1082,-1
 55 1608 l 1,1083,-1
 45 1608 l 1,1080,-1
72 1610 m 1,1084,-1
 74 1610 l 1,1085,-1
 74 1612 l 1,1086,-1
 72 1612 l 1,1087,-1
 72 1610 l 1,1084,-1
80 1608 m 1,1088,-1
 80 1612 l 1,1089,-1
 90 1612 l 1,1090,-1
 90 1608 l 1,1091,-1
 80 1608 l 1,1088,-1
100 1608 m 1,1092,-1
 102 1608 l 1,1093,-1
 102 1612 l 1,1094,-1
 100 1612 l 1,1095,-1
 100 1608 l 1,1092,-1
102 1608 m 1,1096,-1
 102 1612 l 1,1097,-1
 104 1612 l 1,1098,-1
 104 1608 l 1,1099,-1
 102 1608 l 1,1096,-1
109 1608 m 1,1100,-1
 109 1612 l 1,1101,-1
 121 1612 l 1,1102,-1
 121 1608 l 1,1103,-1
 109 1608 l 1,1100,-1
125 1610 m 1,1104,-1
 127 1610 l 1,1105,-1
 127 1612 l 1,1106,-1
 125 1612 l 1,1107,-1
 125 1610 l 1,1104,-1
143 1608 m 1,1108,-1
 143 1612 l 1,1109,-1
 156 1612 l 1,1110,-1
 156 1608 l 1,1111,-1
 143 1608 l 1,1108,-1
176 1610 m 1,1112,-1
 178 1610 l 1,1113,-1
 178 1612 l 1,1114,-1
 176 1612 l 1,1115,-1
 176 1610 l 1,1112,-1
201 1610 m 1,1116,-1
 203 1610 l 1,1117,-1
 203 1612 l 1,1118,-1
 201 1612 l 1,1119,-1
 201 1610 l 1,1116,-1
209 1608 m 1,1120,-1
 209 1612 l 1,1121,-1
 219 1612 l 1,1122,-1
 219 1608 l 1,1123,-1
 209 1608 l 1,1120,-1
223 1610 m 1,1124,-1
 225 1610 l 1,1125,-1
 225 1612 l 1,1126,-1
 223 1612 l 1,1127,-1
 223 1610 l 1,1124,-1
231 1608 m 1,1128,-1
 233 1608 l 1,1129,-1
 233 1612 l 1,1130,-1
 231 1612 l 1,1131,-1
 231 1608 l 1,1128,-1
233 1608 m 1,1132,-1
 233 1612 l 1,1133,-1
 236 1612 l 1,1134,-1
 236 1608 l 1,1135,-1
 233 1608 l 1,1132,-1
240 1608 m 1,1136,-1
 240 1612 l 1,1137,-1
 242 1612 l 1,1138,-1
 242 1608 l 1,1139,-1
 240 1608 l 1,1136,-1
242 1608 m 1,1140,-1
 244 1608 l 1,1141,-1
 244 1612 l 1,1142,-1
 242 1612 l 1,1143,-1
 242 1608 l 1,1140,-1
248 1608 m 1,1144,-1
 250 1608 l 1,1145,-1
 250 1612 l 1,1146,-1
 248 1612 l 1,1147,-1
 248 1608 l 1,1144,-1
250 1608 m 1,1148,-1
 250 1612 l 1,1149,-1
 252 1612 l 1,1150,-1
 252 1608 l 1,1151,-1
 250 1608 l 1,1148,-1
256 1608 m 1,1152,-1
 256 1612 l 1,1153,-1
 258 1612 l 1,1154,-1
 258 1608 l 1,1155,-1
 256 1608 l 1,1152,-1
258 1608 m 1,1156,-1
 260 1608 l 1,1157,-1
 260 1612 l 1,1158,-1
 258 1612 l 1,1159,-1
 258 1608 l 1,1156,-1
270 1608 m 1,1160,-1
 270 1612 l 1,1161,-1
 276 1612 l 1,1162,-1
 276 1608 l 1,1163,-1
 270 1608 l 1,1160,-1
281 1608 m 1,1164,-1
 281 1612 l 1,1165,-1
 287 1612 l 1,1166,-1
 287 1608 l 1,1167,-1
 281 1608 l 1,1164,-1
307 1608 m 1,1168,-1
 307 1612 l 1,1169,-1
 313 1612 l 1,1170,-1
 313 1608 l 1,1171,-1
 307 1608 l 1,1168,-1
39 1608 m 1,1172,-1
 41 1608 l 1,1173,-1
 41 1610 l 1,1174,-1
 39 1610 l 1,1175,-1
 39 1608 l 1,1172,-1
59 1608 m 1,1176,-1
 61 1608 l 1,1177,-1
 61 1610 l 1,1178,-1
 59 1610 l 1,1179,-1
 59 1608 l 1,1176,-1
74 1608 m 1,1180,-1
 76 1608 l 1,1181,-1
 76 1610 l 1,1182,-1
 74 1610 l 1,1183,-1
 74 1608 l 1,1180,-1
92 1608 m 1,1184,-1
 94 1608 l 1,1185,-1
 94 1610 l 1,1186,-1
 92 1610 l 1,1187,-1
 92 1608 l 1,1184,-1
123 1608 m 1,1188,-1
 125 1608 l 1,1189,-1
 125 1610 l 1,1190,-1
 123 1610 l 1,1191,-1
 123 1608 l 1,1188,-1
137 1608 m 1,1192,-1
 139 1608 l 1,1193,-1
 139 1610 l 1,1194,-1
 137 1610 l 1,1195,-1
 137 1608 l 1,1192,-1
158 1608 m 1,1196,-1
 160 1608 l 1,1197,-1
 160 1610 l 1,1198,-1
 158 1610 l 1,1199,-1
 158 1608 l 1,1196,-1
174 1608 m 1,1200,-1
 174 1610 l 1,1201,-1
 178 1610 l 1,1202,-1
 178 1608 l 1,1203,-1
 174 1608 l 1,1200,-1
178 1608 m 1,1204,-1
 180 1608 l 1,1205,-1
 180 1610 l 1,1206,-1
 178 1610 l 1,1207,-1
 178 1608 l 1,1204,-1
203 1608 m 1,1208,-1
 205 1608 l 1,1209,-1
 205 1610 l 1,1210,-1
 203 1610 l 1,1211,-1
 203 1608 l 1,1208,-1
221 1608 m 1,1212,-1
 223 1608 l 1,1213,-1
 223 1610 l 1,1214,-1
 221 1610 l 1,1215,-1
 221 1608 l 1,1212,-1
268 1608 m 1,1216,-1
 270 1608 l 1,1217,-1
 270 1610 l 1,1218,-1
 268 1610 l 1,1219,-1
 268 1608 l 1,1216,-1
287 1608 m 1,1220,-1
 289 1608 l 1,1221,-1
 289 1610 l 1,1222,-1
 287 1610 l 1,1223,-1
 287 1608 l 1,1220,-1
301 1608 m 1,1224,-1
 303 1608 l 1,1225,-1
 303 1610 l 1,1226,-1
 301 1610 l 1,1227,-1
 301 1608 l 1,1224,-1
315 1608 m 1,1228,-1
 315 1610 l 1,1229,-1
 317 1610 l 1,1230,-1
 317 1608 l 1,1231,-1
 315 1608 l 1,1228,-1
317 1608 m 1,1232,-1
 319 1608 l 1,1233,-1
 319 1610 l 1,1234,-1
 317 1610 l 1,1235,-1
 317 1608 l 1,1232,-1
4 1604 m 1,1236,-1
 10 1604 l 1,1237,-1
 10 1608 l 1,1238,-1
 4 1608 l 1,1239,-1
 4 1604 l 1,1236,-1
23 1604 m 1,1240,-1
 29 1604 l 1,1241,-1
 29 1608 l 1,1242,-1
 23 1608 l 1,1243,-1
 23 1604 l 1,1240,-1
41 1606 m 1,1244,-1
 59 1606 l 1,1245,-1
 59 1608 l 1,1246,-1
 41 1608 l 1,1247,-1
 41 1606 l 1,1244,-1
76 1606 m 1,1248,-1
 92 1606 l 1,1249,-1
 92 1608 l 1,1250,-1
 76 1608 l 1,1251,-1
 76 1606 l 1,1248,-1
102 1606 m 1,1252,-1
 123 1606 l 1,1253,-1
 123 1608 l 1,1254,-1
 102 1608 l 1,1255,-1
 102 1606 l 1,1252,-1
139 1606 m 1,1256,-1
 158 1606 l 1,1257,-1
 158 1608 l 1,1258,-1
 139 1608 l 1,1259,-1
 139 1606 l 1,1256,-1
170 1604 m 1,1260,-1
 178 1604 l 1,1261,-1
 178 1608 l 1,1262,-1
 170 1608 l 1,1263,-1
 170 1604 l 1,1260,-1
205 1606 m 1,1264,-1
 221 1606 l 1,1265,-1
 221 1608 l 1,1266,-1
 205 1608 l 1,1267,-1
 205 1606 l 1,1264,-1
233 1604 m 1,1268,-1
 242 1604 l 1,1269,-1
 242 1608 l 1,1270,-1
 233 1608 l 1,1271,-1
 233 1604 l 1,1268,-1
250 1606 m 1,1272,-1
 258 1606 l 1,1273,-1
 258 1608 l 1,1274,-1
 250 1608 l 1,1275,-1
 250 1606 l 1,1272,-1
270 1606 m 1,1276,-1
 287 1606 l 1,1277,-1
 287 1608 l 1,1278,-1
 270 1608 l 1,1279,-1
 270 1606 l 1,1276,-1
303 1604 m 1,1280,-1
 317 1604 l 1,1281,-1
 317 1608 l 1,1282,-1
 303 1608 l 1,1283,-1
 303 1604 l 1,1280,-1
10 1604 m 1,1284,-1
 12 1604 l 1,1285,-1
 12 1606 l 1,1286,-1
 10 1606 l 1,1287,-1
 10 1604 l 1,1284,-1
41 1604 m 1,1288,-1
 49 1604 l 1,1289,-1
 49 1606 l 1,1290,-1
 41 1606 l 1,1291,-1
 41 1604 l 1,1288,-1
72 1604 m 1,1292,-1
 80 1604 l 1,1293,-1
 80 1606 l 1,1294,-1
 72 1606 l 1,1295,-1
 72 1604 l 1,1292,-1
84 1604 m 1,1296,-1
 92 1604 l 1,1297,-1
 92 1606 l 1,1298,-1
 84 1606 l 1,1299,-1
 84 1604 l 1,1296,-1
106 1604 m 1,1300,-1
 117 1604 l 1,1301,-1
 117 1606 l 1,1302,-1
 106 1606 l 1,1303,-1
 106 1604 l 1,1300,-1
139 1604 m 1,1304,-1
 156 1604 l 1,1305,-1
 156 1606 l 1,1306,-1
 139 1606 l 1,1307,-1
 139 1604 l 1,1304,-1
168 1604 m 1,1308,-1
 170 1604 l 1,1309,-1
 170 1606 l 1,1310,-1
 168 1606 l 1,1311,-1
 168 1604 l 1,1308,-1
178 1604 m 1,1312,-1
 186 1604 l 1,1313,-1
 186 1606 l 1,1314,-1
 178 1606 l 1,1315,-1
 178 1604 l 1,1312,-1
205 1604 m 1,1316,-1
 219 1604 l 1,1317,-1
 219 1606 l 1,1318,-1
 205 1606 l 1,1319,-1
 205 1604 l 1,1316,-1
242 1604 m 1,1320,-1
 252 1604 l 1,1321,-1
 252 1606 l 1,1322,-1
 242 1606 l 1,1323,-1
 242 1604 l 1,1320,-1
270 1604 m 1,1324,-1
 285 1604 l 1,1325,-1
 285 1606 l 1,1326,-1
 270 1606 l 1,1327,-1
 270 1604 l 1,1324,-1
317 1604 m 1,1328,-1
 319 1604 l 1,1329,-1
 319 1606 l 1,1330,-1
 317 1606 l 1,1331,-1
 317 1604 l 1,1328,-1
2 1602 m 1,1332,-1
 4 1602 l 1,1333,-1
 4 1604 l 1,1334,-1
 2 1604 l 1,1335,-1
 2 1602 l 1,1332,-1
4 1602 m 1,1336,-1
 4 1604 l 1,1337,-1
 12 1604 l 1,1338,-1
 12 1602 l 1,1339,-1
 4 1602 l 1,1336,-1
12 1593 m 1,1340,-1
 14 1593 l 1,1341,-1
 14 1604 l 1,1342,-1
 12 1604 l 1,1343,-1
 12 1593 l 1,1340,-1
20 1602 m 1,1344,-1
 23 1602 l 1,1345,-1
 23 1604 l 1,1346,-1
 20 1604 l 1,1347,-1
 20 1602 l 1,1344,-1
23 1602 m 1,1348,-1
 23 1604 l 1,1349,-1
 29 1604 l 1,1350,-1
 29 1602 l 1,1351,-1
 23 1602 l 1,1348,-1
29 1602 m 1,1352,-1
 31 1602 l 1,1353,-1
 31 1604 l 1,1354,-1
 29 1604 l 1,1355,-1
 29 1602 l 1,1352,-1
39 1577 m 1,1356,-1
 41 1577 l 1,1357,-1
 41 1604 l 1,1358,-1
 39 1604 l 1,1359,-1
 39 1577 l 1,1356,-1
41 1602 m 1,1360,-1
 41 1604 l 1,1361,-1
 49 1604 l 1,1362,-1
 49 1602 l 1,1363,-1
 41 1602 l 1,1360,-1
49 1602 m 1,1364,-1
 51 1602 l 1,1365,-1
 51 1604 l 1,1366,-1
 49 1604 l 1,1367,-1
 49 1602 l 1,1364,-1
70 1602 m 1,1368,-1
 72 1602 l 1,1369,-1
 72 1604 l 1,1370,-1
 70 1604 l 1,1371,-1
 70 1602 l 1,1368,-1
72 1599 m 1,1372,-1
 72 1604 l 1,1373,-1
 80 1604 l 1,1374,-1
 80 1599 l 1,1375,-1
 72 1599 l 1,1372,-1
80 1602 m 1,1376,-1
 84 1602 l 1,1377,-1
 84 1604 l 1,1378,-1
 80 1604 l 1,1379,-1
 80 1602 l 1,1376,-1
84 1599 m 1,1380,-1
 84 1604 l 1,1381,-1
 92 1604 l 1,1382,-1
 92 1599 l 1,1383,-1
 84 1599 l 1,1380,-1
92 1602 m 1,1384,-1
 94 1602 l 1,1385,-1
 94 1604 l 1,1386,-1
 92 1604 l 1,1387,-1
 92 1602 l 1,1384,-1
104 1602 m 1,1388,-1
 106 1602 l 1,1389,-1
 106 1604 l 1,1390,-1
 104 1604 l 1,1391,-1
 104 1602 l 1,1388,-1
106 1599 m 1,1392,-1
 106 1604 l 1,1393,-1
 117 1604 l 1,1394,-1
 117 1599 l 1,1395,-1
 106 1599 l 1,1392,-1
117 1602 m 1,1396,-1
 121 1602 l 1,1397,-1
 121 1604 l 1,1398,-1
 117 1604 l 1,1399,-1
 117 1602 l 1,1396,-1
137 1602 m 1,1400,-1
 139 1602 l 1,1401,-1
 139 1604 l 1,1402,-1
 137 1604 l 1,1403,-1
 137 1602 l 1,1400,-1
139 1599 m 1,1404,-1
 139 1604 l 1,1405,-1
 156 1604 l 1,1406,-1
 156 1599 l 1,1407,-1
 139 1599 l 1,1404,-1
156 1602 m 1,1408,-1
 158 1602 l 1,1409,-1
 158 1604 l 1,1410,-1
 156 1604 l 1,1411,-1
 156 1602 l 1,1408,-1
166 1602 m 1,1412,-1
 168 1602 l 1,1413,-1
 168 1604 l 1,1414,-1
 166 1604 l 1,1415,-1
 166 1602 l 1,1412,-1
168 1602 m 1,1416,-1
 168 1604 l 1,1417,-1
 186 1604 l 1,1418,-1
 186 1602 l 1,1419,-1
 168 1602 l 1,1416,-1
186 1602 m 1,1420,-1
 188 1602 l 1,1421,-1
 188 1604 l 1,1422,-1
 186 1604 l 1,1423,-1
 186 1602 l 1,1420,-1
203 1602 m 1,1424,-1
 205 1602 l 1,1425,-1
 205 1604 l 1,1426,-1
 203 1604 l 1,1427,-1
 203 1602 l 1,1424,-1
205 1599 m 1,1428,-1
 205 1604 l 1,1429,-1
 219 1604 l 1,1430,-1
 219 1599 l 1,1431,-1
 205 1599 l 1,1428,-1
219 1602 m 1,1432,-1
 221 1602 l 1,1433,-1
 221 1604 l 1,1434,-1
 219 1604 l 1,1435,-1
 219 1602 l 1,1432,-1
231 1602 m 1,1436,-1
 233 1602 l 1,1437,-1
 233 1604 l 1,1438,-1
 231 1604 l 1,1439,-1
 231 1602 l 1,1436,-1
233 1602 m 1,1440,-1
 233 1604 l 1,1441,-1
 252 1604 l 1,1442,-1
 252 1602 l 1,1443,-1
 233 1602 l 1,1440,-1
252 1602 m 1,1444,-1
 254 1602 l 1,1445,-1
 254 1604 l 1,1446,-1
 252 1604 l 1,1447,-1
 252 1602 l 1,1444,-1
268 1602 m 1,1448,-1
 270 1602 l 1,1449,-1
 270 1604 l 1,1450,-1
 268 1604 l 1,1451,-1
 268 1602 l 1,1448,-1
270 1599 m 1,1452,-1
 270 1604 l 1,1453,-1
 285 1604 l 1,1454,-1
 285 1599 l 1,1455,-1
 270 1599 l 1,1452,-1
285 1602 m 1,1456,-1
 287 1602 l 1,1457,-1
 287 1604 l 1,1458,-1
 285 1604 l 1,1459,-1
 285 1602 l 1,1456,-1
301 1602 m 1,1460,-1
 303 1602 l 1,1461,-1
 303 1604 l 1,1462,-1
 301 1604 l 1,1463,-1
 301 1602 l 1,1460,-1
303 1599 m 1,1464,-1
 303 1604 l 1,1465,-1
 319 1604 l 1,1466,-1
 319 1599 l 1,1467,-1
 303 1599 l 1,1464,-1
319 1602 m 1,1468,-1
 322 1602 l 1,1469,-1
 322 1604 l 1,1470,-1
 319 1604 l 1,1471,-1
 319 1602 l 1,1468,-1
4 1599 m 1,1472,-1
 6 1599 l 1,1473,-1
 6 1602 l 1,1474,-1
 4 1602 l 1,1475,-1
 4 1599 l 1,1472,-1
6 1599 m 1,1476,-1
 6 1602 l 1,1477,-1
 12 1602 l 1,1478,-1
 12 1599 l 1,1479,-1
 6 1599 l 1,1476,-1
18 1599 m 1,1480,-1
 20 1599 l 1,1481,-1
 20 1602 l 1,1482,-1
 18 1602 l 1,1483,-1
 18 1599 l 1,1480,-1
20 1599 m 1,1484,-1
 20 1602 l 1,1485,-1
 27 1602 l 1,1486,-1
 27 1599 l 1,1487,-1
 20 1599 l 1,1484,-1
27 1599 m 1,1488,-1
 29 1599 l 1,1489,-1
 29 1602 l 1,1490,-1
 27 1602 l 1,1491,-1
 27 1599 l 1,1488,-1
41 1599 m 1,1492,-1
 41 1602 l 1,1493,-1
 47 1602 l 1,1494,-1
 47 1599 l 1,1495,-1
 41 1599 l 1,1492,-1
47 1599 m 1,1496,-1
 49 1599 l 1,1497,-1
 49 1602 l 1,1498,-1
 47 1602 l 1,1499,-1
 47 1599 l 1,1496,-1
68 1579 m 1,1500,-1
 70 1579 l 1,1501,-1
 70 1602 l 1,1502,-1
 68 1602 l 1,1503,-1
 68 1579 l 1,1500,-1
70 1575 m 1,1504,-1
 70 1602 l 1,1505,-1
 72 1602 l 1,1506,-1
 72 1575 l 1,1507,-1
 70 1575 l 1,1504,-1
80 1589 m 1,1508,-1
 80 1602 l 1,1509,-1
 84 1602 l 1,1510,-1
 84 1589 l 1,1511,-1
 80 1589 l 1,1508,-1
92 1575 m 1,1512,-1
 92 1602 l 1,1513,-1
 94 1602 l 1,1514,-1
 94 1575 l 1,1515,-1
 92 1575 l 1,1512,-1
94 1579 m 1,1516,-1
 96 1579 l 1,1517,-1
 96 1602 l 1,1518,-1
 94 1602 l 1,1519,-1
 94 1579 l 1,1516,-1
102 1579 m 1,1520,-1
 104 1579 l 1,1521,-1
 104 1602 l 1,1522,-1
 102 1602 l 1,1523,-1
 102 1579 l 1,1520,-1
104 1575 m 1,1524,-1
 104 1602 l 1,1525,-1
 106 1602 l 1,1526,-1
 106 1575 l 1,1527,-1
 104 1575 l 1,1524,-1
117 1597 m 1,1528,-1
 117 1602 l 1,1529,-1
 121 1602 l 1,1530,-1
 121 1597 l 1,1531,-1
 117 1597 l 1,1528,-1
121 1599 m 1,1532,-1
 123 1599 l 1,1533,-1
 123 1602 l 1,1534,-1
 121 1602 l 1,1535,-1
 121 1599 l 1,1532,-1
135 1599 m 1,1536,-1
 137 1599 l 1,1537,-1
 137 1602 l 1,1538,-1
 135 1602 l 1,1539,-1
 135 1599 l 1,1536,-1
137 1595 m 1,1540,-1
 137 1602 l 1,1541,-1
 139 1602 l 1,1542,-1
 139 1595 l 1,1543,-1
 137 1595 l 1,1540,-1
156 1595 m 1,1544,-1
 156 1602 l 1,1545,-1
 158 1602 l 1,1546,-1
 158 1595 l 1,1547,-1
 156 1595 l 1,1544,-1
158 1599 m 1,1548,-1
 160 1599 l 1,1549,-1
 160 1602 l 1,1550,-1
 158 1602 l 1,1551,-1
 158 1599 l 1,1548,-1
168 1599 m 1,1552,-1
 170 1599 l 1,1553,-1
 170 1602 l 1,1554,-1
 168 1602 l 1,1555,-1
 168 1599 l 1,1552,-1
170 1599 m 1,1556,-1
 170 1602 l 1,1557,-1
 188 1602 l 1,1558,-1
 188 1599 l 1,1559,-1
 170 1599 l 1,1556,-1
188 1599 m 1,1560,-1
 190 1599 l 1,1561,-1
 190 1602 l 1,1562,-1
 188 1602 l 1,1563,-1
 188 1599 l 1,1560,-1
201 1599 m 1,1564,-1
 203 1599 l 1,1565,-1
 203 1602 l 1,1566,-1
 201 1602 l 1,1567,-1
 201 1599 l 1,1564,-1
203 1595 m 1,1568,-1
 203 1602 l 1,1569,-1
 205 1602 l 1,1570,-1
 205 1595 l 1,1571,-1
 203 1595 l 1,1568,-1
219 1595 m 1,1572,-1
 219 1602 l 1,1573,-1
 221 1602 l 1,1574,-1
 221 1595 l 1,1575,-1
 219 1595 l 1,1572,-1
221 1599 m 1,1576,-1
 223 1599 l 1,1577,-1
 223 1602 l 1,1578,-1
 221 1602 l 1,1579,-1
 221 1599 l 1,1576,-1
233 1599 m 1,1580,-1
 236 1599 l 1,1581,-1
 236 1602 l 1,1582,-1
 233 1602 l 1,1583,-1
 233 1599 l 1,1580,-1
236 1599 m 1,1584,-1
 236 1602 l 1,1585,-1
 254 1602 l 1,1586,-1
 254 1599 l 1,1587,-1
 236 1599 l 1,1584,-1
254 1599 m 1,1588,-1
 256 1599 l 1,1589,-1
 256 1602 l 1,1590,-1
 254 1602 l 1,1591,-1
 254 1599 l 1,1588,-1
266 1595 m 1,1592,-1
 268 1595 l 1,1593,-1
 268 1602 l 1,1594,-1
 266 1602 l 1,1595,-1
 266 1595 l 1,1592,-1
268 1595 m 1,1596,-1
 268 1602 l 1,1597,-1
 270 1602 l 1,1598,-1
 270 1595 l 1,1599,-1
 268 1595 l 1,1596,-1
285 1595 m 1,1600,-1
 285 1602 l 1,1601,-1
 287 1602 l 1,1602,-1
 287 1595 l 1,1603,-1
 285 1595 l 1,1600,-1
287 1595 m 1,1604,-1
 289 1595 l 1,1605,-1
 289 1602 l 1,1606,-1
 287 1602 l 1,1607,-1
 287 1595 l 1,1604,-1
299 1597 m 1,1608,-1
 301 1597 l 1,1609,-1
 301 1602 l 1,1610,-1
 299 1602 l 1,1611,-1
 299 1597 l 1,1608,-1
301 1597 m 1,1612,-1
 301 1602 l 1,1613,-1
 303 1602 l 1,1614,-1
 303 1597 l 1,1615,-1
 301 1597 l 1,1612,-1
319 1597 m 1,1616,-1
 319 1602 l 1,1617,-1
 322 1602 l 1,1618,-1
 322 1597 l 1,1619,-1
 319 1597 l 1,1616,-1
322 1597 m 1,1620,-1
 324 1597 l 1,1621,-1
 324 1602 l 1,1622,-1
 322 1602 l 1,1623,-1
 322 1597 l 1,1620,-1
6 1579 m 1,1624,-1
 8 1579 l 1,1625,-1
 8 1599 l 1,1626,-1
 6 1599 l 1,1627,-1
 6 1579 l 1,1624,-1
8 1575 m 1,1628,-1
 8 1599 l 1,1629,-1
 12 1599 l 1,1630,-1
 12 1575 l 1,1631,-1
 8 1575 l 1,1628,-1
16 1597 m 1,1632,-1
 18 1597 l 1,1633,-1
 18 1599 l 1,1634,-1
 16 1599 l 1,1635,-1
 16 1597 l 1,1632,-1
18 1597 m 1,1636,-1
 18 1599 l 1,1637,-1
 25 1599 l 1,1638,-1
 25 1597 l 1,1639,-1
 18 1597 l 1,1636,-1
25 1597 m 1,1640,-1
 27 1597 l 1,1641,-1
 27 1599 l 1,1642,-1
 25 1599 l 1,1643,-1
 25 1597 l 1,1640,-1
41 1577 m 1,1644,-1
 41 1599 l 1,1645,-1
 45 1599 l 1,1646,-1
 45 1577 l 1,1647,-1
 41 1577 l 1,1644,-1
45 1581 m 1,1648,-1
 47 1581 l 1,1649,-1
 47 1599 l 1,1650,-1
 45 1599 l 1,1651,-1
 45 1581 l 1,1648,-1
72 1597 m 1,1652,-1
 72 1599 l 1,1653,-1
 76 1599 l 1,1654,-1
 76 1597 l 1,1655,-1
 72 1597 l 1,1652,-1
76 1597 m 1,1656,-1
 78 1597 l 1,1657,-1
 78 1599 l 1,1658,-1
 76 1599 l 1,1659,-1
 76 1597 l 1,1656,-1
78 1597 m 1,1660,-1
 78 1599 l 1,1661,-1
 80 1599 l 1,1662,-1
 80 1597 l 1,1663,-1
 78 1597 l 1,1660,-1
84 1597 m 1,1664,-1
 84 1599 l 1,1665,-1
 86 1599 l 1,1666,-1
 86 1597 l 1,1667,-1
 84 1597 l 1,1664,-1
86 1597 m 1,1668,-1
 88 1597 l 1,1669,-1
 88 1599 l 1,1670,-1
 86 1599 l 1,1671,-1
 86 1597 l 1,1668,-1
88 1597 m 1,1672,-1
 88 1599 l 1,1673,-1
 92 1599 l 1,1674,-1
 92 1597 l 1,1675,-1
 88 1597 l 1,1672,-1
106 1597 m 1,1676,-1
 106 1599 l 1,1677,-1
 111 1599 l 1,1678,-1
 111 1597 l 1,1679,-1
 106 1597 l 1,1676,-1
111 1597 m 1,1680,-1
 117 1597 l 1,1681,-1
 117 1599 l 1,1682,-1
 111 1599 l 1,1683,-1
 111 1597 l 1,1680,-1
121 1575 m 1,1684,-1
 121 1599 l 1,1685,-1
 123 1599 l 1,1686,-1
 123 1575 l 1,1687,-1
 121 1575 l 1,1684,-1
123 1597 m 1,1688,-1
 125 1597 l 1,1689,-1
 125 1599 l 1,1690,-1
 123 1599 l 1,1691,-1
 123 1597 l 1,1688,-1
133 1595 m 1,1692,-1
 135 1595 l 1,1693,-1
 135 1599 l 1,1694,-1
 133 1599 l 1,1695,-1
 133 1595 l 1,1692,-1
135 1579 m 1,1696,-1
 135 1599 l 1,1697,-1
 137 1599 l 1,1698,-1
 137 1579 l 1,1699,-1
 135 1579 l 1,1696,-1
139 1597 m 1,1700,-1
 139 1599 l 1,1701,-1
 141 1599 l 1,1702,-1
 141 1597 l 1,1703,-1
 139 1597 l 1,1700,-1
141 1597 m 1,1704,-1
 154 1597 l 1,1705,-1
 154 1599 l 1,1706,-1
 141 1599 l 1,1707,-1
 141 1597 l 1,1704,-1
154 1597 m 1,1708,-1
 154 1599 l 1,1709,-1
 156 1599 l 1,1710,-1
 156 1597 l 1,1711,-1
 154 1597 l 1,1708,-1
158 1579 m 1,1712,-1
 158 1599 l 1,1713,-1
 160 1599 l 1,1714,-1
 160 1579 l 1,1715,-1
 158 1579 l 1,1712,-1
160 1595 m 1,1716,-1
 162 1595 l 1,1717,-1
 162 1599 l 1,1718,-1
 160 1599 l 1,1719,-1
 160 1595 l 1,1716,-1
170 1579 m 1,1720,-1
 172 1579 l 1,1721,-1
 172 1599 l 1,1722,-1
 170 1599 l 1,1723,-1
 170 1579 l 1,1720,-1
172 1575 m 1,1724,-1
 172 1599 l 1,1725,-1
 176 1599 l 1,1726,-1
 176 1575 l 1,1727,-1
 172 1575 l 1,1724,-1
176 1597 m 1,1728,-1
 184 1597 l 1,1729,-1
 184 1599 l 1,1730,-1
 176 1599 l 1,1731,-1
 176 1597 l 1,1728,-1
184 1597 m 1,1732,-1
 184 1599 l 1,1733,-1
 190 1599 l 1,1734,-1
 190 1597 l 1,1735,-1
 184 1597 l 1,1732,-1
190 1589 m 1,1736,-1
 193 1589 l 1,1737,-1
 193 1599 l 1,1738,-1
 190 1599 l 1,1739,-1
 190 1589 l 1,1736,-1
199 1595 m 1,1740,-1
 201 1595 l 1,1741,-1
 201 1599 l 1,1742,-1
 199 1599 l 1,1743,-1
 199 1595 l 1,1740,-1
201 1579 m 1,1744,-1
 201 1599 l 1,1745,-1
 203 1599 l 1,1746,-1
 203 1579 l 1,1747,-1
 201 1579 l 1,1744,-1
205 1597 m 1,1748,-1
 205 1599 l 1,1749,-1
 207 1599 l 1,1750,-1
 207 1597 l 1,1751,-1
 205 1597 l 1,1748,-1
207 1597 m 1,1752,-1
 217 1597 l 1,1753,-1
 217 1599 l 1,1754,-1
 207 1599 l 1,1755,-1
 207 1597 l 1,1752,-1
217 1597 m 1,1756,-1
 217 1599 l 1,1757,-1
 219 1599 l 1,1758,-1
 219 1597 l 1,1759,-1
 217 1597 l 1,1756,-1
221 1575 m 1,1760,-1
 221 1599 l 1,1761,-1
 223 1599 l 1,1762,-1
 223 1575 l 1,1763,-1
 221 1575 l 1,1760,-1
223 1595 m 1,1764,-1
 225 1595 l 1,1765,-1
 225 1599 l 1,1766,-1
 223 1599 l 1,1767,-1
 223 1595 l 1,1764,-1
236 1579 m 1,1768,-1
 238 1579 l 1,1769,-1
 238 1599 l 1,1770,-1
 236 1599 l 1,1771,-1
 236 1579 l 1,1768,-1
238 1575 m 1,1772,-1
 238 1599 l 1,1773,-1
 242 1599 l 1,1774,-1
 242 1575 l 1,1775,-1
 238 1575 l 1,1772,-1
242 1597 m 1,1776,-1
 250 1597 l 1,1777,-1
 250 1599 l 1,1778,-1
 242 1599 l 1,1779,-1
 242 1597 l 1,1776,-1
250 1597 m 1,1780,-1
 250 1599 l 1,1781,-1
 256 1599 l 1,1782,-1
 256 1597 l 1,1783,-1
 250 1597 l 1,1780,-1
256 1591 m 1,1784,-1
 258 1591 l 1,1785,-1
 258 1599 l 1,1786,-1
 256 1599 l 1,1787,-1
 256 1591 l 1,1784,-1
270 1591 m 1,1788,-1
 270 1599 l 1,1789,-1
 272 1599 l 1,1790,-1
 272 1591 l 1,1791,-1
 270 1591 l 1,1788,-1
272 1597 m 1,1792,-1
 283 1597 l 1,1793,-1
 283 1599 l 1,1794,-1
 272 1599 l 1,1795,-1
 272 1597 l 1,1792,-1
283 1597 m 1,1796,-1
 283 1599 l 1,1797,-1
 285 1599 l 1,1798,-1
 285 1597 l 1,1799,-1
 283 1597 l 1,1796,-1
303 1597 m 1,1800,-1
 309 1597 l 1,1801,-1
 309 1599 l 1,1802,-1
 303 1599 l 1,1803,-1
 303 1597 l 1,1800,-1
309 1575 m 1,1804,-1
 309 1599 l 1,1805,-1
 313 1599 l 1,1806,-1
 313 1575 l 1,1807,-1
 309 1575 l 1,1804,-1
313 1597 m 1,1808,-1
 319 1597 l 1,1809,-1
 319 1599 l 1,1810,-1
 313 1599 l 1,1811,-1
 313 1597 l 1,1808,-1
14 1595 m 1,1812,-1
 16 1595 l 1,1813,-1
 16 1597 l 1,1814,-1
 14 1597 l 1,1815,-1
 14 1595 l 1,1812,-1
16 1595 m 1,1816,-1
 16 1597 l 1,1817,-1
 23 1597 l 1,1818,-1
 23 1595 l 1,1819,-1
 16 1595 l 1,1816,-1
23 1595 m 1,1820,-1
 25 1595 l 1,1821,-1
 25 1597 l 1,1822,-1
 23 1597 l 1,1823,-1
 23 1595 l 1,1820,-1
72 1575 m 1,1824,-1
 72 1597 l 1,1825,-1
 74 1597 l 1,1826,-1
 74 1575 l 1,1827,-1
 72 1575 l 1,1824,-1
74 1579 m 1,1828,-1
 76 1579 l 1,1829,-1
 76 1597 l 1,1830,-1
 74 1597 l 1,1831,-1
 74 1579 l 1,1828,-1
78 1593 m 1,1832,-1
 80 1593 l 1,1833,-1
 80 1597 l 1,1834,-1
 78 1597 l 1,1835,-1
 78 1593 l 1,1832,-1
84 1593 m 1,1836,-1
 86 1593 l 1,1837,-1
 86 1597 l 1,1838,-1
 84 1597 l 1,1839,-1
 84 1593 l 1,1836,-1
88 1579 m 1,1840,-1
 90 1579 l 1,1841,-1
 90 1597 l 1,1842,-1
 88 1597 l 1,1843,-1
 88 1579 l 1,1840,-1
90 1575 m 1,1844,-1
 90 1597 l 1,1845,-1
 92 1597 l 1,1846,-1
 92 1575 l 1,1847,-1
 90 1575 l 1,1844,-1
106 1575 m 1,1848,-1
 106 1597 l 1,1849,-1
 109 1597 l 1,1850,-1
 109 1575 l 1,1851,-1
 106 1575 l 1,1848,-1
109 1579 m 1,1852,-1
 111 1579 l 1,1853,-1
 111 1597 l 1,1854,-1
 109 1597 l 1,1855,-1
 109 1579 l 1,1852,-1
117 1595 m 1,1856,-1
 119 1595 l 1,1857,-1
 119 1597 l 1,1858,-1
 117 1597 l 1,1859,-1
 117 1595 l 1,1856,-1
119 1595 m 1,1860,-1
 119 1597 l 1,1861,-1
 121 1597 l 1,1862,-1
 121 1595 l 1,1863,-1
 119 1595 l 1,1860,-1
123 1575 m 1,1864,-1
 123 1597 l 1,1865,-1
 125 1597 l 1,1866,-1
 125 1575 l 1,1867,-1
 123 1575 l 1,1864,-1
125 1579 m 1,1868,-1
 127 1579 l 1,1869,-1
 127 1597 l 1,1870,-1
 125 1597 l 1,1871,-1
 125 1579 l 1,1868,-1
139 1595 m 1,1872,-1
 141 1595 l 1,1873,-1
 141 1597 l 1,1874,-1
 139 1597 l 1,1875,-1
 139 1595 l 1,1872,-1
154 1595 m 1,1876,-1
 156 1595 l 1,1877,-1
 156 1597 l 1,1878,-1
 154 1597 l 1,1879,-1
 154 1595 l 1,1876,-1
176 1591 m 1,1880,-1
 178 1591 l 1,1881,-1
 178 1597 l 1,1882,-1
 176 1597 l 1,1883,-1
 176 1591 l 1,1880,-1
184 1591 m 1,1884,-1
 186 1591 l 1,1885,-1
 186 1597 l 1,1886,-1
 184 1597 l 1,1887,-1
 184 1591 l 1,1884,-1
186 1589 m 1,1888,-1
 186 1597 l 1,1889,-1
 190 1597 l 1,1890,-1
 190 1589 l 1,1891,-1
 186 1589 l 1,1888,-1
205 1595 m 1,1892,-1
 207 1595 l 1,1893,-1
 207 1597 l 1,1894,-1
 205 1597 l 1,1895,-1
 205 1595 l 1,1892,-1
217 1595 m 1,1896,-1
 219 1595 l 1,1897,-1
 219 1597 l 1,1898,-1
 217 1597 l 1,1899,-1
 217 1595 l 1,1896,-1
242 1593 m 1,1900,-1
 244 1593 l 1,1901,-1
 244 1597 l 1,1902,-1
 242 1597 l 1,1903,-1
 242 1593 l 1,1900,-1
250 1593 m 1,1904,-1
 252 1593 l 1,1905,-1
 252 1597 l 1,1906,-1
 250 1597 l 1,1907,-1
 250 1593 l 1,1904,-1
252 1591 m 1,1908,-1
 252 1597 l 1,1909,-1
 256 1597 l 1,1910,-1
 256 1591 l 1,1911,-1
 252 1591 l 1,1908,-1
272 1595 m 1,1912,-1
 274 1595 l 1,1913,-1
 274 1597 l 1,1914,-1
 272 1597 l 1,1915,-1
 272 1595 l 1,1912,-1
283 1595 m 1,1916,-1
 285 1595 l 1,1917,-1
 285 1597 l 1,1918,-1
 283 1597 l 1,1919,-1
 283 1595 l 1,1916,-1
301 1595 m 1,1920,-1
 303 1595 l 1,1921,-1
 303 1597 l 1,1922,-1
 301 1597 l 1,1923,-1
 301 1595 l 1,1920,-1
307 1591 m 1,1924,-1
 309 1591 l 1,1925,-1
 309 1597 l 1,1926,-1
 307 1597 l 1,1927,-1
 307 1591 l 1,1924,-1
313 1591 m 1,1928,-1
 315 1591 l 1,1929,-1
 315 1597 l 1,1930,-1
 313 1597 l 1,1931,-1
 313 1591 l 1,1928,-1
319 1595 m 1,1932,-1
 322 1595 l 1,1933,-1
 322 1597 l 1,1934,-1
 319 1597 l 1,1935,-1
 319 1595 l 1,1932,-1
14 1593 m 1,1936,-1
 14 1595 l 1,1937,-1
 20 1595 l 1,1938,-1
 20 1593 l 1,1939,-1
 14 1593 l 1,1936,-1
20 1593 m 1,1940,-1
 23 1593 l 1,1941,-1
 23 1595 l 1,1942,-1
 20 1595 l 1,1943,-1
 20 1593 l 1,1940,-1
119 1579 m 1,1944,-1
 121 1579 l 1,1945,-1
 121 1595 l 1,1946,-1
 119 1595 l 1,1947,-1
 119 1579 l 1,1944,-1
131 1583 m 1,1948,-1
 133 1583 l 1,1949,-1
 133 1595 l 1,1950,-1
 131 1595 l 1,1951,-1
 131 1583 l 1,1948,-1
133 1583 m 1,1952,-1
 133 1595 l 1,1953,-1
 135 1595 l 1,1954,-1
 135 1583 l 1,1955,-1
 133 1583 l 1,1952,-1
137 1583 m 1,1956,-1
 139 1583 l 1,1957,-1
 139 1595 l 1,1958,-1
 137 1595 l 1,1959,-1
 137 1583 l 1,1956,-1
156 1583 m 1,1960,-1
 158 1583 l 1,1961,-1
 158 1595 l 1,1962,-1
 156 1595 l 1,1963,-1
 156 1583 l 1,1960,-1
160 1583 m 1,1964,-1
 160 1595 l 1,1965,-1
 162 1595 l 1,1966,-1
 162 1583 l 1,1967,-1
 160 1583 l 1,1964,-1
162 1583 m 1,1968,-1
 164 1583 l 1,1969,-1
 164 1595 l 1,1970,-1
 162 1595 l 1,1971,-1
 162 1583 l 1,1968,-1
197 1583 m 1,1972,-1
 199 1583 l 1,1973,-1
 199 1595 l 1,1974,-1
 197 1595 l 1,1975,-1
 197 1583 l 1,1972,-1
199 1583 m 1,1976,-1
 199 1595 l 1,1977,-1
 201 1595 l 1,1978,-1
 201 1583 l 1,1979,-1
 199 1583 l 1,1976,-1
203 1583 m 1,1980,-1
 205 1583 l 1,1981,-1
 205 1595 l 1,1982,-1
 203 1595 l 1,1983,-1
 203 1583 l 1,1980,-1
219 1583 m 1,1984,-1
 221 1583 l 1,1985,-1
 221 1595 l 1,1986,-1
 219 1595 l 1,1987,-1
 219 1583 l 1,1984,-1
223 1583 m 1,1988,-1
 223 1595 l 1,1989,-1
 225 1595 l 1,1990,-1
 225 1583 l 1,1991,-1
 223 1583 l 1,1988,-1
225 1583 m 1,1992,-1
 227 1583 l 1,1993,-1
 227 1595 l 1,1994,-1
 225 1595 l 1,1995,-1
 225 1583 l 1,1992,-1
268 1591 m 1,1996,-1
 270 1591 l 1,1997,-1
 270 1595 l 1,1998,-1
 268 1595 l 1,1999,-1
 268 1591 l 1,1996,-1
272 1589 m 1,2000,-1
 272 1595 l 1,2001,-1
 274 1595 l 1,2002,-1
 274 1589 l 1,2003,-1
 272 1589 l 1,2000,-1
274 1593 m 1,2004,-1
 279 1593 l 1,2005,-1
 279 1595 l 1,2006,-1
 274 1595 l 1,2007,-1
 274 1593 l 1,2004,-1
285 1593 m 1,2008,-1
 287 1593 l 1,2009,-1
 287 1595 l 1,2010,-1
 285 1595 l 1,2011,-1
 285 1593 l 1,2008,-1
12 1591 m 1,2012,-1
 12 1593 l 1,2013,-1
 18 1593 l 1,2014,-1
 18 1591 l 1,2015,-1
 12 1591 l 1,2012,-1
18 1591 m 1,2016,-1
 20 1591 l 1,2017,-1
 20 1593 l 1,2018,-1
 18 1593 l 1,2019,-1
 18 1591 l 1,2016,-1
76 1591 m 1,2020,-1
 78 1591 l 1,2021,-1
 78 1593 l 1,2022,-1
 76 1593 l 1,2023,-1
 76 1591 l 1,2020,-1
78 1591 m 1,2024,-1
 78 1593 l 1,2025,-1
 80 1593 l 1,2026,-1
 80 1591 l 1,2027,-1
 78 1591 l 1,2024,-1
84 1591 m 1,2028,-1
 84 1593 l 1,2029,-1
 86 1593 l 1,2030,-1
 86 1591 l 1,2031,-1
 84 1591 l 1,2028,-1
86 1591 m 1,2032,-1
 88 1591 l 1,2033,-1
 88 1593 l 1,2034,-1
 86 1593 l 1,2035,-1
 86 1591 l 1,2032,-1
242 1585 m 1,2036,-1
 242 1593 l 1,2037,-1
 244 1593 l 1,2038,-1
 244 1585 l 1,2039,-1
 242 1585 l 1,2036,-1
244 1591 m 1,2040,-1
 250 1591 l 1,2041,-1
 250 1593 l 1,2042,-1
 244 1593 l 1,2043,-1
 244 1591 l 1,2040,-1
250 1587 m 1,2044,-1
 250 1593 l 1,2045,-1
 252 1593 l 1,2046,-1
 252 1587 l 1,2047,-1
 250 1587 l 1,2044,-1
274 1589 m 1,2048,-1
 274 1593 l 1,2049,-1
 279 1593 l 1,2050,-1
 279 1589 l 1,2051,-1
 274 1589 l 1,2048,-1
279 1591 m 1,2052,-1
 283 1591 l 1,2053,-1
 283 1593 l 1,2054,-1
 279 1593 l 1,2055,-1
 279 1591 l 1,2052,-1
12 1585 m 1,2056,-1
 12 1591 l 1,2057,-1
 16 1591 l 1,2058,-1
 16 1585 l 1,2059,-1
 12 1585 l 1,2056,-1
16 1587 m 1,2060,-1
 18 1587 l 1,2061,-1
 18 1591 l 1,2062,-1
 16 1591 l 1,2063,-1
 16 1587 l 1,2060,-1
78 1589 m 1,2064,-1
 80 1589 l 1,2065,-1
 80 1591 l 1,2066,-1
 78 1591 l 1,2067,-1
 78 1589 l 1,2064,-1
84 1589 m 1,2068,-1
 86 1589 l 1,2069,-1
 86 1591 l 1,2070,-1
 84 1591 l 1,2071,-1
 84 1589 l 1,2068,-1
176 1585 m 1,2072,-1
 176 1591 l 1,2073,-1
 178 1591 l 1,2074,-1
 178 1585 l 1,2075,-1
 176 1585 l 1,2072,-1
178 1589 m 1,2076,-1
 184 1589 l 1,2077,-1
 184 1591 l 1,2078,-1
 178 1591 l 1,2079,-1
 178 1589 l 1,2076,-1
184 1585 m 1,2080,-1
 184 1591 l 1,2081,-1
 186 1591 l 1,2082,-1
 186 1585 l 1,2083,-1
 184 1585 l 1,2080,-1
244 1587 m 1,2084,-1
 244 1591 l 1,2085,-1
 250 1591 l 1,2086,-1
 250 1587 l 1,2087,-1
 244 1587 l 1,2084,-1
252 1589 m 1,2088,-1
 252 1591 l 1,2089,-1
 254 1591 l 1,2090,-1
 254 1589 l 1,2091,-1
 252 1589 l 1,2088,-1
254 1589 m 1,2092,-1
 256 1589 l 1,2093,-1
 256 1591 l 1,2094,-1
 254 1591 l 1,2095,-1
 254 1589 l 1,2092,-1
270 1589 m 1,2096,-1
 272 1589 l 1,2097,-1
 272 1591 l 1,2098,-1
 270 1591 l 1,2099,-1
 270 1589 l 1,2096,-1
279 1587 m 1,2100,-1
 279 1591 l 1,2101,-1
 283 1591 l 1,2102,-1
 283 1587 l 1,2103,-1
 279 1587 l 1,2100,-1
283 1589 m 1,2104,-1
 285 1589 l 1,2105,-1
 285 1591 l 1,2106,-1
 283 1591 l 1,2107,-1
 283 1589 l 1,2104,-1
305 1587 m 1,2108,-1
 307 1587 l 1,2109,-1
 307 1591 l 1,2110,-1
 305 1591 l 1,2111,-1
 305 1587 l 1,2108,-1
307 1587 m 1,2112,-1
 307 1591 l 1,2113,-1
 309 1591 l 1,2114,-1
 309 1587 l 1,2115,-1
 307 1587 l 1,2112,-1
313 1587 m 1,2116,-1
 313 1591 l 1,2117,-1
 315 1591 l 1,2118,-1
 315 1587 l 1,2119,-1
 313 1587 l 1,2116,-1
315 1587 m 1,2120,-1
 317 1587 l 1,2121,-1
 317 1591 l 1,2122,-1
 315 1591 l 1,2123,-1
 315 1587 l 1,2120,-1
80 1587 m 1,2124,-1
 84 1587 l 1,2125,-1
 84 1589 l 1,2126,-1
 80 1589 l 1,2127,-1
 80 1587 l 1,2124,-1
178 1585 m 1,2128,-1
 178 1589 l 1,2129,-1
 184 1589 l 1,2130,-1
 184 1585 l 1,2131,-1
 178 1585 l 1,2128,-1
186 1587 m 1,2132,-1
 186 1589 l 1,2133,-1
 188 1589 l 1,2134,-1
 188 1587 l 1,2135,-1
 186 1587 l 1,2132,-1
188 1587 m 1,2136,-1
 190 1587 l 1,2137,-1
 190 1589 l 1,2138,-1
 188 1589 l 1,2139,-1
 188 1587 l 1,2136,-1
252 1587 m 1,2140,-1
 254 1587 l 1,2141,-1
 254 1589 l 1,2142,-1
 252 1589 l 1,2143,-1
 252 1587 l 1,2140,-1
272 1587 m 1,2144,-1
 276 1587 l 1,2145,-1
 276 1589 l 1,2146,-1
 272 1589 l 1,2147,-1
 272 1587 l 1,2144,-1
276 1587 m 1,2148,-1
 276 1589 l 1,2149,-1
 279 1589 l 1,2150,-1
 279 1587 l 1,2151,-1
 276 1587 l 1,2148,-1
283 1585 m 1,2152,-1
 283 1589 l 1,2153,-1
 285 1589 l 1,2154,-1
 285 1585 l 1,2155,-1
 283 1585 l 1,2152,-1
285 1587 m 1,2156,-1
 287 1587 l 1,2157,-1
 287 1589 l 1,2158,-1
 285 1589 l 1,2159,-1
 285 1587 l 1,2156,-1
16 1581 m 1,2160,-1
 16 1587 l 1,2161,-1
 18 1587 l 1,2162,-1
 18 1581 l 1,2163,-1
 16 1581 l 1,2160,-1
18 1585 m 1,2164,-1
 20 1585 l 1,2165,-1
 20 1587 l 1,2166,-1
 18 1587 l 1,2167,-1
 18 1585 l 1,2164,-1
57 1585 m 1,2168,-1
 61 1585 l 1,2169,-1
 61 1587 l 1,2170,-1
 57 1587 l 1,2171,-1
 57 1585 l 1,2168,-1
186 1585 m 1,2172,-1
 188 1585 l 1,2173,-1
 188 1587 l 1,2174,-1
 186 1587 l 1,2175,-1
 186 1585 l 1,2172,-1
244 1583 m 1,2176,-1
 244 1587 l 1,2177,-1
 248 1587 l 1,2178,-1
 248 1583 l 1,2179,-1
 244 1583 l 1,2176,-1
248 1585 m 1,2180,-1
 252 1585 l 1,2181,-1
 252 1587 l 1,2182,-1
 248 1587 l 1,2183,-1
 248 1585 l 1,2180,-1
276 1585 m 1,2184,-1
 281 1585 l 1,2185,-1
 281 1587 l 1,2186,-1
 276 1587 l 1,2187,-1
 276 1585 l 1,2184,-1
281 1585 m 1,2188,-1
 281 1587 l 1,2189,-1
 283 1587 l 1,2190,-1
 283 1585 l 1,2191,-1
 281 1585 l 1,2188,-1
285 1575 m 1,2192,-1
 285 1587 l 1,2193,-1
 287 1587 l 1,2194,-1
 287 1575 l 1,2195,-1
 285 1575 l 1,2192,-1
287 1585 m 1,2196,-1
 289 1585 l 1,2197,-1
 289 1587 l 1,2198,-1
 287 1587 l 1,2199,-1
 287 1585 l 1,2196,-1
307 1579 m 1,2200,-1
 309 1579 l 1,2201,-1
 309 1587 l 1,2202,-1
 307 1587 l 1,2203,-1
 307 1579 l 1,2200,-1
313 1579 m 1,2204,-1
 315 1579 l 1,2205,-1
 315 1587 l 1,2206,-1
 313 1587 l 1,2207,-1
 313 1579 l 1,2204,-1
12 1575 m 1,2208,-1
 14 1575 l 1,2209,-1
 14 1585 l 1,2210,-1
 12 1585 l 1,2211,-1
 12 1575 l 1,2208,-1
14 1583 m 1,2212,-1
 14 1585 l 1,2213,-1
 16 1585 l 1,2214,-1
 16 1583 l 1,2215,-1
 14 1583 l 1,2212,-1
18 1579 m 1,2216,-1
 18 1585 l 1,2217,-1
 20 1585 l 1,2218,-1
 20 1579 l 1,2219,-1
 18 1579 l 1,2216,-1
20 1583 m 1,2220,-1
 23 1583 l 1,2221,-1
 23 1585 l 1,2222,-1
 20 1585 l 1,2223,-1
 20 1583 l 1,2220,-1
55 1579 m 1,2224,-1
 57 1579 l 1,2225,-1
 57 1585 l 1,2226,-1
 55 1585 l 1,2227,-1
 55 1579 l 1,2224,-1
57 1577 m 1,2228,-1
 57 1585 l 1,2229,-1
 61 1585 l 1,2230,-1
 61 1577 l 1,2231,-1
 57 1577 l 1,2228,-1
61 1577 m 1,2232,-1
 63 1577 l 1,2233,-1
 63 1585 l 1,2234,-1
 61 1585 l 1,2235,-1
 61 1577 l 1,2232,-1
176 1583 m 1,2236,-1
 186 1583 l 1,2237,-1
 186 1585 l 1,2238,-1
 176 1585 l 1,2239,-1
 176 1583 l 1,2236,-1
242 1575 m 1,2240,-1
 244 1575 l 1,2241,-1
 244 1585 l 1,2242,-1
 242 1585 l 1,2243,-1
 242 1575 l 1,2240,-1
248 1579 m 1,2244,-1
 248 1585 l 1,2245,-1
 250 1585 l 1,2246,-1
 250 1579 l 1,2247,-1
 248 1579 l 1,2244,-1
250 1583 m 1,2248,-1
 252 1583 l 1,2249,-1
 252 1585 l 1,2250,-1
 250 1585 l 1,2251,-1
 250 1583 l 1,2248,-1
268 1583 m 1,2252,-1
 270 1583 l 1,2253,-1
 270 1585 l 1,2254,-1
 268 1585 l 1,2255,-1
 268 1583 l 1,2252,-1
281 1583 m 1,2256,-1
 285 1583 l 1,2257,-1
 285 1585 l 1,2258,-1
 281 1585 l 1,2259,-1
 281 1583 l 1,2256,-1
287 1577 m 1,2260,-1
 287 1585 l 1,2261,-1
 289 1585 l 1,2262,-1
 289 1577 l 1,2263,-1
 287 1577 l 1,2260,-1
289 1577 m 1,2264,-1
 291 1577 l 1,2265,-1
 291 1585 l 1,2266,-1
 289 1585 l 1,2267,-1
 289 1577 l 1,2264,-1
14 1581 m 1,2268,-1
 16 1581 l 1,2269,-1
 16 1583 l 1,2270,-1
 14 1583 l 1,2271,-1
 14 1581 l 1,2268,-1
20 1577 m 1,2272,-1
 20 1583 l 1,2273,-1
 23 1583 l 1,2274,-1
 23 1577 l 1,2275,-1
 20 1577 l 1,2272,-1
23 1581 m 1,2276,-1
 25 1581 l 1,2277,-1
 25 1583 l 1,2278,-1
 23 1583 l 1,2279,-1
 23 1581 l 1,2276,-1
133 1579 m 1,2280,-1
 135 1579 l 1,2281,-1
 135 1583 l 1,2282,-1
 133 1583 l 1,2283,-1
 133 1579 l 1,2280,-1
137 1577 m 1,2284,-1
 137 1583 l 1,2285,-1
 139 1583 l 1,2286,-1
 139 1577 l 1,2287,-1
 137 1577 l 1,2284,-1
139 1581 m 1,2288,-1
 141 1581 l 1,2289,-1
 141 1583 l 1,2290,-1
 139 1583 l 1,2291,-1
 139 1581 l 1,2288,-1
154 1581 m 1,2292,-1
 156 1581 l 1,2293,-1
 156 1583 l 1,2294,-1
 154 1583 l 1,2295,-1
 154 1581 l 1,2292,-1
156 1577 m 1,2296,-1
 156 1583 l 1,2297,-1
 158 1583 l 1,2298,-1
 158 1577 l 1,2299,-1
 156 1577 l 1,2296,-1
160 1579 m 1,2300,-1
 162 1579 l 1,2301,-1
 162 1583 l 1,2302,-1
 160 1583 l 1,2303,-1
 160 1579 l 1,2300,-1
176 1579 m 1,2304,-1
 178 1579 l 1,2305,-1
 178 1583 l 1,2306,-1
 176 1583 l 1,2307,-1
 176 1579 l 1,2304,-1
199 1579 m 1,2308,-1
 201 1579 l 1,2309,-1
 201 1583 l 1,2310,-1
 199 1583 l 1,2311,-1
 199 1579 l 1,2308,-1
203 1577 m 1,2312,-1
 203 1583 l 1,2313,-1
 205 1583 l 1,2314,-1
 205 1577 l 1,2315,-1
 203 1577 l 1,2312,-1
205 1581 m 1,2316,-1
 207 1581 l 1,2317,-1
 207 1583 l 1,2318,-1
 205 1583 l 1,2319,-1
 205 1581 l 1,2316,-1
217 1581 m 1,2320,-1
 219 1581 l 1,2321,-1
 219 1583 l 1,2322,-1
 217 1583 l 1,2323,-1
 217 1581 l 1,2320,-1
219 1577 m 1,2324,-1
 219 1583 l 1,2325,-1
 221 1583 l 1,2326,-1
 221 1577 l 1,2327,-1
 219 1577 l 1,2324,-1
223 1579 m 1,2328,-1
 225 1579 l 1,2329,-1
 225 1583 l 1,2330,-1
 223 1583 l 1,2331,-1
 223 1579 l 1,2328,-1
244 1581 m 1,2332,-1
 246 1581 l 1,2333,-1
 246 1583 l 1,2334,-1
 244 1583 l 1,2335,-1
 244 1581 l 1,2332,-1
246 1581 m 1,2336,-1
 246 1583 l 1,2337,-1
 248 1583 l 1,2338,-1
 248 1581 l 1,2339,-1
 246 1581 l 1,2336,-1
250 1577 m 1,2340,-1
 250 1583 l 1,2341,-1
 252 1583 l 1,2342,-1
 252 1577 l 1,2343,-1
 250 1577 l 1,2340,-1
252 1581 m 1,2344,-1
 254 1581 l 1,2345,-1
 254 1583 l 1,2346,-1
 252 1583 l 1,2347,-1
 252 1581 l 1,2344,-1
266 1577 m 1,2348,-1
 268 1577 l 1,2349,-1
 268 1583 l 1,2350,-1
 266 1583 l 1,2351,-1
 266 1577 l 1,2348,-1
268 1577 m 1,2352,-1
 268 1583 l 1,2353,-1
 270 1583 l 1,2354,-1
 270 1577 l 1,2355,-1
 268 1577 l 1,2352,-1
270 1581 m 1,2356,-1
 272 1581 l 1,2357,-1
 272 1583 l 1,2358,-1
 270 1583 l 1,2359,-1
 270 1581 l 1,2356,-1
283 1579 m 1,2360,-1
 285 1579 l 1,2361,-1
 285 1583 l 1,2362,-1
 283 1583 l 1,2363,-1
 283 1579 l 1,2360,-1
16 1579 m 1,2364,-1
 18 1579 l 1,2365,-1
 18 1581 l 1,2366,-1
 16 1581 l 1,2367,-1
 16 1579 l 1,2364,-1
23 1575 m 1,2368,-1
 23 1581 l 1,2369,-1
 25 1581 l 1,2370,-1
 25 1575 l 1,2371,-1
 23 1575 l 1,2368,-1
25 1579 m 1,2372,-1
 27 1579 l 1,2373,-1
 27 1581 l 1,2374,-1
 25 1581 l 1,2375,-1
 25 1579 l 1,2372,-1
45 1575 m 1,2376,-1
 45 1581 l 1,2377,-1
 47 1581 l 1,2378,-1
 47 1575 l 1,2379,-1
 45 1575 l 1,2376,-1
47 1579 m 1,2380,-1
 55 1579 l 1,2381,-1
 55 1581 l 1,2382,-1
 47 1581 l 1,2383,-1
 47 1579 l 1,2380,-1
139 1575 m 1,2384,-1
 139 1581 l 1,2385,-1
 141 1581 l 1,2386,-1
 141 1575 l 1,2387,-1
 139 1575 l 1,2384,-1
141 1579 m 1,2388,-1
 154 1579 l 1,2389,-1
 154 1581 l 1,2390,-1
 141 1581 l 1,2391,-1
 141 1579 l 1,2388,-1
154 1575 m 1,2392,-1
 154 1581 l 1,2393,-1
 156 1581 l 1,2394,-1
 156 1575 l 1,2395,-1
 154 1575 l 1,2392,-1
205 1575 m 1,2396,-1
 205 1581 l 1,2397,-1
 207 1581 l 1,2398,-1
 207 1575 l 1,2399,-1
 205 1575 l 1,2396,-1
207 1579 m 1,2400,-1
 217 1579 l 1,2401,-1
 217 1581 l 1,2402,-1
 207 1581 l 1,2403,-1
 207 1579 l 1,2400,-1
217 1575 m 1,2404,-1
 217 1581 l 1,2405,-1
 219 1581 l 1,2406,-1
 219 1575 l 1,2407,-1
 217 1575 l 1,2404,-1
246 1579 m 1,2408,-1
 248 1579 l 1,2409,-1
 248 1581 l 1,2410,-1
 246 1581 l 1,2411,-1
 246 1579 l 1,2408,-1
252 1575 m 1,2412,-1
 252 1581 l 1,2413,-1
 254 1581 l 1,2414,-1
 254 1575 l 1,2415,-1
 252 1575 l 1,2412,-1
254 1579 m 1,2416,-1
 256 1579 l 1,2417,-1
 256 1581 l 1,2418,-1
 254 1581 l 1,2419,-1
 254 1579 l 1,2416,-1
270 1575 m 1,2420,-1
 270 1581 l 1,2421,-1
 272 1581 l 1,2422,-1
 272 1575 l 1,2423,-1
 270 1575 l 1,2420,-1
272 1579 m 1,2424,-1
 283 1579 l 1,2425,-1
 283 1581 l 1,2426,-1
 272 1581 l 1,2427,-1
 272 1579 l 1,2424,-1
4 1577 m 1,2428,-1
 6 1577 l 1,2429,-1
 6 1579 l 1,2430,-1
 4 1579 l 1,2431,-1
 4 1577 l 1,2428,-1
6 1575 m 1,2432,-1
 6 1579 l 1,2433,-1
 8 1579 l 1,2434,-1
 8 1575 l 1,2435,-1
 6 1575 l 1,2432,-1
18 1577 m 1,2436,-1
 20 1577 l 1,2437,-1
 20 1579 l 1,2438,-1
 18 1579 l 1,2439,-1
 18 1577 l 1,2436,-1
25 1575 m 1,2440,-1
 25 1579 l 1,2441,-1
 27 1579 l 1,2442,-1
 27 1575 l 1,2443,-1
 25 1575 l 1,2440,-1
27 1577 m 1,2444,-1
 29 1577 l 1,2445,-1
 29 1579 l 1,2446,-1
 27 1579 l 1,2447,-1
 27 1577 l 1,2444,-1
47 1575 m 1,2448,-1
 47 1579 l 1,2449,-1
 57 1579 l 1,2450,-1
 57 1575 l 1,2451,-1
 47 1575 l 1,2448,-1
66 1575 m 1,2452,-1
 68 1575 l 1,2453,-1
 68 1579 l 1,2454,-1
 66 1579 l 1,2455,-1
 66 1575 l 1,2452,-1
68 1575 m 1,2456,-1
 68 1579 l 1,2457,-1
 70 1579 l 1,2458,-1
 70 1575 l 1,2459,-1
 68 1575 l 1,2456,-1
74 1575 m 1,2460,-1
 74 1579 l 1,2461,-1
 76 1579 l 1,2462,-1
 76 1575 l 1,2463,-1
 74 1575 l 1,2460,-1
76 1575 m 1,2464,-1
 78 1575 l 1,2465,-1
 78 1579 l 1,2466,-1
 76 1579 l 1,2467,-1
 76 1575 l 1,2464,-1
86 1575 m 1,2468,-1
 88 1575 l 1,2469,-1
 88 1579 l 1,2470,-1
 86 1579 l 1,2471,-1
 86 1575 l 1,2468,-1
88 1575 m 1,2472,-1
 88 1579 l 1,2473,-1
 90 1579 l 1,2474,-1
 90 1575 l 1,2475,-1
 88 1575 l 1,2472,-1
94 1575 m 1,2476,-1
 94 1579 l 1,2477,-1
 96 1579 l 1,2478,-1
 96 1575 l 1,2479,-1
 94 1575 l 1,2476,-1
96 1575 m 1,2480,-1
 98 1575 l 1,2481,-1
 98 1579 l 1,2482,-1
 96 1579 l 1,2483,-1
 96 1575 l 1,2480,-1
100 1575 m 1,2484,-1
 102 1575 l 1,2485,-1
 102 1579 l 1,2486,-1
 100 1579 l 1,2487,-1
 100 1575 l 1,2484,-1
102 1575 m 1,2488,-1
 102 1579 l 1,2489,-1
 104 1579 l 1,2490,-1
 104 1575 l 1,2491,-1
 102 1575 l 1,2488,-1
109 1575 m 1,2492,-1
 109 1579 l 1,2493,-1
 111 1579 l 1,2494,-1
 111 1575 l 1,2495,-1
 109 1575 l 1,2492,-1
111 1575 m 1,2496,-1
 113 1575 l 1,2497,-1
 113 1579 l 1,2498,-1
 111 1579 l 1,2499,-1
 111 1575 l 1,2496,-1
117 1575 m 1,2500,-1
 119 1575 l 1,2501,-1
 119 1579 l 1,2502,-1
 117 1579 l 1,2503,-1
 117 1575 l 1,2500,-1
119 1575 m 1,2504,-1
 119 1579 l 1,2505,-1
 121 1579 l 1,2506,-1
 121 1575 l 1,2507,-1
 119 1575 l 1,2504,-1
125 1575 m 1,2508,-1
 125 1579 l 1,2509,-1
 127 1579 l 1,2510,-1
 127 1575 l 1,2511,-1
 125 1575 l 1,2508,-1
127 1575 m 1,2512,-1
 129 1575 l 1,2513,-1
 129 1579 l 1,2514,-1
 127 1579 l 1,2515,-1
 127 1575 l 1,2512,-1
135 1577 m 1,2516,-1
 137 1577 l 1,2517,-1
 137 1579 l 1,2518,-1
 135 1579 l 1,2519,-1
 135 1577 l 1,2516,-1
141 1575 m 1,2520,-1
 141 1579 l 1,2521,-1
 154 1579 l 1,2522,-1
 154 1575 l 1,2523,-1
 141 1575 l 1,2520,-1
158 1577 m 1,2524,-1
 160 1577 l 1,2525,-1
 160 1579 l 1,2526,-1
 158 1579 l 1,2527,-1
 158 1577 l 1,2524,-1
168 1575 m 1,2528,-1
 170 1575 l 1,2529,-1
 170 1579 l 1,2530,-1
 168 1579 l 1,2531,-1
 168 1575 l 1,2528,-1
170 1575 m 1,2532,-1
 170 1579 l 1,2533,-1
 172 1579 l 1,2534,-1
 172 1575 l 1,2535,-1
 170 1575 l 1,2532,-1
176 1575 m 1,2536,-1
 176 1579 l 1,2537,-1
 178 1579 l 1,2538,-1
 178 1575 l 1,2539,-1
 176 1575 l 1,2536,-1
178 1575 m 1,2540,-1
 180 1575 l 1,2541,-1
 180 1579 l 1,2542,-1
 178 1579 l 1,2543,-1
 178 1575 l 1,2540,-1
201 1577 m 1,2544,-1
 203 1577 l 1,2545,-1
 203 1579 l 1,2546,-1
 201 1579 l 1,2547,-1
 201 1577 l 1,2544,-1
207 1575 m 1,2548,-1
 207 1579 l 1,2549,-1
 217 1579 l 1,2550,-1
 217 1575 l 1,2551,-1
 207 1575 l 1,2548,-1
223 1575 m 1,2552,-1
 223 1579 l 1,2553,-1
 225 1579 l 1,2554,-1
 225 1575 l 1,2555,-1
 223 1575 l 1,2552,-1
225 1577 m 1,2556,-1
 227 1577 l 1,2557,-1
 227 1579 l 1,2558,-1
 225 1579 l 1,2559,-1
 225 1577 l 1,2556,-1
233 1577 m 1,2560,-1
 236 1577 l 1,2561,-1
 236 1579 l 1,2562,-1
 233 1579 l 1,2563,-1
 233 1577 l 1,2560,-1
236 1575 m 1,2564,-1
 236 1579 l 1,2565,-1
 238 1579 l 1,2566,-1
 238 1575 l 1,2567,-1
 236 1575 l 1,2564,-1
248 1577 m 1,2568,-1
 250 1577 l 1,2569,-1
 250 1579 l 1,2570,-1
 248 1579 l 1,2571,-1
 248 1577 l 1,2568,-1
254 1575 m 1,2572,-1
 254 1579 l 1,2573,-1
 256 1579 l 1,2574,-1
 256 1575 l 1,2575,-1
 254 1575 l 1,2572,-1
256 1577 m 1,2576,-1
 258 1577 l 1,2577,-1
 258 1579 l 1,2578,-1
 256 1579 l 1,2579,-1
 256 1577 l 1,2576,-1
272 1575 m 1,2580,-1
 272 1579 l 1,2581,-1
 285 1579 l 1,2582,-1
 285 1575 l 1,2583,-1
 272 1575 l 1,2580,-1
305 1577 m 1,2584,-1
 307 1577 l 1,2585,-1
 307 1579 l 1,2586,-1
 305 1579 l 1,2587,-1
 305 1577 l 1,2584,-1
307 1575 m 1,2588,-1
 307 1579 l 1,2589,-1
 309 1579 l 1,2590,-1
 309 1575 l 1,2591,-1
 307 1575 l 1,2588,-1
313 1575 m 1,2592,-1
 313 1579 l 1,2593,-1
 315 1579 l 1,2594,-1
 315 1575 l 1,2595,-1
 313 1575 l 1,2592,-1
315 1577 m 1,2596,-1
 317 1577 l 1,2597,-1
 317 1579 l 1,2598,-1
 315 1579 l 1,2599,-1
 315 1577 l 1,2596,-1
2 1575 m 1,2600,-1
 4 1575 l 1,2601,-1
 4 1577 l 1,2602,-1
 2 1577 l 1,2603,-1
 2 1575 l 1,2600,-1
4 1575 m 1,2604,-1
 4 1577 l 1,2605,-1
 6 1577 l 1,2606,-1
 6 1575 l 1,2607,-1
 4 1575 l 1,2604,-1
20 1575 m 1,2608,-1
 23 1575 l 1,2609,-1
 23 1577 l 1,2610,-1
 20 1577 l 1,2611,-1
 20 1575 l 1,2608,-1
27 1575 m 1,2612,-1
 27 1577 l 1,2613,-1
 29 1577 l 1,2614,-1
 29 1575 l 1,2615,-1
 27 1575 l 1,2612,-1
29 1575 m 1,2616,-1
 31 1575 l 1,2617,-1
 31 1577 l 1,2618,-1
 29 1577 l 1,2619,-1
 29 1575 l 1,2616,-1
41 1575 m 1,2620,-1
 43 1575 l 1,2621,-1
 43 1577 l 1,2622,-1
 41 1577 l 1,2623,-1
 41 1575 l 1,2620,-1
43 1575 m 1,2624,-1
 43 1577 l 1,2625,-1
 45 1577 l 1,2626,-1
 45 1575 l 1,2627,-1
 43 1575 l 1,2624,-1
57 1575 m 1,2628,-1
 57 1577 l 1,2629,-1
 59 1577 l 1,2630,-1
 59 1575 l 1,2631,-1
 57 1575 l 1,2628,-1
59 1575 m 1,2632,-1
 61 1575 l 1,2633,-1
 61 1577 l 1,2634,-1
 59 1577 l 1,2635,-1
 59 1575 l 1,2632,-1
137 1575 m 1,2636,-1
 139 1575 l 1,2637,-1
 139 1577 l 1,2638,-1
 137 1577 l 1,2639,-1
 137 1575 l 1,2636,-1
156 1575 m 1,2640,-1
 158 1575 l 1,2641,-1
 158 1577 l 1,2642,-1
 156 1577 l 1,2643,-1
 156 1575 l 1,2640,-1
203 1575 m 1,2644,-1
 205 1575 l 1,2645,-1
 205 1577 l 1,2646,-1
 203 1577 l 1,2647,-1
 203 1575 l 1,2644,-1
219 1575 m 1,2648,-1
 221 1575 l 1,2649,-1
 221 1577 l 1,2650,-1
 219 1577 l 1,2651,-1
 219 1575 l 1,2648,-1
225 1575 m 1,2652,-1
 225 1577 l 1,2653,-1
 227 1577 l 1,2654,-1
 227 1575 l 1,2655,-1
 225 1575 l 1,2652,-1
227 1575 m 1,2656,-1
 229 1575 l 1,2657,-1
 229 1577 l 1,2658,-1
 227 1577 l 1,2659,-1
 227 1575 l 1,2656,-1
231 1575 m 1,2660,-1
 233 1575 l 1,2661,-1
 233 1577 l 1,2662,-1
 231 1577 l 1,2663,-1
 231 1575 l 1,2660,-1
233 1575 m 1,2664,-1
 233 1577 l 1,2665,-1
 236 1577 l 1,2666,-1
 236 1575 l 1,2667,-1
 233 1575 l 1,2664,-1
250 1575 m 1,2668,-1
 252 1575 l 1,2669,-1
 252 1577 l 1,2670,-1
 250 1577 l 1,2671,-1
 250 1575 l 1,2668,-1
256 1575 m 1,2672,-1
 256 1577 l 1,2673,-1
 258 1577 l 1,2674,-1
 258 1575 l 1,2675,-1
 256 1575 l 1,2672,-1
258 1575 m 1,2676,-1
 260 1575 l 1,2677,-1
 260 1577 l 1,2678,-1
 258 1577 l 1,2679,-1
 258 1575 l 1,2676,-1
268 1575 m 1,2680,-1
 270 1575 l 1,2681,-1
 270 1577 l 1,2682,-1
 268 1577 l 1,2683,-1
 268 1575 l 1,2680,-1
287 1575 m 1,2684,-1
 289 1575 l 1,2685,-1
 289 1577 l 1,2686,-1
 287 1577 l 1,2687,-1
 287 1575 l 1,2684,-1
303 1575 m 1,2688,-1
 305 1575 l 1,2689,-1
 305 1577 l 1,2690,-1
 303 1577 l 1,2691,-1
 303 1575 l 1,2688,-1
305 1575 m 1,2692,-1
 305 1577 l 1,2693,-1
 307 1577 l 1,2694,-1
 307 1575 l 1,2695,-1
 305 1575 l 1,2692,-1
315 1575 m 1,2696,-1
 315 1577 l 1,2697,-1
 317 1577 l 1,2698,-1
 317 1575 l 1,2699,-1
 315 1575 l 1,2696,-1
317 1575 m 1,2700,-1
 319 1575 l 1,2701,-1
 319 1577 l 1,2702,-1
 317 1577 l 1,2703,-1
 317 1575 l 1,2700,-1
4 1571 m 1,2704,-1
 12 1571 l 1,2705,-1
 12 1575 l 1,2706,-1
 4 1575 l 1,2707,-1
 4 1571 l 1,2704,-1
23 1571 m 1,2708,-1
 29 1571 l 1,2709,-1
 29 1575 l 1,2710,-1
 23 1575 l 1,2711,-1
 23 1571 l 1,2708,-1
43 1573 m 1,2712,-1
 59 1573 l 1,2713,-1
 59 1575 l 1,2714,-1
 43 1575 l 1,2715,-1
 43 1573 l 1,2712,-1
68 1571 m 1,2716,-1
 76 1571 l 1,2717,-1
 76 1575 l 1,2718,-1
 68 1575 l 1,2719,-1
 68 1571 l 1,2716,-1
88 1571 m 1,2720,-1
 96 1571 l 1,2721,-1
 96 1575 l 1,2722,-1
 88 1575 l 1,2723,-1
 88 1571 l 1,2720,-1
102 1573 m 1,2724,-1
 111 1573 l 1,2725,-1
 111 1575 l 1,2726,-1
 102 1575 l 1,2727,-1
 102 1573 l 1,2724,-1
119 1573 m 1,2728,-1
 127 1573 l 1,2729,-1
 127 1575 l 1,2730,-1
 119 1575 l 1,2731,-1
 119 1573 l 1,2728,-1
139 1573 m 1,2732,-1
 156 1573 l 1,2733,-1
 156 1575 l 1,2734,-1
 139 1575 l 1,2735,-1
 139 1573 l 1,2732,-1
170 1571 m 1,2736,-1
 178 1571 l 1,2737,-1
 178 1575 l 1,2738,-1
 170 1575 l 1,2739,-1
 170 1571 l 1,2736,-1
205 1573 m 1,2740,-1
 219 1573 l 1,2741,-1
 219 1575 l 1,2742,-1
 205 1575 l 1,2743,-1
 205 1573 l 1,2740,-1
221 1573 m 1,2744,-1
 227 1573 l 1,2745,-1
 227 1575 l 1,2746,-1
 221 1575 l 1,2747,-1
 221 1573 l 1,2744,-1
233 1573 m 1,2748,-1
 242 1573 l 1,2749,-1
 242 1575 l 1,2750,-1
 233 1575 l 1,2751,-1
 233 1573 l 1,2748,-1
252 1573 m 1,2752,-1
 258 1573 l 1,2753,-1
 258 1575 l 1,2754,-1
 252 1575 l 1,2755,-1
 252 1573 l 1,2752,-1
270 1573 m 1,2756,-1
 287 1573 l 1,2757,-1
 287 1575 l 1,2758,-1
 270 1575 l 1,2759,-1
 270 1573 l 1,2756,-1
305 1573 m 1,2760,-1
 317 1573 l 1,2761,-1
 317 1575 l 1,2762,-1
 305 1575 l 1,2763,-1
 305 1573 l 1,2760,-1
20 1571 m 1,2764,-1
 23 1571 l 1,2765,-1
 23 1573 l 1,2766,-1
 20 1573 l 1,2767,-1
 20 1571 l 1,2764,-1
35 1571 m 1,2768,-1
 43 1571 l 1,2769,-1
 43 1573 l 1,2770,-1
 35 1573 l 1,2771,-1
 35 1571 l 1,2768,-1
55 1571 m 1,2772,-1
 63 1571 l 1,2773,-1
 63 1573 l 1,2774,-1
 55 1573 l 1,2775,-1
 55 1571 l 1,2772,-1
100 1571 m 1,2776,-1
 106 1571 l 1,2777,-1
 106 1573 l 1,2778,-1
 100 1573 l 1,2779,-1
 100 1571 l 1,2776,-1
123 1571 m 1,2780,-1
 129 1571 l 1,2781,-1
 129 1573 l 1,2782,-1
 123 1573 l 1,2783,-1
 123 1571 l 1,2780,-1
133 1571 m 1,2784,-1
 139 1571 l 1,2785,-1
 139 1573 l 1,2786,-1
 133 1573 l 1,2787,-1
 133 1571 l 1,2784,-1
156 1571 m 1,2788,-1
 162 1571 l 1,2789,-1
 162 1573 l 1,2790,-1
 156 1573 l 1,2791,-1
 156 1571 l 1,2788,-1
168 1571 m 1,2792,-1
 170 1571 l 1,2793,-1
 170 1573 l 1,2794,-1
 168 1573 l 1,2795,-1
 168 1571 l 1,2792,-1
178 1571 m 1,2796,-1
 193 1571 l 1,2797,-1
 193 1573 l 1,2798,-1
 178 1573 l 1,2799,-1
 178 1571 l 1,2796,-1
2 1567 m 1,2800,-1
 4 1567 l 1,2801,-1
 4 1571 l 1,2802,-1
 2 1571 l 1,2803,-1
 2 1567 l 1,2800,-1
4 1567 m 1,2804,-1
 4 1571 l 1,2805,-1
 12 1571 l 1,2806,-1
 12 1567 l 1,2807,-1
 4 1567 l 1,2804,-1
12 1567 m 1,2808,-1
 14 1567 l 1,2809,-1
 14 1571 l 1,2810,-1
 12 1571 l 1,2811,-1
 12 1567 l 1,2808,-1
18 1567 m 1,2812,-1
 20 1567 l 1,2813,-1
 20 1571 l 1,2814,-1
 18 1571 l 1,2815,-1
 18 1567 l 1,2812,-1
20 1567 m 1,2816,-1
 20 1571 l 1,2817,-1
 29 1571 l 1,2818,-1
 29 1567 l 1,2819,-1
 20 1567 l 1,2816,-1
29 1567 m 1,2820,-1
 31 1567 l 1,2821,-1
 31 1571 l 1,2822,-1
 29 1571 l 1,2823,-1
 29 1567 l 1,2820,-1
33 1567 m 1,2824,-1
 35 1567 l 1,2825,-1
 35 1571 l 1,2826,-1
 33 1571 l 1,2827,-1
 33 1567 l 1,2824,-1
35 1567 m 1,2828,-1
 35 1571 l 1,2829,-1
 43 1571 l 1,2830,-1
 43 1567 l 1,2831,-1
 35 1567 l 1,2828,-1
43 1567 m 1,2832,-1
 45 1567 l 1,2833,-1
 45 1571 l 1,2834,-1
 43 1571 l 1,2835,-1
 43 1567 l 1,2832,-1
53 1567 m 1,2836,-1
 55 1567 l 1,2837,-1
 55 1571 l 1,2838,-1
 53 1571 l 1,2839,-1
 53 1567 l 1,2836,-1
55 1567 m 1,2840,-1
 55 1571 l 1,2841,-1
 63 1571 l 1,2842,-1
 63 1567 l 1,2843,-1
 55 1567 l 1,2840,-1
63 1567 m 1,2844,-1
 68 1567 l 1,2845,-1
 68 1571 l 1,2846,-1
 63 1571 l 1,2847,-1
 63 1567 l 1,2844,-1
68 1567 m 1,2848,-1
 68 1571 l 1,2849,-1
 76 1571 l 1,2850,-1
 76 1567 l 1,2851,-1
 68 1567 l 1,2848,-1
76 1567 m 1,2852,-1
 78 1567 l 1,2853,-1
 78 1571 l 1,2854,-1
 76 1571 l 1,2855,-1
 76 1567 l 1,2852,-1
86 1567 m 1,2856,-1
 88 1567 l 1,2857,-1
 88 1571 l 1,2858,-1
 86 1571 l 1,2859,-1
 86 1567 l 1,2856,-1
88 1567 m 1,2860,-1
 88 1571 l 1,2861,-1
 96 1571 l 1,2862,-1
 96 1567 l 1,2863,-1
 88 1567 l 1,2860,-1
96 1569 m 1,2864,-1
 100 1569 l 1,2865,-1
 100 1571 l 1,2866,-1
 96 1571 l 1,2867,-1
 96 1569 l 1,2864,-1
100 1569 m 1,2868,-1
 100 1571 l 1,2869,-1
 106 1571 l 1,2870,-1
 106 1569 l 1,2871,-1
 100 1569 l 1,2868,-1
106 1569 m 1,2872,-1
 109 1569 l 1,2873,-1
 109 1571 l 1,2874,-1
 106 1571 l 1,2875,-1
 106 1569 l 1,2872,-1
121 1569 m 1,2876,-1
 123 1569 l 1,2877,-1
 123 1571 l 1,2878,-1
 121 1571 l 1,2879,-1
 121 1569 l 1,2876,-1
123 1569 m 1,2880,-1
 123 1571 l 1,2881,-1
 129 1571 l 1,2882,-1
 129 1569 l 1,2883,-1
 123 1569 l 1,2880,-1
129 1569 m 1,2884,-1
 133 1569 l 1,2885,-1
 133 1571 l 1,2886,-1
 129 1571 l 1,2887,-1
 129 1569 l 1,2884,-1
133 1569 m 1,2888,-1
 133 1571 l 1,2889,-1
 139 1571 l 1,2890,-1
 139 1569 l 1,2891,-1
 133 1569 l 1,2888,-1
139 1569 m 1,2892,-1
 141 1569 l 1,2893,-1
 141 1571 l 1,2894,-1
 139 1571 l 1,2895,-1
 139 1569 l 1,2892,-1
154 1569 m 1,2896,-1
 156 1569 l 1,2897,-1
 156 1571 l 1,2898,-1
 154 1571 l 1,2899,-1
 154 1569 l 1,2896,-1
156 1569 m 1,2900,-1
 156 1571 l 1,2901,-1
 162 1571 l 1,2902,-1
 162 1569 l 1,2903,-1
 156 1569 l 1,2900,-1
162 1569 m 1,2904,-1
 164 1569 l 1,2905,-1
 164 1571 l 1,2906,-1
 162 1571 l 1,2907,-1
 162 1569 l 1,2904,-1
166 1563 m 1,2908,-1
 168 1563 l 1,2909,-1
 168 1571 l 1,2910,-1
 166 1571 l 1,2911,-1
 166 1563 l 1,2908,-1
168 1567 m 1,2912,-1
 168 1571 l 1,2913,-1
 193 1571 l 1,2914,-1
 193 1567 l 1,2915,-1
 168 1567 l 1,2912,-1
193 1565 m 1,2916,-1
 195 1565 l 1,2917,-1
 195 1571 l 1,2918,-1
 193 1571 l 1,2919,-1
 193 1565 l 1,2916,-1
96 1567 m 1,2920,-1
 98 1567 l 1,2921,-1
 98 1569 l 1,2922,-1
 96 1569 l 1,2923,-1
 96 1567 l 1,2920,-1
100 1567 m 1,2924,-1
 102 1567 l 1,2925,-1
 102 1569 l 1,2926,-1
 100 1569 l 1,2927,-1
 100 1567 l 1,2924,-1
102 1567 m 1,2928,-1
 102 1569 l 1,2929,-1
 109 1569 l 1,2930,-1
 109 1567 l 1,2931,-1
 102 1567 l 1,2928,-1
109 1567 m 1,2932,-1
 111 1567 l 1,2933,-1
 111 1569 l 1,2934,-1
 109 1569 l 1,2935,-1
 109 1567 l 1,2932,-1
119 1567 m 1,2936,-1
 121 1567 l 1,2937,-1
 121 1569 l 1,2938,-1
 119 1569 l 1,2939,-1
 119 1567 l 1,2936,-1
121 1567 m 1,2940,-1
 121 1569 l 1,2941,-1
 127 1569 l 1,2942,-1
 127 1567 l 1,2943,-1
 121 1567 l 1,2940,-1
127 1567 m 1,2944,-1
 129 1567 l 1,2945,-1
 129 1569 l 1,2946,-1
 127 1569 l 1,2947,-1
 127 1567 l 1,2944,-1
133 1567 m 1,2948,-1
 135 1567 l 1,2949,-1
 135 1569 l 1,2950,-1
 133 1569 l 1,2951,-1
 133 1567 l 1,2948,-1
135 1567 m 1,2952,-1
 135 1569 l 1,2953,-1
 141 1569 l 1,2954,-1
 141 1567 l 1,2955,-1
 135 1567 l 1,2952,-1
141 1567 m 1,2956,-1
 143 1567 l 1,2957,-1
 143 1569 l 1,2958,-1
 141 1569 l 1,2959,-1
 141 1567 l 1,2956,-1
152 1567 m 1,2960,-1
 154 1567 l 1,2961,-1
 154 1569 l 1,2962,-1
 152 1569 l 1,2963,-1
 152 1567 l 1,2960,-1
154 1567 m 1,2964,-1
 154 1569 l 1,2965,-1
 160 1569 l 1,2966,-1
 160 1567 l 1,2967,-1
 154 1567 l 1,2964,-1
160 1567 m 1,2968,-1
 162 1567 l 1,2969,-1
 162 1569 l 1,2970,-1
 160 1569 l 1,2971,-1
 160 1567 l 1,2968,-1
4 1546 m 1,2972,-1
 6 1546 l 1,2973,-1
 6 1567 l 1,2974,-1
 4 1567 l 1,2975,-1
 4 1546 l 1,2972,-1
6 1546 m 1,2976,-1
 6 1567 l 1,2977,-1
 10 1567 l 1,2978,-1
 10 1546 l 1,2979,-1
 6 1546 l 1,2976,-1
10 1548 m 1,2980,-1
 12 1548 l 1,2981,-1
 12 1567 l 1,2982,-1
 10 1567 l 1,2983,-1
 10 1548 l 1,2980,-1
20 1548 m 1,2984,-1
 23 1548 l 1,2985,-1
 23 1567 l 1,2986,-1
 20 1567 l 1,2987,-1
 20 1548 l 1,2984,-1
23 1546 m 1,2988,-1
 23 1567 l 1,2989,-1
 27 1567 l 1,2990,-1
 27 1546 l 1,2991,-1
 23 1546 l 1,2988,-1
27 1546 m 1,2992,-1
 29 1546 l 1,2993,-1
 29 1567 l 1,2994,-1
 27 1567 l 1,2995,-1
 27 1546 l 1,2992,-1
35 1563 m 1,2996,-1
 37 1563 l 1,2997,-1
 37 1567 l 1,2998,-1
 35 1567 l 1,2999,-1
 35 1563 l 1,2996,-1
37 1563 m 1,3000,-1
 37 1567 l 1,3001,-1
 41 1567 l 1,3002,-1
 41 1563 l 1,3003,-1
 37 1563 l 1,3000,-1
41 1565 m 1,3004,-1
 43 1565 l 1,3005,-1
 43 1567 l 1,3006,-1
 41 1567 l 1,3007,-1
 41 1565 l 1,3004,-1
55 1565 m 1,3008,-1
 57 1565 l 1,3009,-1
 57 1567 l 1,3010,-1
 55 1567 l 1,3011,-1
 55 1565 l 1,3008,-1
57 1563 m 1,3012,-1
 57 1567 l 1,3013,-1
 61 1567 l 1,3014,-1
 61 1563 l 1,3015,-1
 57 1563 l 1,3012,-1
61 1563 m 1,3016,-1
 63 1563 l 1,3017,-1
 63 1567 l 1,3018,-1
 61 1567 l 1,3019,-1
 61 1563 l 1,3016,-1
68 1544 m 1,3020,-1
 70 1544 l 1,3021,-1
 70 1567 l 1,3022,-1
 68 1567 l 1,3023,-1
 68 1544 l 1,3020,-1
70 1544 m 1,3024,-1
 70 1567 l 1,3025,-1
 74 1567 l 1,3026,-1
 74 1544 l 1,3027,-1
 70 1544 l 1,3024,-1
74 1548 m 1,3028,-1
 76 1548 l 1,3029,-1
 76 1567 l 1,3030,-1
 74 1567 l 1,3031,-1
 74 1548 l 1,3028,-1
88 1548 m 1,3032,-1
 90 1548 l 1,3033,-1
 90 1567 l 1,3034,-1
 88 1567 l 1,3035,-1
 88 1548 l 1,3032,-1
90 1544 m 1,3036,-1
 90 1567 l 1,3037,-1
 94 1567 l 1,3038,-1
 94 1544 l 1,3039,-1
 90 1544 l 1,3036,-1
94 1544 m 1,3040,-1
 96 1544 l 1,3041,-1
 96 1567 l 1,3042,-1
 94 1567 l 1,3043,-1
 94 1544 l 1,3040,-1
102 1565 m 1,3044,-1
 104 1565 l 1,3045,-1
 104 1567 l 1,3046,-1
 102 1567 l 1,3047,-1
 102 1565 l 1,3044,-1
104 1565 m 1,3048,-1
 104 1567 l 1,3049,-1
 111 1567 l 1,3050,-1
 111 1565 l 1,3051,-1
 104 1565 l 1,3048,-1
111 1565 m 1,3052,-1
 113 1565 l 1,3053,-1
 113 1567 l 1,3054,-1
 111 1567 l 1,3055,-1
 111 1565 l 1,3052,-1
117 1565 m 1,3056,-1
 119 1565 l 1,3057,-1
 119 1567 l 1,3058,-1
 117 1567 l 1,3059,-1
 117 1565 l 1,3056,-1
119 1565 m 1,3060,-1
 119 1567 l 1,3061,-1
 125 1567 l 1,3062,-1
 125 1565 l 1,3063,-1
 119 1565 l 1,3060,-1
125 1565 m 1,3064,-1
 127 1565 l 1,3065,-1
 127 1567 l 1,3066,-1
 125 1567 l 1,3067,-1
 125 1565 l 1,3064,-1
135 1565 m 1,3068,-1
 137 1565 l 1,3069,-1
 137 1567 l 1,3070,-1
 135 1567 l 1,3071,-1
 135 1565 l 1,3068,-1
137 1565 m 1,3072,-1
 137 1567 l 1,3073,-1
 143 1567 l 1,3074,-1
 143 1565 l 1,3075,-1
 137 1565 l 1,3072,-1
143 1565 m 1,3076,-1
 145 1565 l 1,3077,-1
 145 1567 l 1,3078,-1
 143 1567 l 1,3079,-1
 143 1565 l 1,3076,-1
150 1565 m 1,3080,-1
 152 1565 l 1,3081,-1
 152 1567 l 1,3082,-1
 150 1567 l 1,3083,-1
 150 1565 l 1,3080,-1
152 1565 m 1,3084,-1
 152 1567 l 1,3085,-1
 158 1567 l 1,3086,-1
 158 1565 l 1,3087,-1
 152 1565 l 1,3084,-1
158 1565 m 1,3088,-1
 160 1565 l 1,3089,-1
 160 1567 l 1,3090,-1
 158 1567 l 1,3091,-1
 158 1565 l 1,3088,-1
168 1565 m 1,3092,-1
 168 1567 l 1,3093,-1
 172 1567 l 1,3094,-1
 172 1565 l 1,3095,-1
 168 1565 l 1,3092,-1
172 1565 m 1,3096,-1
 186 1565 l 1,3097,-1
 186 1567 l 1,3098,-1
 172 1567 l 1,3099,-1
 172 1565 l 1,3096,-1
186 1565 m 1,3100,-1
 186 1567 l 1,3101,-1
 193 1567 l 1,3102,-1
 193 1565 l 1,3103,-1
 186 1565 l 1,3100,-1
41 1552 m 1,3104,-1
 41 1565 l 1,3105,-1
 43 1565 l 1,3106,-1
 43 1552 l 1,3107,-1
 41 1552 l 1,3104,-1
43 1559 m 1,3108,-1
 45 1559 l 1,3109,-1
 45 1565 l 1,3110,-1
 43 1565 l 1,3111,-1
 43 1559 l 1,3108,-1
53 1559 m 1,3112,-1
 55 1559 l 1,3113,-1
 55 1565 l 1,3114,-1
 53 1565 l 1,3115,-1
 53 1559 l 1,3112,-1
55 1552 m 1,3116,-1
 55 1565 l 1,3117,-1
 57 1565 l 1,3118,-1
 57 1552 l 1,3119,-1
 55 1552 l 1,3116,-1
104 1563 m 1,3120,-1
 106 1563 l 1,3121,-1
 106 1565 l 1,3122,-1
 104 1565 l 1,3123,-1
 104 1563 l 1,3120,-1
106 1563 m 1,3124,-1
 106 1565 l 1,3125,-1
 113 1565 l 1,3126,-1
 113 1563 l 1,3127,-1
 106 1563 l 1,3124,-1
113 1563 m 1,3128,-1
 117 1563 l 1,3129,-1
 117 1565 l 1,3130,-1
 113 1565 l 1,3131,-1
 113 1563 l 1,3128,-1
117 1563 m 1,3132,-1
 117 1565 l 1,3133,-1
 123 1565 l 1,3134,-1
 123 1563 l 1,3135,-1
 117 1563 l 1,3132,-1
123 1563 m 1,3136,-1
 125 1563 l 1,3137,-1
 125 1565 l 1,3138,-1
 123 1565 l 1,3139,-1
 123 1563 l 1,3136,-1
137 1563 m 1,3140,-1
 139 1563 l 1,3141,-1
 139 1565 l 1,3142,-1
 137 1565 l 1,3143,-1
 137 1563 l 1,3140,-1
139 1563 m 1,3144,-1
 139 1565 l 1,3145,-1
 145 1565 l 1,3146,-1
 145 1563 l 1,3147,-1
 139 1563 l 1,3144,-1
145 1563 m 1,3148,-1
 150 1563 l 1,3149,-1
 150 1565 l 1,3150,-1
 145 1565 l 1,3151,-1
 145 1563 l 1,3148,-1
150 1563 m 1,3152,-1
 150 1565 l 1,3153,-1
 156 1565 l 1,3154,-1
 156 1563 l 1,3155,-1
 150 1563 l 1,3152,-1
156 1563 m 1,3156,-1
 158 1563 l 1,3157,-1
 158 1565 l 1,3158,-1
 156 1565 l 1,3159,-1
 156 1563 l 1,3156,-1
168 1563 m 1,3160,-1
 168 1565 l 1,3161,-1
 170 1565 l 1,3162,-1
 170 1563 l 1,3163,-1
 168 1563 l 1,3160,-1
170 1563 m 1,3164,-1
 172 1563 l 1,3165,-1
 172 1565 l 1,3166,-1
 170 1565 l 1,3167,-1
 170 1563 l 1,3164,-1
182 1563 m 1,3168,-1
 184 1563 l 1,3169,-1
 184 1565 l 1,3170,-1
 182 1565 l 1,3171,-1
 182 1563 l 1,3168,-1
184 1563 m 1,3172,-1
 184 1565 l 1,3173,-1
 190 1565 l 1,3174,-1
 190 1563 l 1,3175,-1
 184 1563 l 1,3172,-1
190 1563 m 1,3176,-1
 193 1563 l 1,3177,-1
 193 1565 l 1,3178,-1
 190 1565 l 1,3179,-1
 190 1563 l 1,3176,-1
37 1556 m 1,3180,-1
 39 1556 l 1,3181,-1
 39 1563 l 1,3182,-1
 37 1563 l 1,3183,-1
 37 1556 l 1,3180,-1
39 1556 m 1,3184,-1
 39 1563 l 1,3185,-1
 41 1563 l 1,3186,-1
 41 1556 l 1,3187,-1
 39 1556 l 1,3184,-1
57 1556 m 1,3188,-1
 57 1563 l 1,3189,-1
 59 1563 l 1,3190,-1
 59 1556 l 1,3191,-1
 57 1556 l 1,3188,-1
59 1556 m 1,3192,-1
 61 1556 l 1,3193,-1
 61 1563 l 1,3194,-1
 59 1563 l 1,3195,-1
 59 1556 l 1,3192,-1
106 1561 m 1,3196,-1
 109 1561 l 1,3197,-1
 109 1563 l 1,3198,-1
 106 1563 l 1,3199,-1
 106 1561 l 1,3196,-1
109 1561 m 1,3200,-1
 109 1563 l 1,3201,-1
 121 1563 l 1,3202,-1
 121 1561 l 1,3203,-1
 109 1561 l 1,3200,-1
121 1561 m 1,3204,-1
 123 1561 l 1,3205,-1
 123 1563 l 1,3206,-1
 121 1563 l 1,3207,-1
 121 1561 l 1,3204,-1
139 1561 m 1,3208,-1
 141 1561 l 1,3209,-1
 141 1563 l 1,3210,-1
 139 1563 l 1,3211,-1
 139 1561 l 1,3208,-1
141 1561 m 1,3212,-1
 141 1563 l 1,3213,-1
 154 1563 l 1,3214,-1
 154 1561 l 1,3215,-1
 141 1561 l 1,3212,-1
154 1561 m 1,3216,-1
 156 1561 l 1,3217,-1
 156 1563 l 1,3218,-1
 154 1563 l 1,3219,-1
 154 1561 l 1,3216,-1
168 1561 m 1,3220,-1
 170 1561 l 1,3221,-1
 170 1563 l 1,3222,-1
 168 1563 l 1,3223,-1
 168 1561 l 1,3220,-1
180 1561 m 1,3224,-1
 182 1561 l 1,3225,-1
 182 1563 l 1,3226,-1
 180 1563 l 1,3227,-1
 180 1561 l 1,3224,-1
182 1561 m 1,3228,-1
 182 1563 l 1,3229,-1
 188 1563 l 1,3230,-1
 188 1561 l 1,3231,-1
 182 1561 l 1,3228,-1
188 1561 m 1,3232,-1
 190 1561 l 1,3233,-1
 190 1563 l 1,3234,-1
 188 1563 l 1,3235,-1
 188 1561 l 1,3232,-1
109 1552 m 1,3236,-1
 111 1552 l 1,3237,-1
 111 1561 l 1,3238,-1
 109 1561 l 1,3239,-1
 109 1552 l 1,3236,-1
111 1550 m 1,3240,-1
 111 1561 l 1,3241,-1
 119 1561 l 1,3242,-1
 119 1550 l 1,3243,-1
 111 1550 l 1,3240,-1
119 1552 m 1,3244,-1
 121 1552 l 1,3245,-1
 121 1561 l 1,3246,-1
 119 1561 l 1,3247,-1
 119 1552 l 1,3244,-1
141 1559 m 1,3248,-1
 143 1559 l 1,3249,-1
 143 1561 l 1,3250,-1
 141 1561 l 1,3251,-1
 141 1559 l 1,3248,-1
143 1559 m 1,3252,-1
 143 1561 l 1,3253,-1
 152 1561 l 1,3254,-1
 152 1559 l 1,3255,-1
 143 1559 l 1,3252,-1
152 1559 m 1,3256,-1
 154 1559 l 1,3257,-1
 154 1561 l 1,3258,-1
 152 1561 l 1,3259,-1
 152 1559 l 1,3256,-1
172 1559 m 1,3260,-1
 180 1559 l 1,3261,-1
 180 1561 l 1,3262,-1
 172 1561 l 1,3263,-1
 172 1559 l 1,3260,-1
180 1554 m 1,3264,-1
 180 1561 l 1,3265,-1
 186 1561 l 1,3266,-1
 186 1554 l 1,3267,-1
 180 1554 l 1,3264,-1
186 1559 m 1,3268,-1
 188 1559 l 1,3269,-1
 188 1561 l 1,3270,-1
 186 1561 l 1,3271,-1
 186 1559 l 1,3268,-1
43 1546 m 1,3272,-1
 43 1559 l 1,3273,-1
 45 1559 l 1,3274,-1
 45 1546 l 1,3275,-1
 43 1546 l 1,3272,-1
45 1554 m 1,3276,-1
 47 1554 l 1,3277,-1
 47 1559 l 1,3278,-1
 45 1559 l 1,3279,-1
 45 1554 l 1,3276,-1
51 1554 m 1,3280,-1
 53 1554 l 1,3281,-1
 53 1559 l 1,3282,-1
 51 1559 l 1,3283,-1
 51 1554 l 1,3280,-1
53 1546 m 1,3284,-1
 53 1559 l 1,3285,-1
 55 1559 l 1,3286,-1
 55 1546 l 1,3287,-1
 53 1546 l 1,3284,-1
80 1556 m 1,3288,-1
 84 1556 l 1,3289,-1
 84 1559 l 1,3290,-1
 80 1559 l 1,3291,-1
 80 1556 l 1,3288,-1
143 1546 m 1,3292,-1
 145 1546 l 1,3293,-1
 145 1559 l 1,3294,-1
 143 1559 l 1,3295,-1
 143 1546 l 1,3292,-1
145 1542 m 1,3296,-1
 145 1559 l 1,3297,-1
 150 1559 l 1,3298,-1
 150 1542 l 1,3299,-1
 145 1542 l 1,3296,-1
150 1546 m 1,3300,-1
 152 1546 l 1,3301,-1
 152 1559 l 1,3302,-1
 150 1559 l 1,3303,-1
 150 1546 l 1,3300,-1
170 1554 m 1,3304,-1
 172 1554 l 1,3305,-1
 172 1559 l 1,3306,-1
 170 1559 l 1,3307,-1
 170 1554 l 1,3304,-1
172 1554 m 1,3308,-1
 172 1559 l 1,3309,-1
 180 1559 l 1,3310,-1
 180 1554 l 1,3311,-1
 172 1554 l 1,3308,-1
186 1554 m 1,3312,-1
 186 1559 l 1,3313,-1
 188 1559 l 1,3314,-1
 188 1554 l 1,3315,-1
 186 1554 l 1,3312,-1
188 1554 m 1,3316,-1
 190 1554 l 1,3317,-1
 190 1559 l 1,3318,-1
 188 1559 l 1,3319,-1
 188 1554 l 1,3316,-1
39 1552 m 1,3320,-1
 41 1552 l 1,3321,-1
 41 1556 l 1,3322,-1
 39 1556 l 1,3323,-1
 39 1552 l 1,3320,-1
57 1552 m 1,3324,-1
 59 1552 l 1,3325,-1
 59 1556 l 1,3326,-1
 57 1556 l 1,3327,-1
 57 1552 l 1,3324,-1
78 1554 m 1,3328,-1
 80 1554 l 1,3329,-1
 80 1556 l 1,3330,-1
 78 1556 l 1,3331,-1
 78 1554 l 1,3328,-1
80 1544 m 1,3332,-1
 80 1556 l 1,3333,-1
 84 1556 l 1,3334,-1
 84 1544 l 1,3335,-1
 80 1544 l 1,3332,-1
84 1554 m 1,3336,-1
 86 1554 l 1,3337,-1
 86 1556 l 1,3338,-1
 84 1556 l 1,3339,-1
 84 1554 l 1,3336,-1
45 1542 m 1,3340,-1
 45 1554 l 1,3341,-1
 47 1554 l 1,3342,-1
 47 1542 l 1,3343,-1
 45 1542 l 1,3340,-1
47 1548 m 1,3344,-1
 51 1548 l 1,3345,-1
 51 1554 l 1,3346,-1
 47 1554 l 1,3347,-1
 47 1548 l 1,3344,-1
51 1542 m 1,3348,-1
 51 1554 l 1,3349,-1
 53 1554 l 1,3350,-1
 53 1542 l 1,3351,-1
 51 1542 l 1,3348,-1
76 1552 m 1,3352,-1
 78 1552 l 1,3353,-1
 78 1554 l 1,3354,-1
 76 1554 l 1,3355,-1
 76 1552 l 1,3352,-1
78 1552 m 1,3356,-1
 78 1554 l 1,3357,-1
 80 1554 l 1,3358,-1
 80 1552 l 1,3359,-1
 78 1552 l 1,3356,-1
84 1552 m 1,3360,-1
 84 1554 l 1,3361,-1
 86 1554 l 1,3362,-1
 86 1552 l 1,3363,-1
 84 1552 l 1,3360,-1
86 1552 m 1,3364,-1
 88 1552 l 1,3365,-1
 88 1554 l 1,3366,-1
 86 1554 l 1,3367,-1
 86 1552 l 1,3364,-1
172 1552 m 1,3368,-1
 174 1552 l 1,3369,-1
 174 1554 l 1,3370,-1
 172 1554 l 1,3371,-1
 172 1552 l 1,3368,-1
174 1552 m 1,3372,-1
 174 1554 l 1,3373,-1
 180 1554 l 1,3374,-1
 180 1552 l 1,3375,-1
 174 1552 l 1,3372,-1
180 1552 m 1,3376,-1
 188 1552 l 1,3377,-1
 188 1554 l 1,3378,-1
 180 1554 l 1,3379,-1
 180 1552 l 1,3376,-1
41 1546 m 1,3380,-1
 43 1546 l 1,3381,-1
 43 1552 l 1,3382,-1
 41 1552 l 1,3383,-1
 41 1546 l 1,3380,-1
55 1546 m 1,3384,-1
 57 1546 l 1,3385,-1
 57 1552 l 1,3386,-1
 55 1552 l 1,3387,-1
 55 1546 l 1,3384,-1
78 1548 m 1,3388,-1
 80 1548 l 1,3389,-1
 80 1552 l 1,3390,-1
 78 1552 l 1,3391,-1
 78 1548 l 1,3388,-1
84 1548 m 1,3392,-1
 86 1548 l 1,3393,-1
 86 1552 l 1,3394,-1
 84 1552 l 1,3395,-1
 84 1548 l 1,3392,-1
106 1550 m 1,3396,-1
 109 1550 l 1,3397,-1
 109 1552 l 1,3398,-1
 106 1552 l 1,3399,-1
 106 1550 l 1,3396,-1
109 1546 m 1,3400,-1
 109 1552 l 1,3401,-1
 111 1552 l 1,3402,-1
 111 1546 l 1,3403,-1
 109 1546 l 1,3400,-1
119 1546 m 1,3404,-1
 119 1552 l 1,3405,-1
 121 1552 l 1,3406,-1
 121 1546 l 1,3407,-1
 119 1546 l 1,3404,-1
121 1550 m 1,3408,-1
 123 1550 l 1,3409,-1
 123 1552 l 1,3410,-1
 121 1552 l 1,3411,-1
 121 1550 l 1,3408,-1
170 1550 m 1,3412,-1
 172 1550 l 1,3413,-1
 172 1552 l 1,3414,-1
 170 1552 l 1,3415,-1
 170 1550 l 1,3412,-1
172 1550 m 1,3416,-1
 172 1552 l 1,3417,-1
 178 1552 l 1,3418,-1
 178 1550 l 1,3419,-1
 172 1550 l 1,3416,-1
178 1550 m 1,3420,-1
 180 1550 l 1,3421,-1
 180 1552 l 1,3422,-1
 178 1552 l 1,3423,-1
 178 1550 l 1,3420,-1
190 1550 m 1,3424,-1
 193 1550 l 1,3425,-1
 193 1552 l 1,3426,-1
 190 1552 l 1,3427,-1
 190 1550 l 1,3424,-1
104 1548 m 1,3428,-1
 106 1548 l 1,3429,-1
 106 1550 l 1,3430,-1
 104 1550 l 1,3431,-1
 104 1548 l 1,3428,-1
106 1544 m 1,3432,-1
 106 1550 l 1,3433,-1
 109 1550 l 1,3434,-1
 109 1544 l 1,3435,-1
 106 1544 l 1,3432,-1
111 1548 m 1,3436,-1
 111 1550 l 1,3437,-1
 113 1550 l 1,3438,-1
 113 1548 l 1,3439,-1
 111 1548 l 1,3436,-1
113 1548 m 1,3440,-1
 117 1548 l 1,3441,-1
 117 1550 l 1,3442,-1
 113 1550 l 1,3443,-1
 113 1548 l 1,3440,-1
117 1548 m 1,3444,-1
 117 1550 l 1,3445,-1
 119 1550 l 1,3446,-1
 119 1548 l 1,3447,-1
 117 1548 l 1,3444,-1
121 1544 m 1,3448,-1
 121 1550 l 1,3449,-1
 123 1550 l 1,3450,-1
 123 1544 l 1,3451,-1
 121 1544 l 1,3448,-1
123 1548 m 1,3452,-1
 125 1548 l 1,3453,-1
 125 1550 l 1,3454,-1
 123 1550 l 1,3455,-1
 123 1548 l 1,3452,-1
168 1548 m 1,3456,-1
 170 1548 l 1,3457,-1
 170 1550 l 1,3458,-1
 168 1550 l 1,3459,-1
 168 1548 l 1,3456,-1
170 1548 m 1,3460,-1
 170 1550 l 1,3461,-1
 176 1550 l 1,3462,-1
 176 1548 l 1,3463,-1
 170 1548 l 1,3460,-1
176 1546 m 1,3464,-1
 178 1546 l 1,3465,-1
 178 1550 l 1,3466,-1
 176 1550 l 1,3467,-1
 176 1546 l 1,3464,-1
188 1548 m 1,3468,-1
 190 1548 l 1,3469,-1
 190 1550 l 1,3470,-1
 188 1550 l 1,3471,-1
 188 1548 l 1,3468,-1
190 1542 m 1,3472,-1
 190 1550 l 1,3473,-1
 193 1550 l 1,3474,-1
 193 1542 l 1,3475,-1
 190 1542 l 1,3472,-1
193 1542 m 1,3476,-1
 195 1542 l 1,3477,-1
 195 1550 l 1,3478,-1
 193 1550 l 1,3479,-1
 193 1542 l 1,3476,-1
10 1542 m 1,3480,-1
 10 1548 l 1,3481,-1
 12 1548 l 1,3482,-1
 12 1542 l 1,3483,-1
 10 1542 l 1,3480,-1
12 1546 m 1,3484,-1
 20 1546 l 1,3485,-1
 20 1548 l 1,3486,-1
 12 1548 l 1,3487,-1
 12 1546 l 1,3484,-1
20 1542 m 1,3488,-1
 20 1548 l 1,3489,-1
 23 1548 l 1,3490,-1
 23 1542 l 1,3491,-1
 20 1542 l 1,3488,-1
47 1542 m 1,3492,-1
 47 1548 l 1,3493,-1
 51 1548 l 1,3494,-1
 51 1542 l 1,3495,-1
 47 1542 l 1,3492,-1
74 1542 m 1,3496,-1
 74 1548 l 1,3497,-1
 76 1548 l 1,3498,-1
 76 1542 l 1,3499,-1
 74 1542 l 1,3496,-1
76 1546 m 1,3500,-1
 78 1546 l 1,3501,-1
 78 1548 l 1,3502,-1
 76 1548 l 1,3503,-1
 76 1546 l 1,3500,-1
78 1542 m 1,3504,-1
 78 1548 l 1,3505,-1
 80 1548 l 1,3506,-1
 80 1542 l 1,3507,-1
 78 1542 l 1,3504,-1
84 1542 m 1,3508,-1
 84 1548 l 1,3509,-1
 86 1548 l 1,3510,-1
 86 1542 l 1,3511,-1
 84 1542 l 1,3508,-1
86 1546 m 1,3512,-1
 88 1546 l 1,3513,-1
 88 1548 l 1,3514,-1
 86 1548 l 1,3515,-1
 86 1546 l 1,3512,-1
88 1542 m 1,3516,-1
 88 1548 l 1,3517,-1
 90 1548 l 1,3518,-1
 90 1542 l 1,3519,-1
 88 1542 l 1,3516,-1
102 1546 m 1,3520,-1
 104 1546 l 1,3521,-1
 104 1548 l 1,3522,-1
 102 1548 l 1,3523,-1
 102 1546 l 1,3520,-1
104 1542 m 1,3524,-1
 104 1548 l 1,3525,-1
 106 1548 l 1,3526,-1
 106 1542 l 1,3527,-1
 104 1542 l 1,3524,-1
111 1546 m 1,3528,-1
 113 1546 l 1,3529,-1
 113 1548 l 1,3530,-1
 111 1548 l 1,3531,-1
 111 1546 l 1,3528,-1
117 1546 m 1,3532,-1
 119 1546 l 1,3533,-1
 119 1548 l 1,3534,-1
 117 1548 l 1,3535,-1
 117 1546 l 1,3532,-1
123 1542 m 1,3536,-1
 123 1548 l 1,3537,-1
 125 1548 l 1,3538,-1
 125 1542 l 1,3539,-1
 123 1542 l 1,3536,-1
125 1546 m 1,3540,-1
 127 1546 l 1,3541,-1
 127 1548 l 1,3542,-1
 125 1548 l 1,3543,-1
 125 1546 l 1,3540,-1
166 1542 m 1,3544,-1
 168 1542 l 1,3545,-1
 168 1548 l 1,3546,-1
 166 1548 l 1,3547,-1
 166 1542 l 1,3544,-1
168 1542 m 1,3548,-1
 168 1548 l 1,3549,-1
 174 1548 l 1,3550,-1
 174 1542 l 1,3551,-1
 168 1542 l 1,3548,-1
174 1546 m 1,3552,-1
 176 1546 l 1,3553,-1
 176 1548 l 1,3554,-1
 174 1548 l 1,3555,-1
 174 1546 l 1,3552,-1
178 1546 m 1,3556,-1
 188 1546 l 1,3557,-1
 188 1548 l 1,3558,-1
 178 1548 l 1,3559,-1
 178 1546 l 1,3556,-1
188 1542 m 1,3560,-1
 188 1548 l 1,3561,-1
 190 1548 l 1,3562,-1
 190 1542 l 1,3563,-1
 188 1542 l 1,3560,-1
6 1544 m 1,3564,-1
 8 1544 l 1,3565,-1
 8 1546 l 1,3566,-1
 6 1546 l 1,3567,-1
 6 1544 l 1,3564,-1
8 1544 m 1,3568,-1
 8 1546 l 1,3569,-1
 10 1546 l 1,3570,-1
 10 1544 l 1,3571,-1
 8 1544 l 1,3568,-1
12 1542 m 1,3572,-1
 12 1546 l 1,3573,-1
 20 1546 l 1,3574,-1
 20 1542 l 1,3575,-1
 12 1542 l 1,3572,-1
23 1544 m 1,3576,-1
 23 1546 l 1,3577,-1
 25 1546 l 1,3578,-1
 25 1544 l 1,3579,-1
 23 1544 l 1,3576,-1
25 1544 m 1,3580,-1
 27 1544 l 1,3581,-1
 27 1546 l 1,3582,-1
 25 1546 l 1,3583,-1
 25 1544 l 1,3580,-1
43 1542 m 1,3584,-1
 45 1542 l 1,3585,-1
 45 1546 l 1,3586,-1
 43 1546 l 1,3587,-1
 43 1542 l 1,3584,-1
53 1542 m 1,3588,-1
 55 1542 l 1,3589,-1
 55 1546 l 1,3590,-1
 53 1546 l 1,3591,-1
 53 1542 l 1,3588,-1
76 1542 m 1,3592,-1
 76 1546 l 1,3593,-1
 78 1546 l 1,3594,-1
 78 1542 l 1,3595,-1
 76 1542 l 1,3592,-1
86 1542 m 1,3596,-1
 86 1546 l 1,3597,-1
 88 1546 l 1,3598,-1
 88 1542 l 1,3599,-1
 86 1542 l 1,3596,-1
100 1544 m 1,3600,-1
 102 1544 l 1,3601,-1
 102 1546 l 1,3602,-1
 100 1546 l 1,3603,-1
 100 1544 l 1,3600,-1
102 1542 m 1,3604,-1
 102 1546 l 1,3605,-1
 104 1546 l 1,3606,-1
 104 1542 l 1,3607,-1
 102 1542 l 1,3604,-1
109 1544 m 1,3608,-1
 111 1544 l 1,3609,-1
 111 1546 l 1,3610,-1
 109 1546 l 1,3611,-1
 109 1544 l 1,3608,-1
119 1544 m 1,3612,-1
 121 1544 l 1,3613,-1
 121 1546 l 1,3614,-1
 119 1546 l 1,3615,-1
 119 1544 l 1,3612,-1
125 1542 m 1,3616,-1
 125 1546 l 1,3617,-1
 127 1546 l 1,3618,-1
 127 1542 l 1,3619,-1
 125 1542 l 1,3616,-1
127 1544 m 1,3620,-1
 129 1544 l 1,3621,-1
 129 1546 l 1,3622,-1
 127 1546 l 1,3623,-1
 127 1544 l 1,3620,-1
141 1544 m 1,3624,-1
 143 1544 l 1,3625,-1
 143 1546 l 1,3626,-1
 141 1546 l 1,3627,-1
 141 1544 l 1,3624,-1
143 1542 m 1,3628,-1
 143 1546 l 1,3629,-1
 145 1546 l 1,3630,-1
 145 1542 l 1,3631,-1
 143 1542 l 1,3628,-1
150 1542 m 1,3632,-1
 150 1546 l 1,3633,-1
 152 1546 l 1,3634,-1
 152 1542 l 1,3635,-1
 150 1542 l 1,3632,-1
152 1544 m 1,3636,-1
 154 1544 l 1,3637,-1
 154 1546 l 1,3638,-1
 152 1546 l 1,3639,-1
 152 1544 l 1,3636,-1
174 1542 m 1,3640,-1
 174 1546 l 1,3641,-1
 188 1546 l 1,3642,-1
 188 1542 l 1,3643,-1
 174 1542 l 1,3640,-1
8 1542 m 1,3644,-1
 10 1542 l 1,3645,-1
 10 1544 l 1,3646,-1
 8 1544 l 1,3647,-1
 8 1542 l 1,3644,-1
23 1542 m 1,3648,-1
 25 1542 l 1,3649,-1
 25 1544 l 1,3650,-1
 23 1544 l 1,3651,-1
 23 1542 l 1,3648,-1
70 1542 m 1,3652,-1
 72 1542 l 1,3653,-1
 72 1544 l 1,3654,-1
 70 1544 l 1,3655,-1
 70 1542 l 1,3652,-1
72 1542 m 1,3656,-1
 72 1544 l 1,3657,-1
 74 1544 l 1,3658,-1
 74 1542 l 1,3659,-1
 72 1542 l 1,3656,-1
80 1542 m 1,3660,-1
 84 1542 l 1,3661,-1
 84 1544 l 1,3662,-1
 80 1544 l 1,3663,-1
 80 1542 l 1,3660,-1
90 1542 m 1,3664,-1
 90 1544 l 1,3665,-1
 92 1544 l 1,3666,-1
 92 1542 l 1,3667,-1
 90 1542 l 1,3664,-1
92 1542 m 1,3668,-1
 94 1542 l 1,3669,-1
 94 1544 l 1,3670,-1
 92 1544 l 1,3671,-1
 92 1542 l 1,3668,-1
98 1542 m 1,3672,-1
 100 1542 l 1,3673,-1
 100 1544 l 1,3674,-1
 98 1544 l 1,3675,-1
 98 1542 l 1,3672,-1
100 1542 m 1,3676,-1
 100 1544 l 1,3677,-1
 102 1544 l 1,3678,-1
 102 1542 l 1,3679,-1
 100 1542 l 1,3676,-1
106 1542 m 1,3680,-1
 109 1542 l 1,3681,-1
 109 1544 l 1,3682,-1
 106 1544 l 1,3683,-1
 106 1542 l 1,3680,-1
121 1542 m 1,3684,-1
 123 1542 l 1,3685,-1
 123 1544 l 1,3686,-1
 121 1544 l 1,3687,-1
 121 1542 l 1,3684,-1
127 1542 m 1,3688,-1
 127 1544 l 1,3689,-1
 129 1544 l 1,3690,-1
 129 1542 l 1,3691,-1
 127 1542 l 1,3688,-1
129 1542 m 1,3692,-1
 131 1542 l 1,3693,-1
 131 1544 l 1,3694,-1
 129 1544 l 1,3695,-1
 129 1542 l 1,3692,-1
139 1542 m 1,3696,-1
 141 1542 l 1,3697,-1
 141 1544 l 1,3698,-1
 139 1544 l 1,3699,-1
 139 1542 l 1,3696,-1
141 1542 m 1,3700,-1
 141 1544 l 1,3701,-1
 143 1544 l 1,3702,-1
 143 1542 l 1,3703,-1
 141 1542 l 1,3700,-1
152 1542 m 1,3704,-1
 152 1544 l 1,3705,-1
 154 1544 l 1,3706,-1
 154 1542 l 1,3707,-1
 152 1542 l 1,3704,-1
154 1542 m 1,3708,-1
 156 1542 l 1,3709,-1
 156 1544 l 1,3710,-1
 154 1544 l 1,3711,-1
 154 1542 l 1,3708,-1
10 1540 m 1,3712,-1
 23 1540 l 1,3713,-1
 23 1542 l 1,3714,-1
 10 1542 l 1,3715,-1
 10 1540 l 1,3712,-1
45 1540 m 1,3716,-1
 53 1540 l 1,3717,-1
 53 1542 l 1,3718,-1
 45 1542 l 1,3719,-1
 45 1540 l 1,3716,-1
72 1540 m 1,3720,-1
 80 1540 l 1,3721,-1
 80 1542 l 1,3722,-1
 72 1542 l 1,3723,-1
 72 1540 l 1,3720,-1
84 1540 m 1,3724,-1
 92 1540 l 1,3725,-1
 92 1542 l 1,3726,-1
 84 1542 l 1,3727,-1
 84 1540 l 1,3724,-1
100 1540 m 1,3728,-1
 106 1540 l 1,3729,-1
 106 1542 l 1,3730,-1
 100 1542 l 1,3731,-1
 100 1540 l 1,3728,-1
123 1540 m 1,3732,-1
 129 1540 l 1,3733,-1
 129 1542 l 1,3734,-1
 123 1542 l 1,3735,-1
 123 1540 l 1,3732,-1
141 1540 m 1,3736,-1
 154 1540 l 1,3737,-1
 154 1542 l 1,3738,-1
 141 1542 l 1,3739,-1
 141 1540 l 1,3736,-1
168 1540 m 1,3740,-1
 193 1540 l 1,3741,-1
 193 1542 l 1,3742,-1
 168 1542 l 1,3743,-1
 168 1540 l 1,3740,-1
EndSplineSet
Validated: 133
EndChar

StartChar: B
Encoding: 66 66 1
Width: 2048
Flags: W
LayerCount: 2
Fore
SplineSet
12 1636 m 1,0,-1
 20 1636 l 1,1,-1
 20 1638 l 1,2,-1
 12 1638 l 1,3,-1
 12 1636 l 1,0,-1
322 1636 m 1,4,-1
 324 1636 l 1,5,-1
 324 1638 l 1,6,-1
 322 1638 l 1,7,-1
 322 1636 l 1,4,-1
10 1632 m 1,8,-1
 12 1632 l 1,9,-1
 12 1636 l 1,10,-1
 10 1636 l 1,11,-1
 10 1632 l 1,8,-1
12 1632 m 1,12,-1
 12 1636 l 1,13,-1
 20 1636 l 1,14,-1
 20 1632 l 1,15,-1
 12 1632 l 1,12,-1
20 1632 m 1,16,-1
 23 1632 l 1,17,-1
 23 1636 l 1,18,-1
 20 1636 l 1,19,-1
 20 1632 l 1,16,-1
324 1634 m 1,20,-1
 326 1634 l 1,21,-1
 326 1636 l 1,22,-1
 324 1636 l 1,23,-1
 324 1634 l 1,20,-1
8 1626 m 1,24,-1
 10 1626 l 1,25,-1
 10 1632 l 1,26,-1
 8 1632 l 1,27,-1
 8 1626 l 1,24,-1
10 1626 m 1,28,-1
 10 1632 l 1,29,-1
 14 1632 l 1,30,-1
 14 1626 l 1,31,-1
 10 1626 l 1,28,-1
14 1626 m 1,32,-1
 18 1626 l 1,33,-1
 18 1632 l 1,34,-1
 14 1632 l 1,35,-1
 14 1626 l 1,32,-1
18 1626 m 1,36,-1
 18 1632 l 1,37,-1
 23 1632 l 1,38,-1
 23 1626 l 1,39,-1
 18 1626 l 1,36,-1
23 1626 m 1,40,-1
 25 1626 l 1,41,-1
 25 1632 l 1,42,-1
 23 1632 l 1,43,-1
 23 1626 l 1,40,-1
6 1620 m 1,44,-1
 8 1620 l 1,45,-1
 8 1626 l 1,46,-1
 6 1626 l 1,47,-1
 6 1620 l 1,44,-1
8 1616 m 1,48,-1
 8 1626 l 1,49,-1
 12 1626 l 1,50,-1
 12 1616 l 1,51,-1
 8 1616 l 1,48,-1
12 1620 m 1,52,-1
 14 1620 l 1,53,-1
 14 1626 l 1,54,-1
 12 1626 l 1,55,-1
 12 1620 l 1,52,-1
18 1620 m 1,56,-1
 20 1620 l 1,57,-1
 20 1626 l 1,58,-1
 18 1626 l 1,59,-1
 18 1620 l 1,56,-1
20 1616 m 1,60,-1
 20 1626 l 1,61,-1
 25 1626 l 1,62,-1
 25 1616 l 1,63,-1
 20 1616 l 1,60,-1
25 1620 m 1,64,-1
 27 1620 l 1,65,-1
 27 1626 l 1,66,-1
 25 1626 l 1,67,-1
 25 1620 l 1,64,-1
14 1620 m 1,68,-1
 18 1620 l 1,69,-1
 18 1622 l 1,70,-1
 14 1622 l 1,71,-1
 14 1620 l 1,68,-1
4 1612 m 1,72,-1
 6 1612 l 1,73,-1
 6 1620 l 1,74,-1
 4 1620 l 1,75,-1
 4 1612 l 1,72,-1
6 1608 m 1,76,-1
 6 1620 l 1,77,-1
 8 1620 l 1,78,-1
 8 1608 l 1,79,-1
 6 1608 l 1,76,-1
12 1616 m 1,80,-1
 12 1620 l 1,81,-1
 20 1620 l 1,82,-1
 20 1616 l 1,83,-1
 12 1616 l 1,80,-1
25 1608 m 1,84,-1
 25 1620 l 1,85,-1
 27 1620 l 1,86,-1
 27 1608 l 1,87,-1
 25 1608 l 1,84,-1
27 1612 m 1,88,-1
 29 1612 l 1,89,-1
 29 1620 l 1,90,-1
 27 1620 l 1,91,-1
 27 1612 l 1,88,-1
8 1608 m 1,92,-1
 8 1616 l 1,93,-1
 10 1616 l 1,94,-1
 10 1608 l 1,95,-1
 8 1608 l 1,92,-1
10 1614 m 1,96,-1
 23 1614 l 1,97,-1
 23 1616 l 1,98,-1
 10 1616 l 1,99,-1
 10 1614 l 1,96,-1
23 1608 m 1,100,-1
 23 1616 l 1,101,-1
 25 1616 l 1,102,-1
 25 1608 l 1,103,-1
 23 1608 l 1,100,-1
10 1608 m 1,104,-1
 12 1608 l 1,105,-1
 12 1614 l 1,106,-1
 10 1614 l 1,107,-1
 10 1608 l 1,104,-1
20 1608 m 1,108,-1
 23 1608 l 1,109,-1
 23 1614 l 1,110,-1
 20 1614 l 1,111,-1
 20 1608 l 1,108,-1
2 1608 m 1,112,-1
 4 1608 l 1,113,-1
 4 1612 l 1,114,-1
 2 1612 l 1,115,-1
 2 1608 l 1,112,-1
4 1608 m 1,116,-1
 4 1612 l 1,117,-1
 6 1612 l 1,118,-1
 6 1608 l 1,119,-1
 4 1608 l 1,116,-1
27 1608 m 1,120,-1
 27 1612 l 1,121,-1
 29 1612 l 1,122,-1
 29 1608 l 1,123,-1
 27 1608 l 1,120,-1
29 1608 m 1,124,-1
 31 1608 l 1,125,-1
 31 1612 l 1,126,-1
 29 1612 l 1,127,-1
 29 1608 l 1,124,-1
4 1606 m 1,128,-1
 10 1606 l 1,129,-1
 10 1608 l 1,130,-1
 4 1608 l 1,131,-1
 4 1606 l 1,128,-1
23 1606 m 1,132,-1
 29 1606 l 1,133,-1
 29 1608 l 1,134,-1
 23 1608 l 1,135,-1
 23 1606 l 1,132,-1
EndSplineSet
Validated: 5
EndChar

StartChar: C
Encoding: 67 67 2
Width: 2048
Flags: W
LayerCount: 2
Fore
SplineSet
41 1636 m 1,0,-1
 59 1636 l 1,1,-1
 59 1638 l 1,2,-1
 41 1638 l 1,3,-1
 41 1636 l 1,0,-1
39 1634 m 1,4,-1
 41 1634 l 1,5,-1
 41 1636 l 1,6,-1
 39 1636 l 1,7,-1
 39 1634 l 1,4,-1
41 1632 m 1,8,-1
 41 1636 l 1,9,-1
 59 1636 l 1,10,-1
 59 1632 l 1,11,-1
 41 1632 l 1,8,-1
59 1634 m 1,12,-1
 61 1634 l 1,13,-1
 61 1636 l 1,14,-1
 59 1636 l 1,15,-1
 59 1634 l 1,12,-1
37 1610 m 1,16,-1
 39 1610 l 1,17,-1
 39 1634 l 1,18,-1
 37 1634 l 1,19,-1
 37 1610 l 1,16,-1
39 1610 m 1,20,-1
 39 1634 l 1,21,-1
 41 1634 l 1,22,-1
 41 1610 l 1,23,-1
 39 1610 l 1,20,-1
59 1622 m 1,24,-1
 59 1634 l 1,25,-1
 61 1634 l 1,26,-1
 61 1622 l 1,27,-1
 59 1622 l 1,24,-1
61 1622 m 1,28,-1
 63 1622 l 1,29,-1
 63 1634 l 1,30,-1
 61 1634 l 1,31,-1
 61 1622 l 1,28,-1
41 1608 m 1,32,-1
 41 1632 l 1,33,-1
 45 1632 l 1,34,-1
 45 1608 l 1,35,-1
 41 1608 l 1,32,-1
45 1630 m 1,36,-1
 55 1630 l 1,37,-1
 55 1632 l 1,38,-1
 45 1632 l 1,39,-1
 45 1630 l 1,36,-1
55 1630 m 1,40,-1
 55 1632 l 1,41,-1
 59 1632 l 1,42,-1
 59 1630 l 1,43,-1
 55 1630 l 1,40,-1
45 1622 m 1,44,-1
 47 1622 l 1,45,-1
 47 1630 l 1,46,-1
 45 1630 l 1,47,-1
 45 1622 l 1,44,-1
55 1624 m 1,48,-1
 57 1624 l 1,49,-1
 57 1630 l 1,50,-1
 55 1630 l 1,51,-1
 55 1624 l 1,48,-1
57 1608 m 1,52,-1
 57 1630 l 1,53,-1
 59 1630 l 1,54,-1
 59 1608 l 1,55,-1
 57 1608 l 1,52,-1
47 1622 m 1,56,-1
 55 1622 l 1,57,-1
 55 1624 l 1,58,-1
 47 1624 l 1,59,-1
 47 1622 l 1,56,-1
55 1616 m 1,60,-1
 55 1624 l 1,61,-1
 57 1624 l 1,62,-1
 57 1616 l 1,63,-1
 55 1616 l 1,60,-1
45 1618 m 1,64,-1
 45 1622 l 1,65,-1
 55 1622 l 1,66,-1
 55 1618 l 1,67,-1
 45 1618 l 1,64,-1
59 1618 m 1,68,-1
 61 1618 l 1,69,-1
 61 1622 l 1,70,-1
 59 1622 l 1,71,-1
 59 1618 l 1,68,-1
45 1616 m 1,72,-1
 55 1616 l 1,73,-1
 55 1618 l 1,74,-1
 45 1618 l 1,75,-1
 45 1616 l 1,72,-1
59 1610 m 1,76,-1
 59 1618 l 1,77,-1
 61 1618 l 1,78,-1
 61 1610 l 1,79,-1
 59 1610 l 1,76,-1
61 1610 m 1,80,-1
 63 1610 l 1,81,-1
 63 1618 l 1,82,-1
 61 1618 l 1,83,-1
 61 1610 l 1,80,-1
45 1612 m 1,84,-1
 47 1612 l 1,85,-1
 47 1616 l 1,86,-1
 45 1616 l 1,87,-1
 45 1612 l 1,84,-1
55 1614 m 1,88,-1
 57 1614 l 1,89,-1
 57 1616 l 1,90,-1
 55 1616 l 1,91,-1
 55 1614 l 1,88,-1
47 1612 m 1,92,-1
 55 1612 l 1,93,-1
 55 1614 l 1,94,-1
 47 1614 l 1,95,-1
 47 1612 l 1,92,-1
55 1608 m 1,96,-1
 55 1614 l 1,97,-1
 57 1614 l 1,98,-1
 57 1608 l 1,99,-1
 55 1608 l 1,96,-1
45 1608 m 1,100,-1
 45 1612 l 1,101,-1
 55 1612 l 1,102,-1
 55 1608 l 1,103,-1
 45 1608 l 1,100,-1
39 1608 m 1,104,-1
 41 1608 l 1,105,-1
 41 1610 l 1,106,-1
 39 1610 l 1,107,-1
 39 1608 l 1,104,-1
59 1608 m 1,108,-1
 61 1608 l 1,109,-1
 61 1610 l 1,110,-1
 59 1610 l 1,111,-1
 59 1608 l 1,108,-1
41 1606 m 1,112,-1
 59 1606 l 1,113,-1
 59 1608 l 1,114,-1
 41 1608 l 1,115,-1
 41 1606 l 1,112,-1
EndSplineSet
Validated: 5
EndChar

StartChar: D
Encoding: 68 68 3
Width: 2048
Flags: W
LayerCount: 2
Fore
SplineSet
76 1636 m 1,0,-1
 92 1636 l 1,1,-1
 92 1638 l 1,2,-1
 76 1638 l 1,3,-1
 76 1636 l 1,0,-1
74 1634 m 1,4,-1
 76 1634 l 1,5,-1
 76 1636 l 1,6,-1
 74 1636 l 1,7,-1
 74 1634 l 1,4,-1
76 1632 m 1,8,-1
 76 1636 l 1,9,-1
 92 1636 l 1,10,-1
 92 1632 l 1,11,-1
 76 1632 l 1,8,-1
92 1634 m 1,12,-1
 94 1634 l 1,13,-1
 94 1636 l 1,14,-1
 92 1636 l 1,15,-1
 92 1634 l 1,12,-1
72 1632 m 1,16,-1
 74 1632 l 1,17,-1
 74 1634 l 1,18,-1
 72 1634 l 1,19,-1
 72 1632 l 1,16,-1
74 1610 m 1,20,-1
 74 1634 l 1,21,-1
 76 1634 l 1,22,-1
 76 1610 l 1,23,-1
 74 1610 l 1,20,-1
92 1628 m 1,24,-1
 92 1634 l 1,25,-1
 94 1634 l 1,26,-1
 94 1628 l 1,27,-1
 92 1628 l 1,24,-1
94 1628 m 1,28,-1
 96 1628 l 1,29,-1
 96 1634 l 1,30,-1
 94 1634 l 1,31,-1
 94 1628 l 1,28,-1
70 1628 m 1,32,-1
 72 1628 l 1,33,-1
 72 1632 l 1,34,-1
 70 1632 l 1,35,-1
 70 1628 l 1,32,-1
72 1612 m 1,36,-1
 72 1632 l 1,37,-1
 74 1632 l 1,38,-1
 74 1612 l 1,39,-1
 72 1612 l 1,36,-1
76 1630 m 1,40,-1
 76 1632 l 1,41,-1
 80 1632 l 1,42,-1
 80 1630 l 1,43,-1
 76 1630 l 1,40,-1
80 1630 m 1,44,-1
 90 1630 l 1,45,-1
 90 1632 l 1,46,-1
 80 1632 l 1,47,-1
 80 1630 l 1,44,-1
90 1630 m 1,48,-1
 90 1632 l 1,49,-1
 92 1632 l 1,50,-1
 92 1630 l 1,51,-1
 90 1630 l 1,48,-1
76 1628 m 1,52,-1
 76 1630 l 1,53,-1
 78 1630 l 1,54,-1
 78 1628 l 1,55,-1
 76 1628 l 1,52,-1
78 1628 m 1,56,-1
 80 1628 l 1,57,-1
 80 1630 l 1,58,-1
 78 1630 l 1,59,-1
 78 1628 l 1,56,-1
90 1628 m 1,60,-1
 92 1628 l 1,61,-1
 92 1630 l 1,62,-1
 90 1630 l 1,63,-1
 90 1628 l 1,60,-1
68 1616 m 1,64,-1
 70 1616 l 1,65,-1
 70 1628 l 1,66,-1
 68 1628 l 1,67,-1
 68 1616 l 1,64,-1
70 1616 m 1,68,-1
 70 1628 l 1,69,-1
 72 1628 l 1,70,-1
 72 1616 l 1,71,-1
 70 1616 l 1,68,-1
76 1616 m 1,72,-1
 78 1616 l 1,73,-1
 78 1628 l 1,74,-1
 76 1628 l 1,75,-1
 76 1616 l 1,72,-1
92 1626 m 1,76,-1
 94 1626 l 1,77,-1
 94 1628 l 1,78,-1
 92 1628 l 1,79,-1
 92 1626 l 1,76,-1
92 1616 m 1,80,-1
 94 1616 l 1,81,-1
 94 1618 l 1,82,-1
 92 1618 l 1,83,-1
 92 1616 l 1,80,-1
70 1612 m 1,84,-1
 72 1612 l 1,85,-1
 72 1616 l 1,86,-1
 70 1616 l 1,87,-1
 70 1612 l 1,84,-1
76 1608 m 1,88,-1
 76 1616 l 1,89,-1
 78 1616 l 1,90,-1
 78 1608 l 1,91,-1
 76 1608 l 1,88,-1
78 1614 m 1,92,-1
 80 1614 l 1,93,-1
 80 1616 l 1,94,-1
 78 1616 l 1,95,-1
 78 1614 l 1,92,-1
90 1614 m 1,96,-1
 92 1614 l 1,97,-1
 92 1616 l 1,98,-1
 90 1616 l 1,99,-1
 90 1614 l 1,96,-1
92 1610 m 1,100,-1
 92 1616 l 1,101,-1
 94 1616 l 1,102,-1
 94 1610 l 1,103,-1
 92 1610 l 1,100,-1
94 1610 m 1,104,-1
 96 1610 l 1,105,-1
 96 1616 l 1,106,-1
 94 1616 l 1,107,-1
 94 1610 l 1,104,-1
78 1608 m 1,108,-1
 78 1614 l 1,109,-1
 80 1614 l 1,110,-1
 80 1608 l 1,111,-1
 78 1608 l 1,108,-1
80 1612 m 1,112,-1
 90 1612 l 1,113,-1
 90 1614 l 1,114,-1
 80 1614 l 1,115,-1
 80 1612 l 1,112,-1
90 1608 m 1,116,-1
 90 1614 l 1,117,-1
 92 1614 l 1,118,-1
 92 1608 l 1,119,-1
 90 1608 l 1,116,-1
72 1610 m 1,120,-1
 74 1610 l 1,121,-1
 74 1612 l 1,122,-1
 72 1612 l 1,123,-1
 72 1610 l 1,120,-1
80 1608 m 1,124,-1
 80 1612 l 1,125,-1
 90 1612 l 1,126,-1
 90 1608 l 1,127,-1
 80 1608 l 1,124,-1
74 1608 m 1,128,-1
 76 1608 l 1,129,-1
 76 1610 l 1,130,-1
 74 1610 l 1,131,-1
 74 1608 l 1,128,-1
92 1608 m 1,132,-1
 94 1608 l 1,133,-1
 94 1610 l 1,134,-1
 92 1610 l 1,135,-1
 92 1608 l 1,132,-1
76 1606 m 1,136,-1
 92 1606 l 1,137,-1
 92 1608 l 1,138,-1
 76 1608 l 1,139,-1
 76 1606 l 1,136,-1
EndSplineSet
Validated: 5
EndChar

StartChar: E
Encoding: 69 69 4
Width: 2048
Flags: W
LayerCount: 2
Fore
SplineSet
102 1636 m 1,0,-1
 123 1636 l 1,1,-1
 123 1638 l 1,2,-1
 102 1638 l 1,3,-1
 102 1636 l 1,0,-1
100 1632 m 1,4,-1
 102 1632 l 1,5,-1
 102 1636 l 1,6,-1
 100 1636 l 1,7,-1
 100 1632 l 1,4,-1
102 1632 m 1,8,-1
 102 1636 l 1,9,-1
 123 1636 l 1,10,-1
 123 1632 l 1,11,-1
 102 1632 l 1,8,-1
123 1634 m 1,12,-1
 125 1634 l 1,13,-1
 125 1636 l 1,14,-1
 123 1636 l 1,15,-1
 123 1634 l 1,12,-1
123 1610 m 1,16,-1
 123 1634 l 1,17,-1
 125 1634 l 1,18,-1
 125 1610 l 1,19,-1
 123 1610 l 1,16,-1
125 1632 m 1,20,-1
 127 1632 l 1,21,-1
 127 1634 l 1,22,-1
 125 1634 l 1,23,-1
 125 1632 l 1,20,-1
102 1612 m 1,24,-1
 104 1612 l 1,25,-1
 104 1632 l 1,26,-1
 102 1632 l 1,27,-1
 102 1612 l 1,24,-1
104 1608 m 1,28,-1
 104 1632 l 1,29,-1
 109 1632 l 1,30,-1
 109 1608 l 1,31,-1
 104 1608 l 1,28,-1
109 1630 m 1,32,-1
 121 1630 l 1,33,-1
 121 1632 l 1,34,-1
 109 1632 l 1,35,-1
 109 1630 l 1,32,-1
121 1630 m 1,36,-1
 121 1632 l 1,37,-1
 123 1632 l 1,38,-1
 123 1630 l 1,39,-1
 121 1630 l 1,36,-1
125 1612 m 1,40,-1
 125 1632 l 1,41,-1
 127 1632 l 1,42,-1
 127 1612 l 1,43,-1
 125 1612 l 1,40,-1
127 1612 m 1,44,-1
 129 1612 l 1,45,-1
 129 1632 l 1,46,-1
 127 1632 l 1,47,-1
 127 1612 l 1,44,-1
109 1612 m 1,48,-1
 111 1612 l 1,49,-1
 111 1630 l 1,50,-1
 109 1630 l 1,51,-1
 109 1612 l 1,48,-1
121 1614 m 1,52,-1
 123 1614 l 1,53,-1
 123 1630 l 1,54,-1
 121 1630 l 1,55,-1
 121 1614 l 1,52,-1
111 1612 m 1,56,-1
 121 1612 l 1,57,-1
 121 1614 l 1,58,-1
 111 1614 l 1,59,-1
 111 1612 l 1,56,-1
121 1608 m 1,60,-1
 121 1614 l 1,61,-1
 123 1614 l 1,62,-1
 123 1608 l 1,63,-1
 121 1608 l 1,60,-1
100 1608 m 1,64,-1
 102 1608 l 1,65,-1
 102 1612 l 1,66,-1
 100 1612 l 1,67,-1
 100 1608 l 1,64,-1
102 1608 m 1,68,-1
 102 1612 l 1,69,-1
 104 1612 l 1,70,-1
 104 1608 l 1,71,-1
 102 1608 l 1,68,-1
109 1608 m 1,72,-1
 109 1612 l 1,73,-1
 121 1612 l 1,74,-1
 121 1608 l 1,75,-1
 109 1608 l 1,72,-1
125 1610 m 1,76,-1
 127 1610 l 1,77,-1
 127 1612 l 1,78,-1
 125 1612 l 1,79,-1
 125 1610 l 1,76,-1
123 1608 m 1,80,-1
 125 1608 l 1,81,-1
 125 1610 l 1,82,-1
 123 1610 l 1,83,-1
 123 1608 l 1,80,-1
102 1606 m 1,84,-1
 123 1606 l 1,85,-1
 123 1608 l 1,86,-1
 102 1608 l 1,87,-1
 102 1606 l 1,84,-1
EndSplineSet
Validated: 5
EndChar

StartChar: F
Encoding: 70 70 5
Width: 2048
Flags: W
LayerCount: 2
Fore
SplineSet
139 1636 m 1,0,-1
 158 1636 l 1,1,-1
 158 1638 l 1,2,-1
 139 1638 l 1,3,-1
 139 1636 l 1,0,-1
137 1634 m 1,4,-1
 139 1634 l 1,5,-1
 139 1636 l 1,6,-1
 137 1636 l 1,7,-1
 137 1634 l 1,4,-1
139 1632 m 1,8,-1
 139 1636 l 1,9,-1
 158 1636 l 1,10,-1
 158 1632 l 1,11,-1
 139 1632 l 1,8,-1
158 1634 m 1,12,-1
 160 1634 l 1,13,-1
 160 1636 l 1,14,-1
 158 1636 l 1,15,-1
 158 1634 l 1,12,-1
135 1610 m 1,16,-1
 137 1610 l 1,17,-1
 137 1634 l 1,18,-1
 135 1634 l 1,19,-1
 135 1610 l 1,16,-1
137 1610 m 1,20,-1
 137 1634 l 1,21,-1
 139 1634 l 1,22,-1
 139 1610 l 1,23,-1
 137 1610 l 1,20,-1
158 1628 m 1,24,-1
 158 1634 l 1,25,-1
 160 1634 l 1,26,-1
 160 1628 l 1,27,-1
 158 1628 l 1,24,-1
160 1628 m 1,28,-1
 162 1628 l 1,29,-1
 162 1634 l 1,30,-1
 160 1634 l 1,31,-1
 160 1628 l 1,28,-1
139 1630 m 1,32,-1
 139 1632 l 1,33,-1
 143 1632 l 1,34,-1
 143 1630 l 1,35,-1
 139 1630 l 1,32,-1
143 1630 m 1,36,-1
 156 1630 l 1,37,-1
 156 1632 l 1,38,-1
 143 1632 l 1,39,-1
 143 1630 l 1,36,-1
156 1630 m 1,40,-1
 156 1632 l 1,41,-1
 158 1632 l 1,42,-1
 158 1630 l 1,43,-1
 156 1630 l 1,40,-1
139 1608 m 1,44,-1
 139 1630 l 1,45,-1
 141 1630 l 1,46,-1
 141 1608 l 1,47,-1
 139 1608 l 1,44,-1
141 1626 m 1,48,-1
 143 1626 l 1,49,-1
 143 1630 l 1,50,-1
 141 1630 l 1,51,-1
 141 1626 l 1,48,-1
156 1628 m 1,52,-1
 158 1628 l 1,53,-1
 158 1630 l 1,54,-1
 156 1630 l 1,55,-1
 156 1628 l 1,52,-1
150 1626 m 1,56,-1
 152 1626 l 1,57,-1
 152 1628 l 1,58,-1
 150 1628 l 1,59,-1
 150 1626 l 1,56,-1
158 1626 m 1,60,-1
 160 1626 l 1,61,-1
 160 1628 l 1,62,-1
 158 1628 l 1,63,-1
 158 1626 l 1,60,-1
141 1618 m 1,64,-1
 141 1626 l 1,65,-1
 143 1626 l 1,66,-1
 143 1618 l 1,67,-1
 141 1618 l 1,64,-1
143 1624 m 1,68,-1
 150 1624 l 1,69,-1
 150 1626 l 1,70,-1
 143 1626 l 1,71,-1
 143 1624 l 1,68,-1
150 1618 m 1,72,-1
 150 1626 l 1,73,-1
 152 1626 l 1,74,-1
 152 1618 l 1,75,-1
 150 1618 l 1,72,-1
152 1624 m 1,76,-1
 154 1624 l 1,77,-1
 154 1626 l 1,78,-1
 152 1626 l 1,79,-1
 152 1624 l 1,76,-1
143 1620 m 1,80,-1
 143 1624 l 1,81,-1
 150 1624 l 1,82,-1
 150 1620 l 1,83,-1
 143 1620 l 1,80,-1
152 1620 m 1,84,-1
 152 1624 l 1,85,-1
 154 1624 l 1,86,-1
 154 1620 l 1,87,-1
 152 1620 l 1,84,-1
154 1620 m 1,88,-1
 156 1620 l 1,89,-1
 156 1624 l 1,90,-1
 154 1624 l 1,91,-1
 154 1620 l 1,88,-1
143 1618 m 1,92,-1
 150 1618 l 1,93,-1
 150 1620 l 1,94,-1
 143 1620 l 1,95,-1
 143 1618 l 1,92,-1
152 1618 m 1,96,-1
 154 1618 l 1,97,-1
 154 1620 l 1,98,-1
 152 1620 l 1,99,-1
 152 1618 l 1,96,-1
141 1614 m 1,100,-1
 143 1614 l 1,101,-1
 143 1618 l 1,102,-1
 141 1618 l 1,103,-1
 141 1614 l 1,100,-1
150 1616 m 1,104,-1
 152 1616 l 1,105,-1
 152 1618 l 1,106,-1
 150 1618 l 1,107,-1
 150 1616 l 1,104,-1
158 1616 m 1,108,-1
 160 1616 l 1,109,-1
 160 1618 l 1,110,-1
 158 1618 l 1,111,-1
 158 1616 l 1,108,-1
156 1614 m 1,112,-1
 158 1614 l 1,113,-1
 158 1616 l 1,114,-1
 156 1616 l 1,115,-1
 156 1614 l 1,112,-1
158 1610 m 1,116,-1
 158 1616 l 1,117,-1
 160 1616 l 1,118,-1
 160 1610 l 1,119,-1
 158 1610 l 1,116,-1
160 1610 m 1,120,-1
 162 1610 l 1,121,-1
 162 1616 l 1,122,-1
 160 1616 l 1,123,-1
 160 1610 l 1,120,-1
141 1608 m 1,124,-1
 141 1614 l 1,125,-1
 143 1614 l 1,126,-1
 143 1608 l 1,127,-1
 141 1608 l 1,124,-1
143 1612 m 1,128,-1
 156 1612 l 1,129,-1
 156 1614 l 1,130,-1
 143 1614 l 1,131,-1
 143 1612 l 1,128,-1
156 1608 m 1,132,-1
 156 1614 l 1,133,-1
 158 1614 l 1,134,-1
 158 1608 l 1,135,-1
 156 1608 l 1,132,-1
143 1608 m 1,136,-1
 143 1612 l 1,137,-1
 156 1612 l 1,138,-1
 156 1608 l 1,139,-1
 143 1608 l 1,136,-1
137 1608 m 1,140,-1
 139 1608 l 1,141,-1
 139 1610 l 1,142,-1
 137 1610 l 1,143,-1
 137 1608 l 1,140,-1
158 1608 m 1,144,-1
 160 1608 l 1,145,-1
 160 1610 l 1,146,-1
 158 1610 l 1,147,-1
 158 1608 l 1,144,-1
139 1606 m 1,148,-1
 158 1606 l 1,149,-1
 158 1608 l 1,150,-1
 139 1608 l 1,151,-1
 139 1606 l 1,148,-1
EndSplineSet
Validated: 5
EndChar

StartChar: G
Encoding: 71 71 6
Width: 2048
Flags: W
LayerCount: 2
Fore
SplineSet
172 1636 m 1,0,-1
 188 1636 l 1,1,-1
 188 1638 l 1,2,-1
 172 1638 l 1,3,-1
 172 1636 l 1,0,-1
170 1634 m 1,4,-1
 172 1634 l 1,5,-1
 172 1636 l 1,6,-1
 170 1636 l 1,7,-1
 170 1634 l 1,4,-1
172 1632 m 1,8,-1
 172 1636 l 1,9,-1
 188 1636 l 1,10,-1
 188 1632 l 1,11,-1
 172 1632 l 1,8,-1
188 1634 m 1,12,-1
 190 1634 l 1,13,-1
 190 1636 l 1,14,-1
 188 1636 l 1,15,-1
 188 1634 l 1,12,-1
168 1608 m 1,16,-1
 170 1608 l 1,17,-1
 170 1634 l 1,18,-1
 168 1634 l 1,19,-1
 168 1608 l 1,16,-1
170 1608 m 1,20,-1
 170 1634 l 1,21,-1
 172 1634 l 1,22,-1
 172 1608 l 1,23,-1
 170 1608 l 1,20,-1
188 1630 m 1,24,-1
 188 1634 l 1,25,-1
 190 1634 l 1,26,-1
 190 1630 l 1,27,-1
 188 1630 l 1,24,-1
190 1630 m 1,28,-1
 193 1630 l 1,29,-1
 193 1634 l 1,30,-1
 190 1634 l 1,31,-1
 190 1630 l 1,28,-1
172 1608 m 1,32,-1
 172 1632 l 1,33,-1
 174 1632 l 1,34,-1
 174 1608 l 1,35,-1
 172 1608 l 1,32,-1
174 1630 m 1,36,-1
 186 1630 l 1,37,-1
 186 1632 l 1,38,-1
 174 1632 l 1,39,-1
 174 1630 l 1,36,-1
186 1628 m 1,40,-1
 186 1632 l 1,41,-1
 188 1632 l 1,42,-1
 188 1628 l 1,43,-1
 186 1628 l 1,40,-1
174 1626 m 1,44,-1
 176 1626 l 1,45,-1
 176 1630 l 1,46,-1
 174 1630 l 1,47,-1
 174 1626 l 1,44,-1
184 1628 m 1,48,-1
 186 1628 l 1,49,-1
 186 1630 l 1,50,-1
 184 1630 l 1,51,-1
 184 1628 l 1,48,-1
188 1628 m 1,52,-1
 190 1628 l 1,53,-1
 190 1630 l 1,54,-1
 188 1630 l 1,55,-1
 188 1628 l 1,52,-1
180 1626 m 1,56,-1
 182 1626 l 1,57,-1
 182 1628 l 1,58,-1
 180 1628 l 1,59,-1
 180 1626 l 1,56,-1
186 1626 m 1,60,-1
 188 1626 l 1,61,-1
 188 1628 l 1,62,-1
 186 1628 l 1,63,-1
 186 1626 l 1,60,-1
174 1618 m 1,64,-1
 174 1626 l 1,65,-1
 176 1626 l 1,66,-1
 176 1618 l 1,67,-1
 174 1618 l 1,64,-1
176 1624 m 1,68,-1
 180 1624 l 1,69,-1
 180 1626 l 1,70,-1
 176 1626 l 1,71,-1
 176 1624 l 1,68,-1
180 1618 m 1,72,-1
 180 1626 l 1,73,-1
 182 1626 l 1,74,-1
 182 1618 l 1,75,-1
 180 1618 l 1,72,-1
182 1624 m 1,76,-1
 184 1624 l 1,77,-1
 184 1626 l 1,78,-1
 182 1626 l 1,79,-1
 182 1624 l 1,76,-1
176 1620 m 1,80,-1
 176 1624 l 1,81,-1
 180 1624 l 1,82,-1
 180 1620 l 1,83,-1
 176 1620 l 1,80,-1
182 1620 m 1,84,-1
 182 1624 l 1,85,-1
 184 1624 l 1,86,-1
 184 1620 l 1,87,-1
 182 1620 l 1,84,-1
184 1620 m 1,88,-1
 186 1620 l 1,89,-1
 186 1624 l 1,90,-1
 184 1624 l 1,91,-1
 184 1620 l 1,88,-1
176 1618 m 1,92,-1
 180 1618 l 1,93,-1
 180 1620 l 1,94,-1
 176 1620 l 1,95,-1
 176 1618 l 1,92,-1
182 1618 m 1,96,-1
 184 1618 l 1,97,-1
 184 1620 l 1,98,-1
 182 1620 l 1,99,-1
 182 1618 l 1,96,-1
174 1610 m 1,100,-1
 176 1610 l 1,101,-1
 176 1618 l 1,102,-1
 174 1618 l 1,103,-1
 174 1610 l 1,100,-1
180 1616 m 1,104,-1
 182 1616 l 1,105,-1
 182 1618 l 1,106,-1
 180 1618 l 1,107,-1
 180 1616 l 1,104,-1
176 1610 m 1,108,-1
 178 1610 l 1,109,-1
 178 1612 l 1,110,-1
 176 1612 l 1,111,-1
 176 1610 l 1,108,-1
174 1608 m 1,112,-1
 174 1610 l 1,113,-1
 178 1610 l 1,114,-1
 178 1608 l 1,115,-1
 174 1608 l 1,112,-1
178 1608 m 1,116,-1
 180 1608 l 1,117,-1
 180 1610 l 1,118,-1
 178 1610 l 1,119,-1
 178 1608 l 1,116,-1
170 1606 m 1,120,-1
 178 1606 l 1,121,-1
 178 1608 l 1,122,-1
 170 1608 l 1,123,-1
 170 1606 l 1,120,-1
EndSplineSet
Validated: 5
EndChar

StartChar: H
Encoding: 72 72 7
Width: 2048
Flags: W
LayerCount: 2
Fore
SplineSet
205 1636 m 1,0,-1
 221 1636 l 1,1,-1
 221 1638 l 1,2,-1
 205 1638 l 1,3,-1
 205 1636 l 1,0,-1
203 1634 m 1,4,-1
 205 1634 l 1,5,-1
 205 1636 l 1,6,-1
 203 1636 l 1,7,-1
 203 1634 l 1,4,-1
205 1632 m 1,8,-1
 205 1636 l 1,9,-1
 221 1636 l 1,10,-1
 221 1632 l 1,11,-1
 205 1632 l 1,8,-1
221 1634 m 1,12,-1
 223 1634 l 1,13,-1
 223 1636 l 1,14,-1
 221 1636 l 1,15,-1
 221 1634 l 1,12,-1
201 1632 m 1,16,-1
 203 1632 l 1,17,-1
 203 1634 l 1,18,-1
 201 1634 l 1,19,-1
 201 1632 l 1,16,-1
203 1610 m 1,20,-1
 203 1634 l 1,21,-1
 205 1634 l 1,22,-1
 205 1610 l 1,23,-1
 203 1610 l 1,20,-1
221 1628 m 1,24,-1
 221 1634 l 1,25,-1
 223 1634 l 1,26,-1
 223 1628 l 1,27,-1
 221 1628 l 1,24,-1
223 1628 m 1,28,-1
 225 1628 l 1,29,-1
 225 1634 l 1,30,-1
 223 1634 l 1,31,-1
 223 1628 l 1,28,-1
199 1628 m 1,32,-1
 201 1628 l 1,33,-1
 201 1632 l 1,34,-1
 199 1632 l 1,35,-1
 199 1628 l 1,32,-1
201 1612 m 1,36,-1
 201 1632 l 1,37,-1
 203 1632 l 1,38,-1
 203 1612 l 1,39,-1
 201 1612 l 1,36,-1
205 1630 m 1,40,-1
 205 1632 l 1,41,-1
 209 1632 l 1,42,-1
 209 1630 l 1,43,-1
 205 1630 l 1,40,-1
209 1630 m 1,44,-1
 219 1630 l 1,45,-1
 219 1632 l 1,46,-1
 209 1632 l 1,47,-1
 209 1630 l 1,44,-1
219 1630 m 1,48,-1
 219 1632 l 1,49,-1
 221 1632 l 1,50,-1
 221 1630 l 1,51,-1
 219 1630 l 1,48,-1
205 1628 m 1,52,-1
 205 1630 l 1,53,-1
 207 1630 l 1,54,-1
 207 1628 l 1,55,-1
 205 1628 l 1,52,-1
207 1628 m 1,56,-1
 209 1628 l 1,57,-1
 209 1630 l 1,58,-1
 207 1630 l 1,59,-1
 207 1628 l 1,56,-1
219 1628 m 1,60,-1
 221 1628 l 1,61,-1
 221 1630 l 1,62,-1
 219 1630 l 1,63,-1
 219 1628 l 1,60,-1
197 1616 m 1,64,-1
 199 1616 l 1,65,-1
 199 1628 l 1,66,-1
 197 1628 l 1,67,-1
 197 1616 l 1,64,-1
199 1616 m 1,68,-1
 199 1628 l 1,69,-1
 201 1628 l 1,70,-1
 201 1616 l 1,71,-1
 199 1616 l 1,68,-1
205 1616 m 1,72,-1
 207 1616 l 1,73,-1
 207 1628 l 1,74,-1
 205 1628 l 1,75,-1
 205 1616 l 1,72,-1
221 1626 m 1,76,-1
 223 1626 l 1,77,-1
 223 1628 l 1,78,-1
 221 1628 l 1,79,-1
 221 1626 l 1,76,-1
213 1622 m 1,80,-1
 223 1622 l 1,81,-1
 223 1624 l 1,82,-1
 213 1624 l 1,83,-1
 213 1622 l 1,80,-1
211 1620 m 1,84,-1
 213 1620 l 1,85,-1
 213 1622 l 1,86,-1
 211 1622 l 1,87,-1
 211 1620 l 1,84,-1
213 1618 m 1,88,-1
 213 1622 l 1,89,-1
 223 1622 l 1,90,-1
 223 1618 l 1,91,-1
 213 1618 l 1,88,-1
223 1620 m 1,92,-1
 225 1620 l 1,93,-1
 225 1622 l 1,94,-1
 223 1622 l 1,95,-1
 223 1620 l 1,92,-1
209 1618 m 1,96,-1
 211 1618 l 1,97,-1
 211 1620 l 1,98,-1
 209 1620 l 1,99,-1
 209 1618 l 1,96,-1
211 1618 m 1,100,-1
 211 1620 l 1,101,-1
 213 1620 l 1,102,-1
 213 1618 l 1,103,-1
 211 1618 l 1,100,-1
223 1612 m 1,104,-1
 223 1620 l 1,105,-1
 225 1620 l 1,106,-1
 225 1612 l 1,107,-1
 223 1612 l 1,104,-1
225 1612 m 1,108,-1
 227 1612 l 1,109,-1
 227 1620 l 1,110,-1
 225 1620 l 1,111,-1
 225 1612 l 1,108,-1
211 1616 m 1,112,-1
 219 1616 l 1,113,-1
 219 1618 l 1,114,-1
 211 1618 l 1,115,-1
 211 1616 l 1,112,-1
219 1616 m 1,116,-1
 219 1618 l 1,117,-1
 223 1618 l 1,118,-1
 223 1616 l 1,119,-1
 219 1616 l 1,116,-1
199 1612 m 1,120,-1
 201 1612 l 1,121,-1
 201 1616 l 1,122,-1
 199 1616 l 1,123,-1
 199 1612 l 1,120,-1
205 1608 m 1,124,-1
 205 1616 l 1,125,-1
 207 1616 l 1,126,-1
 207 1608 l 1,127,-1
 205 1608 l 1,124,-1
207 1614 m 1,128,-1
 209 1614 l 1,129,-1
 209 1616 l 1,130,-1
 207 1616 l 1,131,-1
 207 1614 l 1,128,-1
219 1614 m 1,132,-1
 221 1614 l 1,133,-1
 221 1616 l 1,134,-1
 219 1616 l 1,135,-1
 219 1614 l 1,132,-1
221 1610 m 1,136,-1
 221 1616 l 1,137,-1
 223 1616 l 1,138,-1
 223 1610 l 1,139,-1
 221 1610 l 1,136,-1
207 1608 m 1,140,-1
 207 1614 l 1,141,-1
 209 1614 l 1,142,-1
 209 1608 l 1,143,-1
 207 1608 l 1,140,-1
209 1612 m 1,144,-1
 219 1612 l 1,145,-1
 219 1614 l 1,146,-1
 209 1614 l 1,147,-1
 209 1612 l 1,144,-1
219 1608 m 1,148,-1
 219 1614 l 1,149,-1
 221 1614 l 1,150,-1
 221 1608 l 1,151,-1
 219 1608 l 1,148,-1
201 1610 m 1,152,-1
 203 1610 l 1,153,-1
 203 1612 l 1,154,-1
 201 1612 l 1,155,-1
 201 1610 l 1,152,-1
209 1608 m 1,156,-1
 209 1612 l 1,157,-1
 219 1612 l 1,158,-1
 219 1608 l 1,159,-1
 209 1608 l 1,156,-1
223 1610 m 1,160,-1
 225 1610 l 1,161,-1
 225 1612 l 1,162,-1
 223 1612 l 1,163,-1
 223 1610 l 1,160,-1
203 1608 m 1,164,-1
 205 1608 l 1,165,-1
 205 1610 l 1,166,-1
 203 1610 l 1,167,-1
 203 1608 l 1,164,-1
221 1608 m 1,168,-1
 223 1608 l 1,169,-1
 223 1610 l 1,170,-1
 221 1610 l 1,171,-1
 221 1608 l 1,168,-1
205 1606 m 1,172,-1
 221 1606 l 1,173,-1
 221 1608 l 1,174,-1
 205 1608 l 1,175,-1
 205 1606 l 1,172,-1
EndSplineSet
Validated: 5
EndChar

StartChar: I
Encoding: 73 73 8
Width: 2048
Flags: W
LayerCount: 2
Fore
SplineSet
233 1636 m 1,0,-1
 242 1636 l 1,1,-1
 242 1638 l 1,2,-1
 233 1638 l 1,3,-1
 233 1636 l 1,0,-1
250 1636 m 1,4,-1
 258 1636 l 1,5,-1
 258 1638 l 1,6,-1
 250 1638 l 1,7,-1
 250 1636 l 1,4,-1
231 1632 m 1,8,-1
 233 1632 l 1,9,-1
 233 1636 l 1,10,-1
 231 1636 l 1,11,-1
 231 1632 l 1,8,-1
233 1632 m 1,12,-1
 233 1636 l 1,13,-1
 242 1636 l 1,14,-1
 242 1632 l 1,15,-1
 233 1632 l 1,12,-1
242 1632 m 1,16,-1
 244 1632 l 1,17,-1
 244 1636 l 1,18,-1
 242 1636 l 1,19,-1
 242 1632 l 1,16,-1
248 1632 m 1,20,-1
 250 1632 l 1,21,-1
 250 1636 l 1,22,-1
 248 1636 l 1,23,-1
 248 1632 l 1,20,-1
250 1632 m 1,24,-1
 250 1636 l 1,25,-1
 258 1636 l 1,26,-1
 258 1632 l 1,27,-1
 250 1632 l 1,24,-1
258 1632 m 1,28,-1
 260 1632 l 1,29,-1
 260 1636 l 1,30,-1
 258 1636 l 1,31,-1
 258 1632 l 1,28,-1
233 1612 m 1,32,-1
 236 1612 l 1,33,-1
 236 1632 l 1,34,-1
 233 1632 l 1,35,-1
 233 1612 l 1,32,-1
236 1608 m 1,36,-1
 236 1632 l 1,37,-1
 240 1632 l 1,38,-1
 240 1608 l 1,39,-1
 236 1608 l 1,36,-1
240 1626 m 1,40,-1
 242 1626 l 1,41,-1
 242 1632 l 1,42,-1
 240 1632 l 1,43,-1
 240 1626 l 1,40,-1
250 1626 m 1,44,-1
 252 1626 l 1,45,-1
 252 1632 l 1,46,-1
 250 1632 l 1,47,-1
 250 1626 l 1,44,-1
252 1608 m 1,48,-1
 252 1632 l 1,49,-1
 256 1632 l 1,50,-1
 256 1608 l 1,51,-1
 252 1608 l 1,48,-1
256 1612 m 1,52,-1
 258 1612 l 1,53,-1
 258 1632 l 1,54,-1
 256 1632 l 1,55,-1
 256 1612 l 1,52,-1
240 1618 m 1,56,-1
 240 1626 l 1,57,-1
 242 1626 l 1,58,-1
 242 1618 l 1,59,-1
 240 1618 l 1,56,-1
242 1624 m 1,60,-1
 250 1624 l 1,61,-1
 250 1626 l 1,62,-1
 242 1626 l 1,63,-1
 242 1624 l 1,60,-1
250 1618 m 1,64,-1
 250 1626 l 1,65,-1
 252 1626 l 1,66,-1
 252 1618 l 1,67,-1
 250 1618 l 1,64,-1
242 1620 m 1,68,-1
 242 1624 l 1,69,-1
 250 1624 l 1,70,-1
 250 1620 l 1,71,-1
 242 1620 l 1,68,-1
242 1618 m 1,72,-1
 250 1618 l 1,73,-1
 250 1620 l 1,74,-1
 242 1620 l 1,75,-1
 242 1618 l 1,72,-1
240 1612 m 1,76,-1
 242 1612 l 1,77,-1
 242 1618 l 1,78,-1
 240 1618 l 1,79,-1
 240 1612 l 1,76,-1
250 1612 m 1,80,-1
 252 1612 l 1,81,-1
 252 1618 l 1,82,-1
 250 1618 l 1,83,-1
 250 1612 l 1,80,-1
231 1608 m 1,84,-1
 233 1608 l 1,85,-1
 233 1612 l 1,86,-1
 231 1612 l 1,87,-1
 231 1608 l 1,84,-1
233 1608 m 1,88,-1
 233 1612 l 1,89,-1
 236 1612 l 1,90,-1
 236 1608 l 1,91,-1
 233 1608 l 1,88,-1
240 1608 m 1,92,-1
 240 1612 l 1,93,-1
 242 1612 l 1,94,-1
 242 1608 l 1,95,-1
 240 1608 l 1,92,-1
242 1608 m 1,96,-1
 244 1608 l 1,97,-1
 244 1612 l 1,98,-1
 242 1612 l 1,99,-1
 242 1608 l 1,96,-1
248 1608 m 1,100,-1
 250 1608 l 1,101,-1
 250 1612 l 1,102,-1
 248 1612 l 1,103,-1
 248 1608 l 1,100,-1
250 1608 m 1,104,-1
 250 1612 l 1,105,-1
 252 1612 l 1,106,-1
 252 1608 l 1,107,-1
 250 1608 l 1,104,-1
256 1608 m 1,108,-1
 256 1612 l 1,109,-1
 258 1612 l 1,110,-1
 258 1608 l 1,111,-1
 256 1608 l 1,108,-1
258 1608 m 1,112,-1
 260 1608 l 1,113,-1
 260 1612 l 1,114,-1
 258 1612 l 1,115,-1
 258 1608 l 1,112,-1
233 1606 m 1,116,-1
 242 1606 l 1,117,-1
 242 1608 l 1,118,-1
 233 1608 l 1,119,-1
 233 1606 l 1,116,-1
250 1606 m 1,120,-1
 258 1606 l 1,121,-1
 258 1608 l 1,122,-1
 250 1608 l 1,123,-1
 250 1606 l 1,120,-1
EndSplineSet
Validated: 5
EndChar

StartChar: J
Encoding: 74 74 9
Width: 2048
Flags: W
LayerCount: 2
Fore
SplineSet
270 1636 m 1,0,-1
 287 1636 l 1,1,-1
 287 1638 l 1,2,-1
 270 1638 l 1,3,-1
 270 1636 l 1,0,-1
268 1634 m 1,4,-1
 270 1634 l 1,5,-1
 270 1636 l 1,6,-1
 268 1636 l 1,7,-1
 268 1634 l 1,4,-1
270 1632 m 1,8,-1
 270 1636 l 1,9,-1
 287 1636 l 1,10,-1
 287 1632 l 1,11,-1
 270 1632 l 1,8,-1
287 1634 m 1,12,-1
 289 1634 l 1,13,-1
 289 1636 l 1,14,-1
 287 1636 l 1,15,-1
 287 1634 l 1,12,-1
266 1630 m 1,16,-1
 268 1630 l 1,17,-1
 268 1634 l 1,18,-1
 266 1634 l 1,19,-1
 266 1630 l 1,16,-1
268 1630 m 1,20,-1
 268 1634 l 1,21,-1
 270 1634 l 1,22,-1
 270 1630 l 1,23,-1
 268 1630 l 1,20,-1
287 1630 m 1,24,-1
 287 1634 l 1,25,-1
 289 1634 l 1,26,-1
 289 1630 l 1,27,-1
 287 1630 l 1,24,-1
289 1630 m 1,28,-1
 291 1630 l 1,29,-1
 291 1634 l 1,30,-1
 289 1634 l 1,31,-1
 289 1630 l 1,28,-1
270 1630 m 1,32,-1
 276 1630 l 1,33,-1
 276 1632 l 1,34,-1
 270 1632 l 1,35,-1
 270 1630 l 1,32,-1
276 1608 m 1,36,-1
 276 1632 l 1,37,-1
 281 1632 l 1,38,-1
 281 1608 l 1,39,-1
 276 1608 l 1,36,-1
281 1630 m 1,40,-1
 287 1630 l 1,41,-1
 287 1632 l 1,42,-1
 281 1632 l 1,43,-1
 281 1630 l 1,40,-1
268 1628 m 1,44,-1
 270 1628 l 1,45,-1
 270 1630 l 1,46,-1
 268 1630 l 1,47,-1
 268 1628 l 1,44,-1
274 1624 m 1,48,-1
 276 1624 l 1,49,-1
 276 1630 l 1,50,-1
 274 1630 l 1,51,-1
 274 1624 l 1,48,-1
281 1624 m 1,52,-1
 283 1624 l 1,53,-1
 283 1630 l 1,54,-1
 281 1630 l 1,55,-1
 281 1624 l 1,52,-1
287 1628 m 1,56,-1
 289 1628 l 1,57,-1
 289 1630 l 1,58,-1
 287 1630 l 1,59,-1
 287 1628 l 1,56,-1
272 1620 m 1,60,-1
 274 1620 l 1,61,-1
 274 1624 l 1,62,-1
 272 1624 l 1,63,-1
 272 1620 l 1,60,-1
274 1620 m 1,64,-1
 274 1624 l 1,65,-1
 276 1624 l 1,66,-1
 276 1620 l 1,67,-1
 274 1620 l 1,64,-1
281 1620 m 1,68,-1
 281 1624 l 1,69,-1
 283 1624 l 1,70,-1
 283 1620 l 1,71,-1
 281 1620 l 1,68,-1
283 1620 m 1,72,-1
 285 1620 l 1,73,-1
 285 1624 l 1,74,-1
 283 1624 l 1,75,-1
 283 1620 l 1,72,-1
274 1612 m 1,76,-1
 276 1612 l 1,77,-1
 276 1620 l 1,78,-1
 274 1620 l 1,79,-1
 274 1612 l 1,76,-1
281 1612 m 1,80,-1
 283 1612 l 1,81,-1
 283 1620 l 1,82,-1
 281 1620 l 1,83,-1
 281 1612 l 1,80,-1
268 1614 m 1,84,-1
 270 1614 l 1,85,-1
 270 1616 l 1,86,-1
 268 1616 l 1,87,-1
 268 1614 l 1,84,-1
266 1610 m 1,88,-1
 268 1610 l 1,89,-1
 268 1614 l 1,90,-1
 266 1614 l 1,91,-1
 266 1610 l 1,88,-1
268 1610 m 1,92,-1
 268 1614 l 1,93,-1
 270 1614 l 1,94,-1
 270 1610 l 1,95,-1
 268 1610 l 1,92,-1
270 1612 m 1,96,-1
 274 1612 l 1,97,-1
 274 1614 l 1,98,-1
 270 1614 l 1,99,-1
 270 1612 l 1,96,-1
283 1612 m 1,100,-1
 287 1612 l 1,101,-1
 287 1614 l 1,102,-1
 283 1614 l 1,103,-1
 283 1612 l 1,100,-1
287 1610 m 1,104,-1
 287 1614 l 1,105,-1
 289 1614 l 1,106,-1
 289 1610 l 1,107,-1
 287 1610 l 1,104,-1
289 1610 m 1,108,-1
 291 1610 l 1,109,-1
 291 1614 l 1,110,-1
 289 1614 l 1,111,-1
 289 1610 l 1,108,-1
270 1608 m 1,112,-1
 270 1612 l 1,113,-1
 276 1612 l 1,114,-1
 276 1608 l 1,115,-1
 270 1608 l 1,112,-1
281 1608 m 1,116,-1
 281 1612 l 1,117,-1
 287 1612 l 1,118,-1
 287 1608 l 1,119,-1
 281 1608 l 1,116,-1
268 1608 m 1,120,-1
 270 1608 l 1,121,-1
 270 1610 l 1,122,-1
 268 1610 l 1,123,-1
 268 1608 l 1,120,-1
287 1608 m 1,124,-1
 289 1608 l 1,125,-1
 289 1610 l 1,126,-1
 287 1610 l 1,127,-1
 287 1608 l 1,124,-1
270 1606 m 1,128,-1
 287 1606 l 1,129,-1
 287 1608 l 1,130,-1
 270 1608 l 1,131,-1
 270 1606 l 1,128,-1
EndSplineSet
Validated: 5
EndChar

StartChar: K
Encoding: 75 75 10
Width: 2048
Flags: W
LayerCount: 2
Fore
SplineSet
309 1636 m 1,0,-1
 324 1636 l 1,1,-1
 324 1638 l 1,2,-1
 309 1638 l 1,3,-1
 309 1636 l 1,0,-1
307 1634 m 1,4,-1
 309 1634 l 1,5,-1
 309 1636 l 1,6,-1
 307 1636 l 1,7,-1
 307 1634 l 1,4,-1
309 1634 m 1,8,-1
 309 1636 l 1,9,-1
 324 1636 l 1,10,-1
 324 1634 l 1,11,-1
 309 1634 l 1,8,-1
324 1634 m 1,12,-1
 326 1634 l 1,13,-1
 326 1636 l 1,14,-1
 324 1636 l 1,15,-1
 324 1634 l 1,12,-1
309 1632 m 1,16,-1
 311 1632 l 1,17,-1
 311 1634 l 1,18,-1
 309 1634 l 1,19,-1
 309 1632 l 1,16,-1
311 1632 m 1,20,-1
 311 1634 l 1,21,-1
 322 1634 l 1,22,-1
 322 1632 l 1,23,-1
 311 1632 l 1,20,-1
322 1632 m 1,24,-1
 324 1632 l 1,25,-1
 324 1634 l 1,26,-1
 322 1634 l 1,27,-1
 322 1632 l 1,24,-1
311 1630 m 1,28,-1
 315 1630 l 1,29,-1
 315 1632 l 1,30,-1
 311 1632 l 1,31,-1
 311 1630 l 1,28,-1
315 1610 m 1,32,-1
 315 1632 l 1,33,-1
 319 1632 l 1,34,-1
 319 1610 l 1,35,-1
 315 1610 l 1,32,-1
319 1610 m 1,36,-1
 322 1610 l 1,37,-1
 322 1632 l 1,38,-1
 319 1632 l 1,39,-1
 319 1610 l 1,36,-1
313 1616 m 1,40,-1
 315 1616 l 1,41,-1
 315 1630 l 1,42,-1
 313 1630 l 1,43,-1
 313 1616 l 1,40,-1
301 1620 m 1,44,-1
 303 1620 l 1,45,-1
 303 1622 l 1,46,-1
 301 1622 l 1,47,-1
 301 1620 l 1,44,-1
299 1610 m 1,48,-1
 301 1610 l 1,49,-1
 301 1620 l 1,50,-1
 299 1620 l 1,51,-1
 299 1610 l 1,48,-1
301 1610 m 1,52,-1
 301 1620 l 1,53,-1
 303 1620 l 1,54,-1
 303 1610 l 1,55,-1
 301 1610 l 1,52,-1
303 1618 m 1,56,-1
 305 1618 l 1,57,-1
 305 1620 l 1,58,-1
 303 1620 l 1,59,-1
 303 1618 l 1,56,-1
303 1608 m 1,60,-1
 303 1618 l 1,61,-1
 305 1618 l 1,62,-1
 305 1608 l 1,63,-1
 303 1608 l 1,60,-1
305 1614 m 1,64,-1
 307 1614 l 1,65,-1
 307 1618 l 1,66,-1
 305 1618 l 1,67,-1
 305 1614 l 1,64,-1
311 1612 m 1,68,-1
 313 1612 l 1,69,-1
 313 1616 l 1,70,-1
 311 1616 l 1,71,-1
 311 1612 l 1,68,-1
313 1608 m 1,72,-1
 313 1616 l 1,73,-1
 315 1616 l 1,74,-1
 315 1608 l 1,75,-1
 313 1608 l 1,72,-1
305 1608 m 1,76,-1
 305 1614 l 1,77,-1
 307 1614 l 1,78,-1
 307 1608 l 1,79,-1
 305 1608 l 1,76,-1
307 1612 m 1,80,-1
 311 1612 l 1,81,-1
 311 1614 l 1,82,-1
 307 1614 l 1,83,-1
 307 1612 l 1,80,-1
307 1608 m 1,84,-1
 307 1612 l 1,85,-1
 313 1612 l 1,86,-1
 313 1608 l 1,87,-1
 307 1608 l 1,84,-1
301 1608 m 1,88,-1
 303 1608 l 1,89,-1
 303 1610 l 1,90,-1
 301 1610 l 1,91,-1
 301 1608 l 1,88,-1
315 1608 m 1,92,-1
 315 1610 l 1,93,-1
 317 1610 l 1,94,-1
 317 1608 l 1,95,-1
 315 1608 l 1,92,-1
317 1608 m 1,96,-1
 319 1608 l 1,97,-1
 319 1610 l 1,98,-1
 317 1610 l 1,99,-1
 317 1608 l 1,96,-1
303 1606 m 1,100,-1
 317 1606 l 1,101,-1
 317 1608 l 1,102,-1
 303 1608 l 1,103,-1
 303 1606 l 1,100,-1
EndSplineSet
Validated: 5
EndChar

StartChar: L
Encoding: 76 76 11
Width: 2048
Flags: W
LayerCount: 2
Fore
SplineSet
4 1604 m 1,0,-1
 12 1604 l 1,1,-1
 12 1606 l 1,2,-1
 4 1606 l 1,3,-1
 4 1604 l 1,0,-1
23 1604 m 1,4,-1
 29 1604 l 1,5,-1
 29 1606 l 1,6,-1
 23 1606 l 1,7,-1
 23 1604 l 1,4,-1
2 1602 m 1,8,-1
 4 1602 l 1,9,-1
 4 1604 l 1,10,-1
 2 1604 l 1,11,-1
 2 1602 l 1,8,-1
4 1602 m 1,12,-1
 4 1604 l 1,13,-1
 12 1604 l 1,14,-1
 12 1602 l 1,15,-1
 4 1602 l 1,12,-1
12 1593 m 1,16,-1
 14 1593 l 1,17,-1
 14 1604 l 1,18,-1
 12 1604 l 1,19,-1
 12 1593 l 1,16,-1
20 1602 m 1,20,-1
 23 1602 l 1,21,-1
 23 1604 l 1,22,-1
 20 1604 l 1,23,-1
 20 1602 l 1,20,-1
23 1602 m 1,24,-1
 23 1604 l 1,25,-1
 29 1604 l 1,26,-1
 29 1602 l 1,27,-1
 23 1602 l 1,24,-1
29 1602 m 1,28,-1
 31 1602 l 1,29,-1
 31 1604 l 1,30,-1
 29 1604 l 1,31,-1
 29 1602 l 1,28,-1
4 1599 m 1,32,-1
 6 1599 l 1,33,-1
 6 1602 l 1,34,-1
 4 1602 l 1,35,-1
 4 1599 l 1,32,-1
6 1599 m 1,36,-1
 6 1602 l 1,37,-1
 12 1602 l 1,38,-1
 12 1599 l 1,39,-1
 6 1599 l 1,36,-1
18 1599 m 1,40,-1
 20 1599 l 1,41,-1
 20 1602 l 1,42,-1
 18 1602 l 1,43,-1
 18 1599 l 1,40,-1
20 1599 m 1,44,-1
 20 1602 l 1,45,-1
 27 1602 l 1,46,-1
 27 1599 l 1,47,-1
 20 1599 l 1,44,-1
27 1599 m 1,48,-1
 29 1599 l 1,49,-1
 29 1602 l 1,50,-1
 27 1602 l 1,51,-1
 27 1599 l 1,48,-1
6 1579 m 1,52,-1
 8 1579 l 1,53,-1
 8 1599 l 1,54,-1
 6 1599 l 1,55,-1
 6 1579 l 1,52,-1
8 1575 m 1,56,-1
 8 1599 l 1,57,-1
 12 1599 l 1,58,-1
 12 1575 l 1,59,-1
 8 1575 l 1,56,-1
16 1597 m 1,60,-1
 18 1597 l 1,61,-1
 18 1599 l 1,62,-1
 16 1599 l 1,63,-1
 16 1597 l 1,60,-1
18 1597 m 1,64,-1
 18 1599 l 1,65,-1
 25 1599 l 1,66,-1
 25 1597 l 1,67,-1
 18 1597 l 1,64,-1
25 1597 m 1,68,-1
 27 1597 l 1,69,-1
 27 1599 l 1,70,-1
 25 1599 l 1,71,-1
 25 1597 l 1,68,-1
14 1595 m 1,72,-1
 16 1595 l 1,73,-1
 16 1597 l 1,74,-1
 14 1597 l 1,75,-1
 14 1595 l 1,72,-1
16 1595 m 1,76,-1
 16 1597 l 1,77,-1
 23 1597 l 1,78,-1
 23 1595 l 1,79,-1
 16 1595 l 1,76,-1
23 1595 m 1,80,-1
 25 1595 l 1,81,-1
 25 1597 l 1,82,-1
 23 1597 l 1,83,-1
 23 1595 l 1,80,-1
14 1593 m 1,84,-1
 14 1595 l 1,85,-1
 20 1595 l 1,86,-1
 20 1593 l 1,87,-1
 14 1593 l 1,84,-1
20 1593 m 1,88,-1
 23 1593 l 1,89,-1
 23 1595 l 1,90,-1
 20 1595 l 1,91,-1
 20 1593 l 1,88,-1
12 1591 m 1,92,-1
 12 1593 l 1,93,-1
 18 1593 l 1,94,-1
 18 1591 l 1,95,-1
 12 1591 l 1,92,-1
18 1591 m 1,96,-1
 20 1591 l 1,97,-1
 20 1593 l 1,98,-1
 18 1593 l 1,99,-1
 18 1591 l 1,96,-1
12 1585 m 1,100,-1
 12 1591 l 1,101,-1
 16 1591 l 1,102,-1
 16 1585 l 1,103,-1
 12 1585 l 1,100,-1
16 1587 m 1,104,-1
 18 1587 l 1,105,-1
 18 1591 l 1,106,-1
 16 1591 l 1,107,-1
 16 1587 l 1,104,-1
16 1581 m 1,108,-1
 16 1587 l 1,109,-1
 18 1587 l 1,110,-1
 18 1581 l 1,111,-1
 16 1581 l 1,108,-1
18 1585 m 1,112,-1
 20 1585 l 1,113,-1
 20 1587 l 1,114,-1
 18 1587 l 1,115,-1
 18 1585 l 1,112,-1
12 1575 m 1,116,-1
 14 1575 l 1,117,-1
 14 1585 l 1,118,-1
 12 1585 l 1,119,-1
 12 1575 l 1,116,-1
14 1583 m 1,120,-1
 14 1585 l 1,121,-1
 16 1585 l 1,122,-1
 16 1583 l 1,123,-1
 14 1583 l 1,120,-1
18 1579 m 1,124,-1
 18 1585 l 1,125,-1
 20 1585 l 1,126,-1
 20 1579 l 1,127,-1
 18 1579 l 1,124,-1
20 1583 m 1,128,-1
 23 1583 l 1,129,-1
 23 1585 l 1,130,-1
 20 1585 l 1,131,-1
 20 1583 l 1,128,-1
14 1581 m 1,132,-1
 16 1581 l 1,133,-1
 16 1583 l 1,134,-1
 14 1583 l 1,135,-1
 14 1581 l 1,132,-1
20 1577 m 1,136,-1
 20 1583 l 1,137,-1
 23 1583 l 1,138,-1
 23 1577 l 1,139,-1
 20 1577 l 1,136,-1
23 1581 m 1,140,-1
 25 1581 l 1,141,-1
 25 1583 l 1,142,-1
 23 1583 l 1,143,-1
 23 1581 l 1,140,-1
16 1579 m 1,144,-1
 18 1579 l 1,145,-1
 18 1581 l 1,146,-1
 16 1581 l 1,147,-1
 16 1579 l 1,144,-1
23 1575 m 1,148,-1
 23 1581 l 1,149,-1
 25 1581 l 1,150,-1
 25 1575 l 1,151,-1
 23 1575 l 1,148,-1
25 1579 m 1,152,-1
 27 1579 l 1,153,-1
 27 1581 l 1,154,-1
 25 1581 l 1,155,-1
 25 1579 l 1,152,-1
4 1577 m 1,156,-1
 6 1577 l 1,157,-1
 6 1579 l 1,158,-1
 4 1579 l 1,159,-1
 4 1577 l 1,156,-1
6 1575 m 1,160,-1
 6 1579 l 1,161,-1
 8 1579 l 1,162,-1
 8 1575 l 1,163,-1
 6 1575 l 1,160,-1
18 1577 m 1,164,-1
 20 1577 l 1,165,-1
 20 1579 l 1,166,-1
 18 1579 l 1,167,-1
 18 1577 l 1,164,-1
25 1575 m 1,168,-1
 25 1579 l 1,169,-1
 27 1579 l 1,170,-1
 27 1575 l 1,171,-1
 25 1575 l 1,168,-1
27 1577 m 1,172,-1
 29 1577 l 1,173,-1
 29 1579 l 1,174,-1
 27 1579 l 1,175,-1
 27 1577 l 1,172,-1
2 1575 m 1,176,-1
 4 1575 l 1,177,-1
 4 1577 l 1,178,-1
 2 1577 l 1,179,-1
 2 1575 l 1,176,-1
4 1575 m 1,180,-1
 4 1577 l 1,181,-1
 6 1577 l 1,182,-1
 6 1575 l 1,183,-1
 4 1575 l 1,180,-1
20 1575 m 1,184,-1
 23 1575 l 1,185,-1
 23 1577 l 1,186,-1
 20 1577 l 1,187,-1
 20 1575 l 1,184,-1
27 1575 m 1,188,-1
 27 1577 l 1,189,-1
 29 1577 l 1,190,-1
 29 1575 l 1,191,-1
 27 1575 l 1,188,-1
29 1575 m 1,192,-1
 31 1575 l 1,193,-1
 31 1577 l 1,194,-1
 29 1577 l 1,195,-1
 29 1575 l 1,192,-1
4 1573 m 1,196,-1
 12 1573 l 1,197,-1
 12 1575 l 1,198,-1
 4 1575 l 1,199,-1
 4 1573 l 1,196,-1
23 1573 m 1,200,-1
 29 1573 l 1,201,-1
 29 1575 l 1,202,-1
 23 1575 l 1,203,-1
 23 1573 l 1,200,-1
EndSplineSet
Validated: 5
EndChar

StartChar: M
Encoding: 77 77 12
Width: 2048
Flags: W
LayerCount: 2
Fore
SplineSet
41 1604 m 1,0,-1
 49 1604 l 1,1,-1
 49 1606 l 1,2,-1
 41 1606 l 1,3,-1
 41 1604 l 1,0,-1
39 1577 m 1,4,-1
 41 1577 l 1,5,-1
 41 1604 l 1,6,-1
 39 1604 l 1,7,-1
 39 1577 l 1,4,-1
41 1602 m 1,8,-1
 41 1604 l 1,9,-1
 49 1604 l 1,10,-1
 49 1602 l 1,11,-1
 41 1602 l 1,8,-1
49 1602 m 1,12,-1
 51 1602 l 1,13,-1
 51 1604 l 1,14,-1
 49 1604 l 1,15,-1
 49 1602 l 1,12,-1
41 1599 m 1,16,-1
 41 1602 l 1,17,-1
 47 1602 l 1,18,-1
 47 1599 l 1,19,-1
 41 1599 l 1,16,-1
47 1599 m 1,20,-1
 49 1599 l 1,21,-1
 49 1602 l 1,22,-1
 47 1602 l 1,23,-1
 47 1599 l 1,20,-1
41 1577 m 1,24,-1
 41 1599 l 1,25,-1
 45 1599 l 1,26,-1
 45 1577 l 1,27,-1
 41 1577 l 1,24,-1
45 1581 m 1,28,-1
 47 1581 l 1,29,-1
 47 1599 l 1,30,-1
 45 1599 l 1,31,-1
 45 1581 l 1,28,-1
57 1585 m 1,32,-1
 61 1585 l 1,33,-1
 61 1587 l 1,34,-1
 57 1587 l 1,35,-1
 57 1585 l 1,32,-1
55 1579 m 1,36,-1
 57 1579 l 1,37,-1
 57 1585 l 1,38,-1
 55 1585 l 1,39,-1
 55 1579 l 1,36,-1
57 1577 m 1,40,-1
 57 1585 l 1,41,-1
 61 1585 l 1,42,-1
 61 1577 l 1,43,-1
 57 1577 l 1,40,-1
61 1577 m 1,44,-1
 63 1577 l 1,45,-1
 63 1585 l 1,46,-1
 61 1585 l 1,47,-1
 61 1577 l 1,44,-1
45 1575 m 1,48,-1
 45 1581 l 1,49,-1
 47 1581 l 1,50,-1
 47 1575 l 1,51,-1
 45 1575 l 1,48,-1
47 1579 m 1,52,-1
 55 1579 l 1,53,-1
 55 1581 l 1,54,-1
 47 1581 l 1,55,-1
 47 1579 l 1,52,-1
47 1575 m 1,56,-1
 47 1579 l 1,57,-1
 57 1579 l 1,58,-1
 57 1575 l 1,59,-1
 47 1575 l 1,56,-1
41 1575 m 1,60,-1
 43 1575 l 1,61,-1
 43 1577 l 1,62,-1
 41 1577 l 1,63,-1
 41 1575 l 1,60,-1
43 1575 m 1,64,-1
 43 1577 l 1,65,-1
 45 1577 l 1,66,-1
 45 1575 l 1,67,-1
 43 1575 l 1,64,-1
57 1575 m 1,68,-1
 57 1577 l 1,69,-1
 59 1577 l 1,70,-1
 59 1575 l 1,71,-1
 57 1575 l 1,68,-1
59 1575 m 1,72,-1
 61 1575 l 1,73,-1
 61 1577 l 1,74,-1
 59 1577 l 1,75,-1
 59 1575 l 1,72,-1
43 1573 m 1,76,-1
 59 1573 l 1,77,-1
 59 1575 l 1,78,-1
 43 1575 l 1,79,-1
 43 1573 l 1,76,-1
EndSplineSet
Validated: 5
EndChar

StartChar: N
Encoding: 78 78 13
Width: 2048
Flags: W
LayerCount: 2
Fore
SplineSet
72 1604 m 1,0,-1
 80 1604 l 1,1,-1
 80 1606 l 1,2,-1
 72 1606 l 1,3,-1
 72 1604 l 1,0,-1
84 1604 m 1,4,-1
 92 1604 l 1,5,-1
 92 1606 l 1,6,-1
 84 1606 l 1,7,-1
 84 1604 l 1,4,-1
70 1602 m 1,8,-1
 72 1602 l 1,9,-1
 72 1604 l 1,10,-1
 70 1604 l 1,11,-1
 70 1602 l 1,8,-1
72 1599 m 1,12,-1
 72 1604 l 1,13,-1
 80 1604 l 1,14,-1
 80 1599 l 1,15,-1
 72 1599 l 1,12,-1
80 1602 m 1,16,-1
 84 1602 l 1,17,-1
 84 1604 l 1,18,-1
 80 1604 l 1,19,-1
 80 1602 l 1,16,-1
84 1599 m 1,20,-1
 84 1604 l 1,21,-1
 92 1604 l 1,22,-1
 92 1599 l 1,23,-1
 84 1599 l 1,20,-1
92 1602 m 1,24,-1
 94 1602 l 1,25,-1
 94 1604 l 1,26,-1
 92 1604 l 1,27,-1
 92 1602 l 1,24,-1
68 1579 m 1,28,-1
 70 1579 l 1,29,-1
 70 1602 l 1,30,-1
 68 1602 l 1,31,-1
 68 1579 l 1,28,-1
70 1575 m 1,32,-1
 70 1602 l 1,33,-1
 72 1602 l 1,34,-1
 72 1575 l 1,35,-1
 70 1575 l 1,32,-1
80 1589 m 1,36,-1
 80 1602 l 1,37,-1
 84 1602 l 1,38,-1
 84 1589 l 1,39,-1
 80 1589 l 1,36,-1
92 1575 m 1,40,-1
 92 1602 l 1,41,-1
 94 1602 l 1,42,-1
 94 1575 l 1,43,-1
 92 1575 l 1,40,-1
94 1579 m 1,44,-1
 96 1579 l 1,45,-1
 96 1602 l 1,46,-1
 94 1602 l 1,47,-1
 94 1579 l 1,44,-1
72 1597 m 1,48,-1
 72 1599 l 1,49,-1
 76 1599 l 1,50,-1
 76 1597 l 1,51,-1
 72 1597 l 1,48,-1
76 1597 m 1,52,-1
 78 1597 l 1,53,-1
 78 1599 l 1,54,-1
 76 1599 l 1,55,-1
 76 1597 l 1,52,-1
78 1597 m 1,56,-1
 78 1599 l 1,57,-1
 80 1599 l 1,58,-1
 80 1597 l 1,59,-1
 78 1597 l 1,56,-1
84 1597 m 1,60,-1
 84 1599 l 1,61,-1
 86 1599 l 1,62,-1
 86 1597 l 1,63,-1
 84 1597 l 1,60,-1
86 1597 m 1,64,-1
 88 1597 l 1,65,-1
 88 1599 l 1,66,-1
 86 1599 l 1,67,-1
 86 1597 l 1,64,-1
88 1597 m 1,68,-1
 88 1599 l 1,69,-1
 92 1599 l 1,70,-1
 92 1597 l 1,71,-1
 88 1597 l 1,68,-1
72 1575 m 1,72,-1
 72 1597 l 1,73,-1
 74 1597 l 1,74,-1
 74 1575 l 1,75,-1
 72 1575 l 1,72,-1
74 1579 m 1,76,-1
 76 1579 l 1,77,-1
 76 1597 l 1,78,-1
 74 1597 l 1,79,-1
 74 1579 l 1,76,-1
78 1593 m 1,80,-1
 80 1593 l 1,81,-1
 80 1597 l 1,82,-1
 78 1597 l 1,83,-1
 78 1593 l 1,80,-1
84 1593 m 1,84,-1
 86 1593 l 1,85,-1
 86 1597 l 1,86,-1
 84 1597 l 1,87,-1
 84 1593 l 1,84,-1
88 1579 m 1,88,-1
 90 1579 l 1,89,-1
 90 1597 l 1,90,-1
 88 1597 l 1,91,-1
 88 1579 l 1,88,-1
90 1575 m 1,92,-1
 90 1597 l 1,93,-1
 92 1597 l 1,94,-1
 92 1575 l 1,95,-1
 90 1575 l 1,92,-1
76 1591 m 1,96,-1
 78 1591 l 1,97,-1
 78 1593 l 1,98,-1
 76 1593 l 1,99,-1
 76 1591 l 1,96,-1
78 1591 m 1,100,-1
 78 1593 l 1,101,-1
 80 1593 l 1,102,-1
 80 1591 l 1,103,-1
 78 1591 l 1,100,-1
84 1591 m 1,104,-1
 84 1593 l 1,105,-1
 86 1593 l 1,106,-1
 86 1591 l 1,107,-1
 84 1591 l 1,104,-1
86 1591 m 1,108,-1
 88 1591 l 1,109,-1
 88 1593 l 1,110,-1
 86 1593 l 1,111,-1
 86 1591 l 1,108,-1
78 1589 m 1,112,-1
 80 1589 l 1,113,-1
 80 1591 l 1,114,-1
 78 1591 l 1,115,-1
 78 1589 l 1,112,-1
84 1589 m 1,116,-1
 86 1589 l 1,117,-1
 86 1591 l 1,118,-1
 84 1591 l 1,119,-1
 84 1589 l 1,116,-1
80 1587 m 1,120,-1
 84 1587 l 1,121,-1
 84 1589 l 1,122,-1
 80 1589 l 1,123,-1
 80 1587 l 1,120,-1
66 1575 m 1,124,-1
 68 1575 l 1,125,-1
 68 1579 l 1,126,-1
 66 1579 l 1,127,-1
 66 1575 l 1,124,-1
68 1575 m 1,128,-1
 68 1579 l 1,129,-1
 70 1579 l 1,130,-1
 70 1575 l 1,131,-1
 68 1575 l 1,128,-1
74 1575 m 1,132,-1
 74 1579 l 1,133,-1
 76 1579 l 1,134,-1
 76 1575 l 1,135,-1
 74 1575 l 1,132,-1
76 1575 m 1,136,-1
 78 1575 l 1,137,-1
 78 1579 l 1,138,-1
 76 1579 l 1,139,-1
 76 1575 l 1,136,-1
86 1575 m 1,140,-1
 88 1575 l 1,141,-1
 88 1579 l 1,142,-1
 86 1579 l 1,143,-1
 86 1575 l 1,140,-1
88 1575 m 1,144,-1
 88 1579 l 1,145,-1
 90 1579 l 1,146,-1
 90 1575 l 1,147,-1
 88 1575 l 1,144,-1
94 1575 m 1,148,-1
 94 1579 l 1,149,-1
 96 1579 l 1,150,-1
 96 1575 l 1,151,-1
 94 1575 l 1,148,-1
96 1575 m 1,152,-1
 98 1575 l 1,153,-1
 98 1579 l 1,154,-1
 96 1579 l 1,155,-1
 96 1575 l 1,152,-1
68 1573 m 1,156,-1
 76 1573 l 1,157,-1
 76 1575 l 1,158,-1
 68 1575 l 1,159,-1
 68 1573 l 1,156,-1
88 1573 m 1,160,-1
 96 1573 l 1,161,-1
 96 1575 l 1,162,-1
 88 1575 l 1,163,-1
 88 1573 l 1,160,-1
EndSplineSet
Validated: 5
EndChar

StartChar: O
Encoding: 79 79 14
Width: 2048
Flags: W
LayerCount: 2
Fore
SplineSet
106 1604 m 1,0,-1
 117 1604 l 1,1,-1
 117 1606 l 1,2,-1
 106 1606 l 1,3,-1
 106 1604 l 1,0,-1
104 1602 m 1,4,-1
 106 1602 l 1,5,-1
 106 1604 l 1,6,-1
 104 1604 l 1,7,-1
 104 1602 l 1,4,-1
106 1599 m 1,8,-1
 106 1604 l 1,9,-1
 117 1604 l 1,10,-1
 117 1599 l 1,11,-1
 106 1599 l 1,8,-1
117 1602 m 1,12,-1
 121 1602 l 1,13,-1
 121 1604 l 1,14,-1
 117 1604 l 1,15,-1
 117 1602 l 1,12,-1
102 1579 m 1,16,-1
 104 1579 l 1,17,-1
 104 1602 l 1,18,-1
 102 1602 l 1,19,-1
 102 1579 l 1,16,-1
104 1575 m 1,20,-1
 104 1602 l 1,21,-1
 106 1602 l 1,22,-1
 106 1575 l 1,23,-1
 104 1575 l 1,20,-1
117 1597 m 1,24,-1
 117 1602 l 1,25,-1
 121 1602 l 1,26,-1
 121 1597 l 1,27,-1
 117 1597 l 1,24,-1
121 1599 m 1,28,-1
 123 1599 l 1,29,-1
 123 1602 l 1,30,-1
 121 1602 l 1,31,-1
 121 1599 l 1,28,-1
106 1597 m 1,32,-1
 106 1599 l 1,33,-1
 111 1599 l 1,34,-1
 111 1597 l 1,35,-1
 106 1597 l 1,32,-1
111 1597 m 1,36,-1
 117 1597 l 1,37,-1
 117 1599 l 1,38,-1
 111 1599 l 1,39,-1
 111 1597 l 1,36,-1
121 1575 m 1,40,-1
 121 1599 l 1,41,-1
 123 1599 l 1,42,-1
 123 1575 l 1,43,-1
 121 1575 l 1,40,-1
123 1597 m 1,44,-1
 125 1597 l 1,45,-1
 125 1599 l 1,46,-1
 123 1599 l 1,47,-1
 123 1597 l 1,44,-1
106 1575 m 1,48,-1
 106 1597 l 1,49,-1
 109 1597 l 1,50,-1
 109 1575 l 1,51,-1
 106 1575 l 1,48,-1
109 1579 m 1,52,-1
 111 1579 l 1,53,-1
 111 1597 l 1,54,-1
 109 1597 l 1,55,-1
 109 1579 l 1,52,-1
117 1595 m 1,56,-1
 119 1595 l 1,57,-1
 119 1597 l 1,58,-1
 117 1597 l 1,59,-1
 117 1595 l 1,56,-1
119 1595 m 1,60,-1
 119 1597 l 1,61,-1
 121 1597 l 1,62,-1
 121 1595 l 1,63,-1
 119 1595 l 1,60,-1
123 1575 m 1,64,-1
 123 1597 l 1,65,-1
 125 1597 l 1,66,-1
 125 1575 l 1,67,-1
 123 1575 l 1,64,-1
125 1579 m 1,68,-1
 127 1579 l 1,69,-1
 127 1597 l 1,70,-1
 125 1597 l 1,71,-1
 125 1579 l 1,68,-1
119 1579 m 1,72,-1
 121 1579 l 1,73,-1
 121 1595 l 1,74,-1
 119 1595 l 1,75,-1
 119 1579 l 1,72,-1
100 1575 m 1,76,-1
 102 1575 l 1,77,-1
 102 1579 l 1,78,-1
 100 1579 l 1,79,-1
 100 1575 l 1,76,-1
102 1575 m 1,80,-1
 102 1579 l 1,81,-1
 104 1579 l 1,82,-1
 104 1575 l 1,83,-1
 102 1575 l 1,80,-1
109 1575 m 1,84,-1
 109 1579 l 1,85,-1
 111 1579 l 1,86,-1
 111 1575 l 1,87,-1
 109 1575 l 1,84,-1
111 1575 m 1,88,-1
 113 1575 l 1,89,-1
 113 1579 l 1,90,-1
 111 1579 l 1,91,-1
 111 1575 l 1,88,-1
117 1575 m 1,92,-1
 119 1575 l 1,93,-1
 119 1579 l 1,94,-1
 117 1579 l 1,95,-1
 117 1575 l 1,92,-1
119 1575 m 1,96,-1
 119 1579 l 1,97,-1
 121 1579 l 1,98,-1
 121 1575 l 1,99,-1
 119 1575 l 1,96,-1
125 1575 m 1,100,-1
 125 1579 l 1,101,-1
 127 1579 l 1,102,-1
 127 1575 l 1,103,-1
 125 1575 l 1,100,-1
127 1575 m 1,104,-1
 129 1575 l 1,105,-1
 129 1579 l 1,106,-1
 127 1579 l 1,107,-1
 127 1575 l 1,104,-1
102 1573 m 1,108,-1
 111 1573 l 1,109,-1
 111 1575 l 1,110,-1
 102 1575 l 1,111,-1
 102 1573 l 1,108,-1
119 1573 m 1,112,-1
 127 1573 l 1,113,-1
 127 1575 l 1,114,-1
 119 1575 l 1,115,-1
 119 1573 l 1,112,-1
EndSplineSet
Validated: 5
EndChar

StartChar: P
Encoding: 80 80 15
Width: 2048
Flags: W
LayerCount: 2
Fore
SplineSet
139 1604 m 1,0,-1
 156 1604 l 1,1,-1
 156 1606 l 1,2,-1
 139 1606 l 1,3,-1
 139 1604 l 1,0,-1
137 1602 m 1,4,-1
 139 1602 l 1,5,-1
 139 1604 l 1,6,-1
 137 1604 l 1,7,-1
 137 1602 l 1,4,-1
139 1599 m 1,8,-1
 139 1604 l 1,9,-1
 156 1604 l 1,10,-1
 156 1599 l 1,11,-1
 139 1599 l 1,8,-1
156 1602 m 1,12,-1
 158 1602 l 1,13,-1
 158 1604 l 1,14,-1
 156 1604 l 1,15,-1
 156 1602 l 1,12,-1
135 1599 m 1,16,-1
 137 1599 l 1,17,-1
 137 1602 l 1,18,-1
 135 1602 l 1,19,-1
 135 1599 l 1,16,-1
137 1595 m 1,20,-1
 137 1602 l 1,21,-1
 139 1602 l 1,22,-1
 139 1595 l 1,23,-1
 137 1595 l 1,20,-1
156 1595 m 1,24,-1
 156 1602 l 1,25,-1
 158 1602 l 1,26,-1
 158 1595 l 1,27,-1
 156 1595 l 1,24,-1
158 1599 m 1,28,-1
 160 1599 l 1,29,-1
 160 1602 l 1,30,-1
 158 1602 l 1,31,-1
 158 1599 l 1,28,-1
133 1595 m 1,32,-1
 135 1595 l 1,33,-1
 135 1599 l 1,34,-1
 133 1599 l 1,35,-1
 133 1595 l 1,32,-1
135 1579 m 1,36,-1
 135 1599 l 1,37,-1
 137 1599 l 1,38,-1
 137 1579 l 1,39,-1
 135 1579 l 1,36,-1
139 1597 m 1,40,-1
 139 1599 l 1,41,-1
 141 1599 l 1,42,-1
 141 1597 l 1,43,-1
 139 1597 l 1,40,-1
141 1597 m 1,44,-1
 154 1597 l 1,45,-1
 154 1599 l 1,46,-1
 141 1599 l 1,47,-1
 141 1597 l 1,44,-1
154 1597 m 1,48,-1
 154 1599 l 1,49,-1
 156 1599 l 1,50,-1
 156 1597 l 1,51,-1
 154 1597 l 1,48,-1
158 1579 m 1,52,-1
 158 1599 l 1,53,-1
 160 1599 l 1,54,-1
 160 1579 l 1,55,-1
 158 1579 l 1,52,-1
160 1595 m 1,56,-1
 162 1595 l 1,57,-1
 162 1599 l 1,58,-1
 160 1599 l 1,59,-1
 160 1595 l 1,56,-1
139 1595 m 1,60,-1
 141 1595 l 1,61,-1
 141 1597 l 1,62,-1
 139 1597 l 1,63,-1
 139 1595 l 1,60,-1
154 1595 m 1,64,-1
 156 1595 l 1,65,-1
 156 1597 l 1,66,-1
 154 1597 l 1,67,-1
 154 1595 l 1,64,-1
131 1583 m 1,68,-1
 133 1583 l 1,69,-1
 133 1595 l 1,70,-1
 131 1595 l 1,71,-1
 131 1583 l 1,68,-1
133 1583 m 1,72,-1
 133 1595 l 1,73,-1
 135 1595 l 1,74,-1
 135 1583 l 1,75,-1
 133 1583 l 1,72,-1
137 1583 m 1,76,-1
 139 1583 l 1,77,-1
 139 1595 l 1,78,-1
 137 1595 l 1,79,-1
 137 1583 l 1,76,-1
156 1583 m 1,80,-1
 158 1583 l 1,81,-1
 158 1595 l 1,82,-1
 156 1595 l 1,83,-1
 156 1583 l 1,80,-1
160 1583 m 1,84,-1
 160 1595 l 1,85,-1
 162 1595 l 1,86,-1
 162 1583 l 1,87,-1
 160 1583 l 1,84,-1
162 1583 m 1,88,-1
 164 1583 l 1,89,-1
 164 1595 l 1,90,-1
 162 1595 l 1,91,-1
 162 1583 l 1,88,-1
133 1579 m 1,92,-1
 135 1579 l 1,93,-1
 135 1583 l 1,94,-1
 133 1583 l 1,95,-1
 133 1579 l 1,92,-1
137 1577 m 1,96,-1
 137 1583 l 1,97,-1
 139 1583 l 1,98,-1
 139 1577 l 1,99,-1
 137 1577 l 1,96,-1
139 1581 m 1,100,-1
 141 1581 l 1,101,-1
 141 1583 l 1,102,-1
 139 1583 l 1,103,-1
 139 1581 l 1,100,-1
154 1581 m 1,104,-1
 156 1581 l 1,105,-1
 156 1583 l 1,106,-1
 154 1583 l 1,107,-1
 154 1581 l 1,104,-1
156 1577 m 1,108,-1
 156 1583 l 1,109,-1
 158 1583 l 1,110,-1
 158 1577 l 1,111,-1
 156 1577 l 1,108,-1
160 1579 m 1,112,-1
 162 1579 l 1,113,-1
 162 1583 l 1,114,-1
 160 1583 l 1,115,-1
 160 1579 l 1,112,-1
139 1575 m 1,116,-1
 139 1581 l 1,117,-1
 141 1581 l 1,118,-1
 141 1575 l 1,119,-1
 139 1575 l 1,116,-1
141 1579 m 1,120,-1
 154 1579 l 1,121,-1
 154 1581 l 1,122,-1
 141 1581 l 1,123,-1
 141 1579 l 1,120,-1
154 1575 m 1,124,-1
 154 1581 l 1,125,-1
 156 1581 l 1,126,-1
 156 1575 l 1,127,-1
 154 1575 l 1,124,-1
135 1577 m 1,128,-1
 137 1577 l 1,129,-1
 137 1579 l 1,130,-1
 135 1579 l 1,131,-1
 135 1577 l 1,128,-1
141 1575 m 1,132,-1
 141 1579 l 1,133,-1
 154 1579 l 1,134,-1
 154 1575 l 1,135,-1
 141 1575 l 1,132,-1
158 1577 m 1,136,-1
 160 1577 l 1,137,-1
 160 1579 l 1,138,-1
 158 1579 l 1,139,-1
 158 1577 l 1,136,-1
137 1575 m 1,140,-1
 139 1575 l 1,141,-1
 139 1577 l 1,142,-1
 137 1577 l 1,143,-1
 137 1575 l 1,140,-1
156 1575 m 1,144,-1
 158 1575 l 1,145,-1
 158 1577 l 1,146,-1
 156 1577 l 1,147,-1
 156 1575 l 1,144,-1
139 1573 m 1,148,-1
 156 1573 l 1,149,-1
 156 1575 l 1,150,-1
 139 1575 l 1,151,-1
 139 1573 l 1,148,-1
EndSplineSet
Validated: 5
EndChar

StartChar: Q
Encoding: 81 81 16
Width: 2048
Flags: W
LayerCount: 2
Fore
SplineSet
168 1604 m 1,0,-1
 186 1604 l 1,1,-1
 186 1606 l 1,2,-1
 168 1606 l 1,3,-1
 168 1604 l 1,0,-1
166 1602 m 1,4,-1
 168 1602 l 1,5,-1
 168 1604 l 1,6,-1
 166 1604 l 1,7,-1
 166 1602 l 1,4,-1
168 1602 m 1,8,-1
 168 1604 l 1,9,-1
 186 1604 l 1,10,-1
 186 1602 l 1,11,-1
 168 1602 l 1,8,-1
186 1602 m 1,12,-1
 188 1602 l 1,13,-1
 188 1604 l 1,14,-1
 186 1604 l 1,15,-1
 186 1602 l 1,12,-1
168 1599 m 1,16,-1
 170 1599 l 1,17,-1
 170 1602 l 1,18,-1
 168 1602 l 1,19,-1
 168 1599 l 1,16,-1
170 1599 m 1,20,-1
 170 1602 l 1,21,-1
 188 1602 l 1,22,-1
 188 1599 l 1,23,-1
 170 1599 l 1,20,-1
188 1599 m 1,24,-1
 190 1599 l 1,25,-1
 190 1602 l 1,26,-1
 188 1602 l 1,27,-1
 188 1599 l 1,24,-1
170 1579 m 1,28,-1
 172 1579 l 1,29,-1
 172 1599 l 1,30,-1
 170 1599 l 1,31,-1
 170 1579 l 1,28,-1
172 1575 m 1,32,-1
 172 1599 l 1,33,-1
 176 1599 l 1,34,-1
 176 1575 l 1,35,-1
 172 1575 l 1,32,-1
176 1597 m 1,36,-1
 184 1597 l 1,37,-1
 184 1599 l 1,38,-1
 176 1599 l 1,39,-1
 176 1597 l 1,36,-1
184 1597 m 1,40,-1
 184 1599 l 1,41,-1
 190 1599 l 1,42,-1
 190 1597 l 1,43,-1
 184 1597 l 1,40,-1
190 1589 m 1,44,-1
 193 1589 l 1,45,-1
 193 1599 l 1,46,-1
 190 1599 l 1,47,-1
 190 1589 l 1,44,-1
176 1591 m 1,48,-1
 178 1591 l 1,49,-1
 178 1597 l 1,50,-1
 176 1597 l 1,51,-1
 176 1591 l 1,48,-1
184 1591 m 1,52,-1
 186 1591 l 1,53,-1
 186 1597 l 1,54,-1
 184 1597 l 1,55,-1
 184 1591 l 1,52,-1
186 1589 m 1,56,-1
 186 1597 l 1,57,-1
 190 1597 l 1,58,-1
 190 1589 l 1,59,-1
 186 1589 l 1,56,-1
176 1585 m 1,60,-1
 176 1591 l 1,61,-1
 178 1591 l 1,62,-1
 178 1585 l 1,63,-1
 176 1585 l 1,60,-1
178 1589 m 1,64,-1
 184 1589 l 1,65,-1
 184 1591 l 1,66,-1
 178 1591 l 1,67,-1
 178 1589 l 1,64,-1
184 1585 m 1,68,-1
 184 1591 l 1,69,-1
 186 1591 l 1,70,-1
 186 1585 l 1,71,-1
 184 1585 l 1,68,-1
178 1585 m 1,72,-1
 178 1589 l 1,73,-1
 184 1589 l 1,74,-1
 184 1585 l 1,75,-1
 178 1585 l 1,72,-1
186 1587 m 1,76,-1
 186 1589 l 1,77,-1
 188 1589 l 1,78,-1
 188 1587 l 1,79,-1
 186 1587 l 1,76,-1
188 1587 m 1,80,-1
 190 1587 l 1,81,-1
 190 1589 l 1,82,-1
 188 1589 l 1,83,-1
 188 1587 l 1,80,-1
186 1585 m 1,84,-1
 188 1585 l 1,85,-1
 188 1587 l 1,86,-1
 186 1587 l 1,87,-1
 186 1585 l 1,84,-1
176 1583 m 1,88,-1
 186 1583 l 1,89,-1
 186 1585 l 1,90,-1
 176 1585 l 1,91,-1
 176 1583 l 1,88,-1
176 1579 m 1,92,-1
 178 1579 l 1,93,-1
 178 1583 l 1,94,-1
 176 1583 l 1,95,-1
 176 1579 l 1,92,-1
168 1575 m 1,96,-1
 170 1575 l 1,97,-1
 170 1579 l 1,98,-1
 168 1579 l 1,99,-1
 168 1575 l 1,96,-1
170 1575 m 1,100,-1
 170 1579 l 1,101,-1
 172 1579 l 1,102,-1
 172 1575 l 1,103,-1
 170 1575 l 1,100,-1
176 1575 m 1,104,-1
 176 1579 l 1,105,-1
 178 1579 l 1,106,-1
 178 1575 l 1,107,-1
 176 1575 l 1,104,-1
178 1575 m 1,108,-1
 180 1575 l 1,109,-1
 180 1579 l 1,110,-1
 178 1579 l 1,111,-1
 178 1575 l 1,108,-1
170 1573 m 1,112,-1
 178 1573 l 1,113,-1
 178 1575 l 1,114,-1
 170 1575 l 1,115,-1
 170 1573 l 1,112,-1
EndSplineSet
Validated: 5
EndChar

StartChar: R
Encoding: 82 82 17
Width: 2048
Flags: W
LayerCount: 2
Fore
SplineSet
205 1604 m 1,0,-1
 219 1604 l 1,1,-1
 219 1606 l 1,2,-1
 205 1606 l 1,3,-1
 205 1604 l 1,0,-1
203 1602 m 1,4,-1
 205 1602 l 1,5,-1
 205 1604 l 1,6,-1
 203 1604 l 1,7,-1
 203 1602 l 1,4,-1
205 1599 m 1,8,-1
 205 1604 l 1,9,-1
 219 1604 l 1,10,-1
 219 1599 l 1,11,-1
 205 1599 l 1,8,-1
219 1602 m 1,12,-1
 221 1602 l 1,13,-1
 221 1604 l 1,14,-1
 219 1604 l 1,15,-1
 219 1602 l 1,12,-1
201 1599 m 1,16,-1
 203 1599 l 1,17,-1
 203 1602 l 1,18,-1
 201 1602 l 1,19,-1
 201 1599 l 1,16,-1
203 1595 m 1,20,-1
 203 1602 l 1,21,-1
 205 1602 l 1,22,-1
 205 1595 l 1,23,-1
 203 1595 l 1,20,-1
219 1595 m 1,24,-1
 219 1602 l 1,25,-1
 221 1602 l 1,26,-1
 221 1595 l 1,27,-1
 219 1595 l 1,24,-1
221 1599 m 1,28,-1
 223 1599 l 1,29,-1
 223 1602 l 1,30,-1
 221 1602 l 1,31,-1
 221 1599 l 1,28,-1
199 1595 m 1,32,-1
 201 1595 l 1,33,-1
 201 1599 l 1,34,-1
 199 1599 l 1,35,-1
 199 1595 l 1,32,-1
201 1579 m 1,36,-1
 201 1599 l 1,37,-1
 203 1599 l 1,38,-1
 203 1579 l 1,39,-1
 201 1579 l 1,36,-1
205 1597 m 1,40,-1
 205 1599 l 1,41,-1
 207 1599 l 1,42,-1
 207 1597 l 1,43,-1
 205 1597 l 1,40,-1
207 1597 m 1,44,-1
 217 1597 l 1,45,-1
 217 1599 l 1,46,-1
 207 1599 l 1,47,-1
 207 1597 l 1,44,-1
217 1597 m 1,48,-1
 217 1599 l 1,49,-1
 219 1599 l 1,50,-1
 219 1597 l 1,51,-1
 217 1597 l 1,48,-1
221 1575 m 1,52,-1
 221 1599 l 1,53,-1
 223 1599 l 1,54,-1
 223 1575 l 1,55,-1
 221 1575 l 1,52,-1
223 1595 m 1,56,-1
 225 1595 l 1,57,-1
 225 1599 l 1,58,-1
 223 1599 l 1,59,-1
 223 1595 l 1,56,-1
205 1595 m 1,60,-1
 207 1595 l 1,61,-1
 207 1597 l 1,62,-1
 205 1597 l 1,63,-1
 205 1595 l 1,60,-1
217 1595 m 1,64,-1
 219 1595 l 1,65,-1
 219 1597 l 1,66,-1
 217 1597 l 1,67,-1
 217 1595 l 1,64,-1
197 1583 m 1,68,-1
 199 1583 l 1,69,-1
 199 1595 l 1,70,-1
 197 1595 l 1,71,-1
 197 1583 l 1,68,-1
199 1583 m 1,72,-1
 199 1595 l 1,73,-1
 201 1595 l 1,74,-1
 201 1583 l 1,75,-1
 199 1583 l 1,72,-1
203 1583 m 1,76,-1
 205 1583 l 1,77,-1
 205 1595 l 1,78,-1
 203 1595 l 1,79,-1
 203 1583 l 1,76,-1
219 1583 m 1,80,-1
 221 1583 l 1,81,-1
 221 1595 l 1,82,-1
 219 1595 l 1,83,-1
 219 1583 l 1,80,-1
223 1583 m 1,84,-1
 223 1595 l 1,85,-1
 225 1595 l 1,86,-1
 225 1583 l 1,87,-1
 223 1583 l 1,84,-1
225 1583 m 1,88,-1
 227 1583 l 1,89,-1
 227 1595 l 1,90,-1
 225 1595 l 1,91,-1
 225 1583 l 1,88,-1
199 1579 m 1,92,-1
 201 1579 l 1,93,-1
 201 1583 l 1,94,-1
 199 1583 l 1,95,-1
 199 1579 l 1,92,-1
203 1577 m 1,96,-1
 203 1583 l 1,97,-1
 205 1583 l 1,98,-1
 205 1577 l 1,99,-1
 203 1577 l 1,96,-1
205 1581 m 1,100,-1
 207 1581 l 1,101,-1
 207 1583 l 1,102,-1
 205 1583 l 1,103,-1
 205 1581 l 1,100,-1
217 1581 m 1,104,-1
 219 1581 l 1,105,-1
 219 1583 l 1,106,-1
 217 1583 l 1,107,-1
 217 1581 l 1,104,-1
219 1577 m 1,108,-1
 219 1583 l 1,109,-1
 221 1583 l 1,110,-1
 221 1577 l 1,111,-1
 219 1577 l 1,108,-1
223 1579 m 1,112,-1
 225 1579 l 1,113,-1
 225 1583 l 1,114,-1
 223 1583 l 1,115,-1
 223 1579 l 1,112,-1
205 1575 m 1,116,-1
 205 1581 l 1,117,-1
 207 1581 l 1,118,-1
 207 1575 l 1,119,-1
 205 1575 l 1,116,-1
207 1579 m 1,120,-1
 217 1579 l 1,121,-1
 217 1581 l 1,122,-1
 207 1581 l 1,123,-1
 207 1579 l 1,120,-1
217 1575 m 1,124,-1
 217 1581 l 1,125,-1
 219 1581 l 1,126,-1
 219 1575 l 1,127,-1
 217 1575 l 1,124,-1
201 1577 m 1,128,-1
 203 1577 l 1,129,-1
 203 1579 l 1,130,-1
 201 1579 l 1,131,-1
 201 1577 l 1,128,-1
207 1575 m 1,132,-1
 207 1579 l 1,133,-1
 217 1579 l 1,134,-1
 217 1575 l 1,135,-1
 207 1575 l 1,132,-1
223 1575 m 1,136,-1
 223 1579 l 1,137,-1
 225 1579 l 1,138,-1
 225 1575 l 1,139,-1
 223 1575 l 1,136,-1
225 1577 m 1,140,-1
 227 1577 l 1,141,-1
 227 1579 l 1,142,-1
 225 1579 l 1,143,-1
 225 1577 l 1,140,-1
203 1575 m 1,144,-1
 205 1575 l 1,145,-1
 205 1577 l 1,146,-1
 203 1577 l 1,147,-1
 203 1575 l 1,144,-1
219 1575 m 1,148,-1
 221 1575 l 1,149,-1
 221 1577 l 1,150,-1
 219 1577 l 1,151,-1
 219 1575 l 1,148,-1
225 1575 m 1,152,-1
 225 1577 l 1,153,-1
 227 1577 l 1,154,-1
 227 1575 l 1,155,-1
 225 1575 l 1,152,-1
227 1575 m 1,156,-1
 229 1575 l 1,157,-1
 229 1577 l 1,158,-1
 227 1577 l 1,159,-1
 227 1575 l 1,156,-1
205 1573 m 1,160,-1
 219 1573 l 1,161,-1
 219 1575 l 1,162,-1
 205 1575 l 1,163,-1
 205 1573 l 1,160,-1
221 1573 m 1,164,-1
 227 1573 l 1,165,-1
 227 1575 l 1,166,-1
 221 1575 l 1,167,-1
 221 1573 l 1,164,-1
EndSplineSet
Validated: 5
EndChar

StartChar: S
Encoding: 83 83 18
Width: 2048
Flags: W
LayerCount: 2
Fore
SplineSet
233 1604 m 1,0,-1
 252 1604 l 1,1,-1
 252 1606 l 1,2,-1
 233 1606 l 1,3,-1
 233 1604 l 1,0,-1
231 1602 m 1,4,-1
 233 1602 l 1,5,-1
 233 1604 l 1,6,-1
 231 1604 l 1,7,-1
 231 1602 l 1,4,-1
233 1602 m 1,8,-1
 233 1604 l 1,9,-1
 252 1604 l 1,10,-1
 252 1602 l 1,11,-1
 233 1602 l 1,8,-1
252 1602 m 1,12,-1
 254 1602 l 1,13,-1
 254 1604 l 1,14,-1
 252 1604 l 1,15,-1
 252 1602 l 1,12,-1
233 1599 m 1,16,-1
 236 1599 l 1,17,-1
 236 1602 l 1,18,-1
 233 1602 l 1,19,-1
 233 1599 l 1,16,-1
236 1599 m 1,20,-1
 236 1602 l 1,21,-1
 254 1602 l 1,22,-1
 254 1599 l 1,23,-1
 236 1599 l 1,20,-1
254 1599 m 1,24,-1
 256 1599 l 1,25,-1
 256 1602 l 1,26,-1
 254 1602 l 1,27,-1
 254 1599 l 1,24,-1
236 1579 m 1,28,-1
 238 1579 l 1,29,-1
 238 1599 l 1,30,-1
 236 1599 l 1,31,-1
 236 1579 l 1,28,-1
238 1575 m 1,32,-1
 238 1599 l 1,33,-1
 242 1599 l 1,34,-1
 242 1575 l 1,35,-1
 238 1575 l 1,32,-1
242 1597 m 1,36,-1
 250 1597 l 1,37,-1
 250 1599 l 1,38,-1
 242 1599 l 1,39,-1
 242 1597 l 1,36,-1
250 1597 m 1,40,-1
 250 1599 l 1,41,-1
 256 1599 l 1,42,-1
 256 1597 l 1,43,-1
 250 1597 l 1,40,-1
256 1591 m 1,44,-1
 258 1591 l 1,45,-1
 258 1599 l 1,46,-1
 256 1599 l 1,47,-1
 256 1591 l 1,44,-1
242 1593 m 1,48,-1
 244 1593 l 1,49,-1
 244 1597 l 1,50,-1
 242 1597 l 1,51,-1
 242 1593 l 1,48,-1
250 1593 m 1,52,-1
 252 1593 l 1,53,-1
 252 1597 l 1,54,-1
 250 1597 l 1,55,-1
 250 1593 l 1,52,-1
252 1591 m 1,56,-1
 252 1597 l 1,57,-1
 256 1597 l 1,58,-1
 256 1591 l 1,59,-1
 252 1591 l 1,56,-1
242 1585 m 1,60,-1
 242 1593 l 1,61,-1
 244 1593 l 1,62,-1
 244 1585 l 1,63,-1
 242 1585 l 1,60,-1
244 1591 m 1,64,-1
 250 1591 l 1,65,-1
 250 1593 l 1,66,-1
 244 1593 l 1,67,-1
 244 1591 l 1,64,-1
250 1587 m 1,68,-1
 250 1593 l 1,69,-1
 252 1593 l 1,70,-1
 252 1587 l 1,71,-1
 250 1587 l 1,68,-1
244 1587 m 1,72,-1
 244 1591 l 1,73,-1
 250 1591 l 1,74,-1
 250 1587 l 1,75,-1
 244 1587 l 1,72,-1
252 1589 m 1,76,-1
 252 1591 l 1,77,-1
 254 1591 l 1,78,-1
 254 1589 l 1,79,-1
 252 1589 l 1,76,-1
254 1589 m 1,80,-1
 256 1589 l 1,81,-1
 256 1591 l 1,82,-1
 254 1591 l 1,83,-1
 254 1589 l 1,80,-1
252 1587 m 1,84,-1
 254 1587 l 1,85,-1
 254 1589 l 1,86,-1
 252 1589 l 1,87,-1
 252 1587 l 1,84,-1
244 1583 m 1,88,-1
 244 1587 l 1,89,-1
 248 1587 l 1,90,-1
 248 1583 l 1,91,-1
 244 1583 l 1,88,-1
248 1585 m 1,92,-1
 252 1585 l 1,93,-1
 252 1587 l 1,94,-1
 248 1587 l 1,95,-1
 248 1585 l 1,92,-1
242 1575 m 1,96,-1
 244 1575 l 1,97,-1
 244 1585 l 1,98,-1
 242 1585 l 1,99,-1
 242 1575 l 1,96,-1
248 1579 m 1,100,-1
 248 1585 l 1,101,-1
 250 1585 l 1,102,-1
 250 1579 l 1,103,-1
 248 1579 l 1,100,-1
250 1583 m 1,104,-1
 252 1583 l 1,105,-1
 252 1585 l 1,106,-1
 250 1585 l 1,107,-1
 250 1583 l 1,104,-1
244 1581 m 1,108,-1
 246 1581 l 1,109,-1
 246 1583 l 1,110,-1
 244 1583 l 1,111,-1
 244 1581 l 1,108,-1
246 1581 m 1,112,-1
 246 1583 l 1,113,-1
 248 1583 l 1,114,-1
 248 1581 l 1,115,-1
 246 1581 l 1,112,-1
250 1577 m 1,116,-1
 250 1583 l 1,117,-1
 252 1583 l 1,118,-1
 252 1577 l 1,119,-1
 250 1577 l 1,116,-1
252 1581 m 1,120,-1
 254 1581 l 1,121,-1
 254 1583 l 1,122,-1
 252 1583 l 1,123,-1
 252 1581 l 1,120,-1
246 1579 m 1,124,-1
 248 1579 l 1,125,-1
 248 1581 l 1,126,-1
 246 1581 l 1,127,-1
 246 1579 l 1,124,-1
252 1575 m 1,128,-1
 252 1581 l 1,129,-1
 254 1581 l 1,130,-1
 254 1575 l 1,131,-1
 252 1575 l 1,128,-1
254 1579 m 1,132,-1
 256 1579 l 1,133,-1
 256 1581 l 1,134,-1
 254 1581 l 1,135,-1
 254 1579 l 1,132,-1
233 1577 m 1,136,-1
 236 1577 l 1,137,-1
 236 1579 l 1,138,-1
 233 1579 l 1,139,-1
 233 1577 l 1,136,-1
236 1575 m 1,140,-1
 236 1579 l 1,141,-1
 238 1579 l 1,142,-1
 238 1575 l 1,143,-1
 236 1575 l 1,140,-1
248 1577 m 1,144,-1
 250 1577 l 1,145,-1
 250 1579 l 1,146,-1
 248 1579 l 1,147,-1
 248 1577 l 1,144,-1
254 1575 m 1,148,-1
 254 1579 l 1,149,-1
 256 1579 l 1,150,-1
 256 1575 l 1,151,-1
 254 1575 l 1,148,-1
256 1577 m 1,152,-1
 258 1577 l 1,153,-1
 258 1579 l 1,154,-1
 256 1579 l 1,155,-1
 256 1577 l 1,152,-1
231 1575 m 1,156,-1
 233 1575 l 1,157,-1
 233 1577 l 1,158,-1
 231 1577 l 1,159,-1
 231 1575 l 1,156,-1
233 1575 m 1,160,-1
 233 1577 l 1,161,-1
 236 1577 l 1,162,-1
 236 1575 l 1,163,-1
 233 1575 l 1,160,-1
250 1575 m 1,164,-1
 252 1575 l 1,165,-1
 252 1577 l 1,166,-1
 250 1577 l 1,167,-1
 250 1575 l 1,164,-1
256 1575 m 1,168,-1
 256 1577 l 1,169,-1
 258 1577 l 1,170,-1
 258 1575 l 1,171,-1
 256 1575 l 1,168,-1
258 1575 m 1,172,-1
 260 1575 l 1,173,-1
 260 1577 l 1,174,-1
 258 1577 l 1,175,-1
 258 1575 l 1,172,-1
233 1573 m 1,176,-1
 242 1573 l 1,177,-1
 242 1575 l 1,178,-1
 233 1575 l 1,179,-1
 233 1573 l 1,176,-1
252 1573 m 1,180,-1
 258 1573 l 1,181,-1
 258 1575 l 1,182,-1
 252 1575 l 1,183,-1
 252 1573 l 1,180,-1
EndSplineSet
Validated: 5
EndChar

StartChar: T
Encoding: 84 84 19
Width: 2048
Flags: W
LayerCount: 2
Fore
SplineSet
270 1604 m 1,0,-1
 285 1604 l 1,1,-1
 285 1606 l 1,2,-1
 270 1606 l 1,3,-1
 270 1604 l 1,0,-1
268 1602 m 1,4,-1
 270 1602 l 1,5,-1
 270 1604 l 1,6,-1
 268 1604 l 1,7,-1
 268 1602 l 1,4,-1
270 1599 m 1,8,-1
 270 1604 l 1,9,-1
 285 1604 l 1,10,-1
 285 1599 l 1,11,-1
 270 1599 l 1,8,-1
285 1602 m 1,12,-1
 287 1602 l 1,13,-1
 287 1604 l 1,14,-1
 285 1604 l 1,15,-1
 285 1602 l 1,12,-1
266 1595 m 1,16,-1
 268 1595 l 1,17,-1
 268 1602 l 1,18,-1
 266 1602 l 1,19,-1
 266 1595 l 1,16,-1
268 1595 m 1,20,-1
 268 1602 l 1,21,-1
 270 1602 l 1,22,-1
 270 1595 l 1,23,-1
 268 1595 l 1,20,-1
285 1595 m 1,24,-1
 285 1602 l 1,25,-1
 287 1602 l 1,26,-1
 287 1595 l 1,27,-1
 285 1595 l 1,24,-1
287 1595 m 1,28,-1
 289 1595 l 1,29,-1
 289 1602 l 1,30,-1
 287 1602 l 1,31,-1
 287 1595 l 1,28,-1
270 1591 m 1,32,-1
 270 1599 l 1,33,-1
 272 1599 l 1,34,-1
 272 1591 l 1,35,-1
 270 1591 l 1,32,-1
272 1597 m 1,36,-1
 283 1597 l 1,37,-1
 283 1599 l 1,38,-1
 272 1599 l 1,39,-1
 272 1597 l 1,36,-1
283 1597 m 1,40,-1
 283 1599 l 1,41,-1
 285 1599 l 1,42,-1
 285 1597 l 1,43,-1
 283 1597 l 1,40,-1
272 1595 m 1,44,-1
 274 1595 l 1,45,-1
 274 1597 l 1,46,-1
 272 1597 l 1,47,-1
 272 1595 l 1,44,-1
283 1595 m 1,48,-1
 285 1595 l 1,49,-1
 285 1597 l 1,50,-1
 283 1597 l 1,51,-1
 283 1595 l 1,48,-1
268 1591 m 1,52,-1
 270 1591 l 1,53,-1
 270 1595 l 1,54,-1
 268 1595 l 1,55,-1
 268 1591 l 1,52,-1
272 1589 m 1,56,-1
 272 1595 l 1,57,-1
 274 1595 l 1,58,-1
 274 1589 l 1,59,-1
 272 1589 l 1,56,-1
274 1593 m 1,60,-1
 279 1593 l 1,61,-1
 279 1595 l 1,62,-1
 274 1595 l 1,63,-1
 274 1593 l 1,60,-1
285 1593 m 1,64,-1
 287 1593 l 1,65,-1
 287 1595 l 1,66,-1
 285 1595 l 1,67,-1
 285 1593 l 1,64,-1
274 1589 m 1,68,-1
 274 1593 l 1,69,-1
 279 1593 l 1,70,-1
 279 1589 l 1,71,-1
 274 1589 l 1,68,-1
279 1591 m 1,72,-1
 283 1591 l 1,73,-1
 283 1593 l 1,74,-1
 279 1593 l 1,75,-1
 279 1591 l 1,72,-1
270 1589 m 1,76,-1
 272 1589 l 1,77,-1
 272 1591 l 1,78,-1
 270 1591 l 1,79,-1
 270 1589 l 1,76,-1
279 1587 m 1,80,-1
 279 1591 l 1,81,-1
 283 1591 l 1,82,-1
 283 1587 l 1,83,-1
 279 1587 l 1,80,-1
283 1589 m 1,84,-1
 285 1589 l 1,85,-1
 285 1591 l 1,86,-1
 283 1591 l 1,87,-1
 283 1589 l 1,84,-1
272 1587 m 1,88,-1
 276 1587 l 1,89,-1
 276 1589 l 1,90,-1
 272 1589 l 1,91,-1
 272 1587 l 1,88,-1
276 1587 m 1,92,-1
 276 1589 l 1,93,-1
 279 1589 l 1,94,-1
 279 1587 l 1,95,-1
 276 1587 l 1,92,-1
283 1585 m 1,96,-1
 283 1589 l 1,97,-1
 285 1589 l 1,98,-1
 285 1585 l 1,99,-1
 283 1585 l 1,96,-1
285 1587 m 1,100,-1
 287 1587 l 1,101,-1
 287 1589 l 1,102,-1
 285 1589 l 1,103,-1
 285 1587 l 1,100,-1
276 1585 m 1,104,-1
 281 1585 l 1,105,-1
 281 1587 l 1,106,-1
 276 1587 l 1,107,-1
 276 1585 l 1,104,-1
281 1585 m 1,108,-1
 281 1587 l 1,109,-1
 283 1587 l 1,110,-1
 283 1585 l 1,111,-1
 281 1585 l 1,108,-1
285 1575 m 1,112,-1
 285 1587 l 1,113,-1
 287 1587 l 1,114,-1
 287 1575 l 1,115,-1
 285 1575 l 1,112,-1
287 1585 m 1,116,-1
 289 1585 l 1,117,-1
 289 1587 l 1,118,-1
 287 1587 l 1,119,-1
 287 1585 l 1,116,-1
268 1583 m 1,120,-1
 270 1583 l 1,121,-1
 270 1585 l 1,122,-1
 268 1585 l 1,123,-1
 268 1583 l 1,120,-1
281 1583 m 1,124,-1
 285 1583 l 1,125,-1
 285 1585 l 1,126,-1
 281 1585 l 1,127,-1
 281 1583 l 1,124,-1
287 1577 m 1,128,-1
 287 1585 l 1,129,-1
 289 1585 l 1,130,-1
 289 1577 l 1,131,-1
 287 1577 l 1,128,-1
289 1577 m 1,132,-1
 291 1577 l 1,133,-1
 291 1585 l 1,134,-1
 289 1585 l 1,135,-1
 289 1577 l 1,132,-1
266 1577 m 1,136,-1
 268 1577 l 1,137,-1
 268 1583 l 1,138,-1
 266 1583 l 1,139,-1
 266 1577 l 1,136,-1
268 1577 m 1,140,-1
 268 1583 l 1,141,-1
 270 1583 l 1,142,-1
 270 1577 l 1,143,-1
 268 1577 l 1,140,-1
270 1581 m 1,144,-1
 272 1581 l 1,145,-1
 272 1583 l 1,146,-1
 270 1583 l 1,147,-1
 270 1581 l 1,144,-1
283 1579 m 1,148,-1
 285 1579 l 1,149,-1
 285 1583 l 1,150,-1
 283 1583 l 1,151,-1
 283 1579 l 1,148,-1
270 1575 m 1,152,-1
 270 1581 l 1,153,-1
 272 1581 l 1,154,-1
 272 1575 l 1,155,-1
 270 1575 l 1,152,-1
272 1579 m 1,156,-1
 283 1579 l 1,157,-1
 283 1581 l 1,158,-1
 272 1581 l 1,159,-1
 272 1579 l 1,156,-1
272 1575 m 1,160,-1
 272 1579 l 1,161,-1
 285 1579 l 1,162,-1
 285 1575 l 1,163,-1
 272 1575 l 1,160,-1
268 1575 m 1,164,-1
 270 1575 l 1,165,-1
 270 1577 l 1,166,-1
 268 1577 l 1,167,-1
 268 1575 l 1,164,-1
287 1575 m 1,168,-1
 289 1575 l 1,169,-1
 289 1577 l 1,170,-1
 287 1577 l 1,171,-1
 287 1575 l 1,168,-1
270 1573 m 1,172,-1
 287 1573 l 1,173,-1
 287 1575 l 1,174,-1
 270 1575 l 1,175,-1
 270 1573 l 1,172,-1
EndSplineSet
Validated: 5
EndChar

StartChar: U
Encoding: 85 85 20
Width: 2048
Flags: W
LayerCount: 2
Fore
SplineSet
303 1604 m 1,0,-1
 319 1604 l 1,1,-1
 319 1606 l 1,2,-1
 303 1606 l 1,3,-1
 303 1604 l 1,0,-1
301 1602 m 1,4,-1
 303 1602 l 1,5,-1
 303 1604 l 1,6,-1
 301 1604 l 1,7,-1
 301 1602 l 1,4,-1
303 1599 m 1,8,-1
 303 1604 l 1,9,-1
 319 1604 l 1,10,-1
 319 1599 l 1,11,-1
 303 1599 l 1,8,-1
319 1602 m 1,12,-1
 322 1602 l 1,13,-1
 322 1604 l 1,14,-1
 319 1604 l 1,15,-1
 319 1602 l 1,12,-1
299 1597 m 1,16,-1
 301 1597 l 1,17,-1
 301 1602 l 1,18,-1
 299 1602 l 1,19,-1
 299 1597 l 1,16,-1
301 1597 m 1,20,-1
 301 1602 l 1,21,-1
 303 1602 l 1,22,-1
 303 1597 l 1,23,-1
 301 1597 l 1,20,-1
319 1597 m 1,24,-1
 319 1602 l 1,25,-1
 322 1602 l 1,26,-1
 322 1597 l 1,27,-1
 319 1597 l 1,24,-1
322 1597 m 1,28,-1
 324 1597 l 1,29,-1
 324 1602 l 1,30,-1
 322 1602 l 1,31,-1
 322 1597 l 1,28,-1
303 1597 m 1,32,-1
 309 1597 l 1,33,-1
 309 1599 l 1,34,-1
 303 1599 l 1,35,-1
 303 1597 l 1,32,-1
309 1575 m 1,36,-1
 309 1599 l 1,37,-1
 313 1599 l 1,38,-1
 313 1575 l 1,39,-1
 309 1575 l 1,36,-1
313 1597 m 1,40,-1
 319 1597 l 1,41,-1
 319 1599 l 1,42,-1
 313 1599 l 1,43,-1
 313 1597 l 1,40,-1
301 1595 m 1,44,-1
 303 1595 l 1,45,-1
 303 1597 l 1,46,-1
 301 1597 l 1,47,-1
 301 1595 l 1,44,-1
307 1591 m 1,48,-1
 309 1591 l 1,49,-1
 309 1597 l 1,50,-1
 307 1597 l 1,51,-1
 307 1591 l 1,48,-1
313 1591 m 1,52,-1
 315 1591 l 1,53,-1
 315 1597 l 1,54,-1
 313 1597 l 1,55,-1
 313 1591 l 1,52,-1
319 1595 m 1,56,-1
 322 1595 l 1,57,-1
 322 1597 l 1,58,-1
 319 1597 l 1,59,-1
 319 1595 l 1,56,-1
305 1587 m 1,60,-1
 307 1587 l 1,61,-1
 307 1591 l 1,62,-1
 305 1591 l 1,63,-1
 305 1587 l 1,60,-1
307 1587 m 1,64,-1
 307 1591 l 1,65,-1
 309 1591 l 1,66,-1
 309 1587 l 1,67,-1
 307 1587 l 1,64,-1
313 1587 m 1,68,-1
 313 1591 l 1,69,-1
 315 1591 l 1,70,-1
 315 1587 l 1,71,-1
 313 1587 l 1,68,-1
315 1587 m 1,72,-1
 317 1587 l 1,73,-1
 317 1591 l 1,74,-1
 315 1591 l 1,75,-1
 315 1587 l 1,72,-1
307 1579 m 1,76,-1
 309 1579 l 1,77,-1
 309 1587 l 1,78,-1
 307 1587 l 1,79,-1
 307 1579 l 1,76,-1
313 1579 m 1,80,-1
 315 1579 l 1,81,-1
 315 1587 l 1,82,-1
 313 1587 l 1,83,-1
 313 1579 l 1,80,-1
305 1577 m 1,84,-1
 307 1577 l 1,85,-1
 307 1579 l 1,86,-1
 305 1579 l 1,87,-1
 305 1577 l 1,84,-1
307 1575 m 1,88,-1
 307 1579 l 1,89,-1
 309 1579 l 1,90,-1
 309 1575 l 1,91,-1
 307 1575 l 1,88,-1
313 1575 m 1,92,-1
 313 1579 l 1,93,-1
 315 1579 l 1,94,-1
 315 1575 l 1,95,-1
 313 1575 l 1,92,-1
315 1577 m 1,96,-1
 317 1577 l 1,97,-1
 317 1579 l 1,98,-1
 315 1579 l 1,99,-1
 315 1577 l 1,96,-1
303 1575 m 1,100,-1
 305 1575 l 1,101,-1
 305 1577 l 1,102,-1
 303 1577 l 1,103,-1
 303 1575 l 1,100,-1
305 1575 m 1,104,-1
 305 1577 l 1,105,-1
 307 1577 l 1,106,-1
 307 1575 l 1,107,-1
 305 1575 l 1,104,-1
315 1575 m 1,108,-1
 315 1577 l 1,109,-1
 317 1577 l 1,110,-1
 317 1575 l 1,111,-1
 315 1575 l 1,108,-1
317 1575 m 1,112,-1
 319 1575 l 1,113,-1
 319 1577 l 1,114,-1
 317 1577 l 1,115,-1
 317 1575 l 1,112,-1
305 1573 m 1,116,-1
 317 1573 l 1,117,-1
 317 1575 l 1,118,-1
 305 1575 l 1,119,-1
 305 1573 l 1,116,-1
EndSplineSet
Validated: 5
EndChar

StartChar: V
Encoding: 86 86 21
Width: 2048
Flags: W
LayerCount: 2
Fore
SplineSet
324 1634 m 1,0,-1
 326 1634 l 1,1,-1
 326 1636 l 1,2,-1
 324 1636 l 1,3,-1
 324 1634 l 1,0,-1
4 1571 m 1,4,-1
 12 1571 l 1,5,-1
 12 1573 l 1,6,-1
 4 1573 l 1,7,-1
 4 1571 l 1,4,-1
20 1571 m 1,8,-1
 29 1571 l 1,9,-1
 29 1573 l 1,10,-1
 20 1573 l 1,11,-1
 20 1571 l 1,8,-1
2 1567 m 1,12,-1
 4 1567 l 1,13,-1
 4 1571 l 1,14,-1
 2 1571 l 1,15,-1
 2 1567 l 1,12,-1
4 1567 m 1,16,-1
 4 1571 l 1,17,-1
 12 1571 l 1,18,-1
 12 1567 l 1,19,-1
 4 1567 l 1,16,-1
12 1567 m 1,20,-1
 14 1567 l 1,21,-1
 14 1571 l 1,22,-1
 12 1571 l 1,23,-1
 12 1567 l 1,20,-1
18 1567 m 1,24,-1
 20 1567 l 1,25,-1
 20 1571 l 1,26,-1
 18 1571 l 1,27,-1
 18 1567 l 1,24,-1
20 1567 m 1,28,-1
 20 1571 l 1,29,-1
 29 1571 l 1,30,-1
 29 1567 l 1,31,-1
 20 1567 l 1,28,-1
29 1567 m 1,32,-1
 31 1567 l 1,33,-1
 31 1571 l 1,34,-1
 29 1571 l 1,35,-1
 29 1567 l 1,32,-1
4 1546 m 1,36,-1
 6 1546 l 1,37,-1
 6 1567 l 1,38,-1
 4 1567 l 1,39,-1
 4 1546 l 1,36,-1
6 1546 m 1,40,-1
 6 1567 l 1,41,-1
 10 1567 l 1,42,-1
 10 1546 l 1,43,-1
 6 1546 l 1,40,-1
10 1548 m 1,44,-1
 12 1548 l 1,45,-1
 12 1567 l 1,46,-1
 10 1567 l 1,47,-1
 10 1548 l 1,44,-1
20 1548 m 1,48,-1
 23 1548 l 1,49,-1
 23 1567 l 1,50,-1
 20 1567 l 1,51,-1
 20 1548 l 1,48,-1
23 1546 m 1,52,-1
 23 1567 l 1,53,-1
 27 1567 l 1,54,-1
 27 1546 l 1,55,-1
 23 1546 l 1,52,-1
27 1546 m 1,56,-1
 29 1546 l 1,57,-1
 29 1567 l 1,58,-1
 27 1567 l 1,59,-1
 27 1546 l 1,56,-1
10 1542 m 1,60,-1
 10 1548 l 1,61,-1
 12 1548 l 1,62,-1
 12 1542 l 1,63,-1
 10 1542 l 1,60,-1
12 1546 m 1,64,-1
 20 1546 l 1,65,-1
 20 1548 l 1,66,-1
 12 1548 l 1,67,-1
 12 1546 l 1,64,-1
20 1542 m 1,68,-1
 20 1548 l 1,69,-1
 23 1548 l 1,70,-1
 23 1542 l 1,71,-1
 20 1542 l 1,68,-1
6 1544 m 1,72,-1
 8 1544 l 1,73,-1
 8 1546 l 1,74,-1
 6 1546 l 1,75,-1
 6 1544 l 1,72,-1
8 1544 m 1,76,-1
 8 1546 l 1,77,-1
 10 1546 l 1,78,-1
 10 1544 l 1,79,-1
 8 1544 l 1,76,-1
12 1542 m 1,80,-1
 12 1546 l 1,81,-1
 20 1546 l 1,82,-1
 20 1542 l 1,83,-1
 12 1542 l 1,80,-1
23 1544 m 1,84,-1
 23 1546 l 1,85,-1
 25 1546 l 1,86,-1
 25 1544 l 1,87,-1
 23 1544 l 1,84,-1
25 1544 m 1,88,-1
 27 1544 l 1,89,-1
 27 1546 l 1,90,-1
 25 1546 l 1,91,-1
 25 1544 l 1,88,-1
8 1542 m 1,92,-1
 10 1542 l 1,93,-1
 10 1544 l 1,94,-1
 8 1544 l 1,95,-1
 8 1542 l 1,92,-1
23 1542 m 1,96,-1
 25 1542 l 1,97,-1
 25 1544 l 1,98,-1
 23 1544 l 1,99,-1
 23 1542 l 1,96,-1
10 1540 m 1,100,-1
 23 1540 l 1,101,-1
 23 1542 l 1,102,-1
 10 1542 l 1,103,-1
 10 1540 l 1,100,-1
EndSplineSet
Validated: 5
EndChar

StartChar: W
Encoding: 87 87 22
Width: 2048
Flags: W
LayerCount: 2
Fore
SplineSet
35 1571 m 1,0,-1
 43 1571 l 1,1,-1
 43 1573 l 1,2,-1
 35 1573 l 1,3,-1
 35 1571 l 1,0,-1
55 1571 m 1,4,-1
 63 1571 l 1,5,-1
 63 1573 l 1,6,-1
 55 1573 l 1,7,-1
 55 1571 l 1,4,-1
33 1567 m 1,8,-1
 35 1567 l 1,9,-1
 35 1571 l 1,10,-1
 33 1571 l 1,11,-1
 33 1567 l 1,8,-1
35 1567 m 1,12,-1
 35 1571 l 1,13,-1
 43 1571 l 1,14,-1
 43 1567 l 1,15,-1
 35 1567 l 1,12,-1
43 1567 m 1,16,-1
 45 1567 l 1,17,-1
 45 1571 l 1,18,-1
 43 1571 l 1,19,-1
 43 1567 l 1,16,-1
53 1567 m 1,20,-1
 55 1567 l 1,21,-1
 55 1571 l 1,22,-1
 53 1571 l 1,23,-1
 53 1567 l 1,20,-1
55 1567 m 1,24,-1
 55 1571 l 1,25,-1
 63 1571 l 1,26,-1
 63 1567 l 1,27,-1
 55 1567 l 1,24,-1
63 1567 m 1,28,-1
 66 1567 l 1,29,-1
 66 1571 l 1,30,-1
 63 1571 l 1,31,-1
 63 1567 l 1,28,-1
35 1563 m 1,32,-1
 37 1563 l 1,33,-1
 37 1567 l 1,34,-1
 35 1567 l 1,35,-1
 35 1563 l 1,32,-1
37 1563 m 1,36,-1
 37 1567 l 1,37,-1
 41 1567 l 1,38,-1
 41 1563 l 1,39,-1
 37 1563 l 1,36,-1
41 1565 m 1,40,-1
 43 1565 l 1,41,-1
 43 1567 l 1,42,-1
 41 1567 l 1,43,-1
 41 1565 l 1,40,-1
55 1565 m 1,44,-1
 57 1565 l 1,45,-1
 57 1567 l 1,46,-1
 55 1567 l 1,47,-1
 55 1565 l 1,44,-1
57 1563 m 1,48,-1
 57 1567 l 1,49,-1
 61 1567 l 1,50,-1
 61 1563 l 1,51,-1
 57 1563 l 1,48,-1
61 1563 m 1,52,-1
 63 1563 l 1,53,-1
 63 1567 l 1,54,-1
 61 1567 l 1,55,-1
 61 1563 l 1,52,-1
41 1552 m 1,56,-1
 41 1565 l 1,57,-1
 43 1565 l 1,58,-1
 43 1552 l 1,59,-1
 41 1552 l 1,56,-1
43 1559 m 1,60,-1
 45 1559 l 1,61,-1
 45 1565 l 1,62,-1
 43 1565 l 1,63,-1
 43 1559 l 1,60,-1
53 1559 m 1,64,-1
 55 1559 l 1,65,-1
 55 1565 l 1,66,-1
 53 1565 l 1,67,-1
 53 1559 l 1,64,-1
55 1552 m 1,68,-1
 55 1565 l 1,69,-1
 57 1565 l 1,70,-1
 57 1552 l 1,71,-1
 55 1552 l 1,68,-1
37 1556 m 1,72,-1
 39 1556 l 1,73,-1
 39 1563 l 1,74,-1
 37 1563 l 1,75,-1
 37 1556 l 1,72,-1
39 1556 m 1,76,-1
 39 1563 l 1,77,-1
 41 1563 l 1,78,-1
 41 1556 l 1,79,-1
 39 1556 l 1,76,-1
57 1556 m 1,80,-1
 57 1563 l 1,81,-1
 59 1563 l 1,82,-1
 59 1556 l 1,83,-1
 57 1556 l 1,80,-1
59 1556 m 1,84,-1
 61 1556 l 1,85,-1
 61 1563 l 1,86,-1
 59 1563 l 1,87,-1
 59 1556 l 1,84,-1
43 1546 m 1,88,-1
 43 1559 l 1,89,-1
 45 1559 l 1,90,-1
 45 1546 l 1,91,-1
 43 1546 l 1,88,-1
45 1554 m 1,92,-1
 47 1554 l 1,93,-1
 47 1559 l 1,94,-1
 45 1559 l 1,95,-1
 45 1554 l 1,92,-1
51 1554 m 1,96,-1
 53 1554 l 1,97,-1
 53 1559 l 1,98,-1
 51 1559 l 1,99,-1
 51 1554 l 1,96,-1
53 1546 m 1,100,-1
 53 1559 l 1,101,-1
 55 1559 l 1,102,-1
 55 1546 l 1,103,-1
 53 1546 l 1,100,-1
39 1552 m 1,104,-1
 41 1552 l 1,105,-1
 41 1556 l 1,106,-1
 39 1556 l 1,107,-1
 39 1552 l 1,104,-1
57 1552 m 1,108,-1
 59 1552 l 1,109,-1
 59 1556 l 1,110,-1
 57 1556 l 1,111,-1
 57 1552 l 1,108,-1
45 1542 m 1,112,-1
 45 1554 l 1,113,-1
 47 1554 l 1,114,-1
 47 1542 l 1,115,-1
 45 1542 l 1,112,-1
47 1548 m 1,116,-1
 51 1548 l 1,117,-1
 51 1554 l 1,118,-1
 47 1554 l 1,119,-1
 47 1548 l 1,116,-1
51 1542 m 1,120,-1
 51 1554 l 1,121,-1
 53 1554 l 1,122,-1
 53 1542 l 1,123,-1
 51 1542 l 1,120,-1
41 1546 m 1,124,-1
 43 1546 l 1,125,-1
 43 1552 l 1,126,-1
 41 1552 l 1,127,-1
 41 1546 l 1,124,-1
55 1546 m 1,128,-1
 57 1546 l 1,129,-1
 57 1552 l 1,130,-1
 55 1552 l 1,131,-1
 55 1546 l 1,128,-1
47 1542 m 1,132,-1
 47 1548 l 1,133,-1
 51 1548 l 1,134,-1
 51 1542 l 1,135,-1
 47 1542 l 1,132,-1
43 1542 m 1,136,-1
 45 1542 l 1,137,-1
 45 1546 l 1,138,-1
 43 1546 l 1,139,-1
 43 1542 l 1,136,-1
53 1542 m 1,140,-1
 55 1542 l 1,141,-1
 55 1546 l 1,142,-1
 53 1546 l 1,143,-1
 53 1542 l 1,140,-1
45 1540 m 1,144,-1
 53 1540 l 1,145,-1
 53 1542 l 1,146,-1
 45 1542 l 1,147,-1
 45 1540 l 1,144,-1
EndSplineSet
Validated: 5
EndChar

StartChar: X
Encoding: 88 88 23
Width: 2048
Flags: W
LayerCount: 2
Fore
SplineSet
100 1571 m 1,0,-1
 106 1571 l 1,1,-1
 106 1573 l 1,2,-1
 100 1573 l 1,3,-1
 100 1571 l 1,0,-1
123 1571 m 1,4,-1
 129 1571 l 1,5,-1
 129 1573 l 1,6,-1
 123 1573 l 1,7,-1
 123 1571 l 1,4,-1
98 1569 m 1,8,-1
 100 1569 l 1,9,-1
 100 1571 l 1,10,-1
 98 1571 l 1,11,-1
 98 1569 l 1,8,-1
100 1569 m 1,12,-1
 100 1571 l 1,13,-1
 106 1571 l 1,14,-1
 106 1569 l 1,15,-1
 100 1569 l 1,12,-1
106 1569 m 1,16,-1
 109 1569 l 1,17,-1
 109 1571 l 1,18,-1
 106 1571 l 1,19,-1
 106 1569 l 1,16,-1
121 1569 m 1,20,-1
 123 1569 l 1,21,-1
 123 1571 l 1,22,-1
 121 1571 l 1,23,-1
 121 1569 l 1,20,-1
123 1569 m 1,24,-1
 123 1571 l 1,25,-1
 129 1571 l 1,26,-1
 129 1569 l 1,27,-1
 123 1569 l 1,24,-1
129 1569 m 1,28,-1
 131 1569 l 1,29,-1
 131 1571 l 1,30,-1
 129 1571 l 1,31,-1
 129 1569 l 1,28,-1
100 1567 m 1,32,-1
 102 1567 l 1,33,-1
 102 1569 l 1,34,-1
 100 1569 l 1,35,-1
 100 1567 l 1,32,-1
102 1567 m 1,36,-1
 102 1569 l 1,37,-1
 109 1569 l 1,38,-1
 109 1567 l 1,39,-1
 102 1567 l 1,36,-1
109 1567 m 1,40,-1
 111 1567 l 1,41,-1
 111 1569 l 1,42,-1
 109 1569 l 1,43,-1
 109 1567 l 1,40,-1
119 1567 m 1,44,-1
 121 1567 l 1,45,-1
 121 1569 l 1,46,-1
 119 1569 l 1,47,-1
 119 1567 l 1,44,-1
121 1567 m 1,48,-1
 121 1569 l 1,49,-1
 127 1569 l 1,50,-1
 127 1567 l 1,51,-1
 121 1567 l 1,48,-1
127 1567 m 1,52,-1
 129 1567 l 1,53,-1
 129 1569 l 1,54,-1
 127 1569 l 1,55,-1
 127 1567 l 1,52,-1
102 1565 m 1,56,-1
 104 1565 l 1,57,-1
 104 1567 l 1,58,-1
 102 1567 l 1,59,-1
 102 1565 l 1,56,-1
104 1565 m 1,60,-1
 104 1567 l 1,61,-1
 111 1567 l 1,62,-1
 111 1565 l 1,63,-1
 104 1565 l 1,60,-1
111 1565 m 1,64,-1
 113 1565 l 1,65,-1
 113 1567 l 1,66,-1
 111 1567 l 1,67,-1
 111 1565 l 1,64,-1
117 1565 m 1,68,-1
 119 1565 l 1,69,-1
 119 1567 l 1,70,-1
 117 1567 l 1,71,-1
 117 1565 l 1,68,-1
119 1565 m 1,72,-1
 119 1567 l 1,73,-1
 125 1567 l 1,74,-1
 125 1565 l 1,75,-1
 119 1565 l 1,72,-1
125 1565 m 1,76,-1
 127 1565 l 1,77,-1
 127 1567 l 1,78,-1
 125 1567 l 1,79,-1
 125 1565 l 1,76,-1
104 1563 m 1,80,-1
 106 1563 l 1,81,-1
 106 1565 l 1,82,-1
 104 1565 l 1,83,-1
 104 1563 l 1,80,-1
106 1563 m 1,84,-1
 106 1565 l 1,85,-1
 113 1565 l 1,86,-1
 113 1563 l 1,87,-1
 106 1563 l 1,84,-1
113 1563 m 1,88,-1
 117 1563 l 1,89,-1
 117 1565 l 1,90,-1
 113 1565 l 1,91,-1
 113 1563 l 1,88,-1
117 1563 m 1,92,-1
 117 1565 l 1,93,-1
 123 1565 l 1,94,-1
 123 1563 l 1,95,-1
 117 1563 l 1,92,-1
123 1563 m 1,96,-1
 125 1563 l 1,97,-1
 125 1565 l 1,98,-1
 123 1565 l 1,99,-1
 123 1563 l 1,96,-1
106 1561 m 1,100,-1
 109 1561 l 1,101,-1
 109 1563 l 1,102,-1
 106 1563 l 1,103,-1
 106 1561 l 1,100,-1
109 1561 m 1,104,-1
 109 1563 l 1,105,-1
 121 1563 l 1,106,-1
 121 1561 l 1,107,-1
 109 1561 l 1,104,-1
121 1561 m 1,108,-1
 123 1561 l 1,109,-1
 123 1563 l 1,110,-1
 121 1563 l 1,111,-1
 121 1561 l 1,108,-1
109 1552 m 1,112,-1
 111 1552 l 1,113,-1
 111 1561 l 1,114,-1
 109 1561 l 1,115,-1
 109 1552 l 1,112,-1
111 1550 m 1,116,-1
 111 1561 l 1,117,-1
 119 1561 l 1,118,-1
 119 1550 l 1,119,-1
 111 1550 l 1,116,-1
119 1552 m 1,120,-1
 121 1552 l 1,121,-1
 121 1561 l 1,122,-1
 119 1561 l 1,123,-1
 119 1552 l 1,120,-1
106 1550 m 1,124,-1
 109 1550 l 1,125,-1
 109 1552 l 1,126,-1
 106 1552 l 1,127,-1
 106 1550 l 1,124,-1
109 1546 m 1,128,-1
 109 1552 l 1,129,-1
 111 1552 l 1,130,-1
 111 1546 l 1,131,-1
 109 1546 l 1,128,-1
119 1546 m 1,132,-1
 119 1552 l 1,133,-1
 121 1552 l 1,134,-1
 121 1546 l 1,135,-1
 119 1546 l 1,132,-1
121 1550 m 1,136,-1
 123 1550 l 1,137,-1
 123 1552 l 1,138,-1
 121 1552 l 1,139,-1
 121 1550 l 1,136,-1
104 1548 m 1,140,-1
 106 1548 l 1,141,-1
 106 1550 l 1,142,-1
 104 1550 l 1,143,-1
 104 1548 l 1,140,-1
106 1544 m 1,144,-1
 106 1550 l 1,145,-1
 109 1550 l 1,146,-1
 109 1544 l 1,147,-1
 106 1544 l 1,144,-1
111 1548 m 1,148,-1
 111 1550 l 1,149,-1
 113 1550 l 1,150,-1
 113 1548 l 1,151,-1
 111 1548 l 1,148,-1
113 1548 m 1,152,-1
 117 1548 l 1,153,-1
 117 1550 l 1,154,-1
 113 1550 l 1,155,-1
 113 1548 l 1,152,-1
117 1548 m 1,156,-1
 117 1550 l 1,157,-1
 119 1550 l 1,158,-1
 119 1548 l 1,159,-1
 117 1548 l 1,156,-1
121 1544 m 1,160,-1
 121 1550 l 1,161,-1
 123 1550 l 1,162,-1
 123 1544 l 1,163,-1
 121 1544 l 1,160,-1
123 1548 m 1,164,-1
 125 1548 l 1,165,-1
 125 1550 l 1,166,-1
 123 1550 l 1,167,-1
 123 1548 l 1,164,-1
102 1546 m 1,168,-1
 104 1546 l 1,169,-1
 104 1548 l 1,170,-1
 102 1548 l 1,171,-1
 102 1546 l 1,168,-1
104 1542 m 1,172,-1
 104 1548 l 1,173,-1
 106 1548 l 1,174,-1
 106 1542 l 1,175,-1
 104 1542 l 1,172,-1
111 1546 m 1,176,-1
 113 1546 l 1,177,-1
 113 1548 l 1,178,-1
 111 1548 l 1,179,-1
 111 1546 l 1,176,-1
117 1546 m 1,180,-1
 119 1546 l 1,181,-1
 119 1548 l 1,182,-1
 117 1548 l 1,183,-1
 117 1546 l 1,180,-1
123 1542 m 1,184,-1
 123 1548 l 1,185,-1
 125 1548 l 1,186,-1
 125 1542 l 1,187,-1
 123 1542 l 1,184,-1
125 1546 m 1,188,-1
 127 1546 l 1,189,-1
 127 1548 l 1,190,-1
 125 1548 l 1,191,-1
 125 1546 l 1,188,-1
100 1544 m 1,192,-1
 102 1544 l 1,193,-1
 102 1546 l 1,194,-1
 100 1546 l 1,195,-1
 100 1544 l 1,192,-1
102 1542 m 1,196,-1
 102 1546 l 1,197,-1
 104 1546 l 1,198,-1
 104 1542 l 1,199,-1
 102 1542 l 1,196,-1
109 1544 m 1,200,-1
 111 1544 l 1,201,-1
 111 1546 l 1,202,-1
 109 1546 l 1,203,-1
 109 1544 l 1,200,-1
119 1544 m 1,204,-1
 121 1544 l 1,205,-1
 121 1546 l 1,206,-1
 119 1546 l 1,207,-1
 119 1544 l 1,204,-1
125 1542 m 1,208,-1
 125 1546 l 1,209,-1
 127 1546 l 1,210,-1
 127 1542 l 1,211,-1
 125 1542 l 1,208,-1
127 1544 m 1,212,-1
 129 1544 l 1,213,-1
 129 1546 l 1,214,-1
 127 1546 l 1,215,-1
 127 1544 l 1,212,-1
98 1542 m 1,216,-1
 100 1542 l 1,217,-1
 100 1544 l 1,218,-1
 98 1544 l 1,219,-1
 98 1542 l 1,216,-1
100 1542 m 1,220,-1
 100 1544 l 1,221,-1
 102 1544 l 1,222,-1
 102 1542 l 1,223,-1
 100 1542 l 1,220,-1
106 1542 m 1,224,-1
 109 1542 l 1,225,-1
 109 1544 l 1,226,-1
 106 1544 l 1,227,-1
 106 1542 l 1,224,-1
121 1542 m 1,228,-1
 123 1542 l 1,229,-1
 123 1544 l 1,230,-1
 121 1544 l 1,231,-1
 121 1542 l 1,228,-1
127 1542 m 1,232,-1
 127 1544 l 1,233,-1
 129 1544 l 1,234,-1
 129 1542 l 1,235,-1
 127 1542 l 1,232,-1
129 1542 m 1,236,-1
 131 1542 l 1,237,-1
 131 1544 l 1,238,-1
 129 1544 l 1,239,-1
 129 1542 l 1,236,-1
100 1540 m 1,240,-1
 106 1540 l 1,241,-1
 106 1542 l 1,242,-1
 100 1542 l 1,243,-1
 100 1540 l 1,240,-1
123 1540 m 1,244,-1
 129 1540 l 1,245,-1
 129 1542 l 1,246,-1
 123 1542 l 1,247,-1
 123 1540 l 1,244,-1
EndSplineSet
Validated: 5
EndChar

StartChar: Z
Encoding: 90 90 24
Width: 2048
Flags: W
LayerCount: 2
Fore
SplineSet
168 1571 m 1,0,-1
 193 1571 l 1,1,-1
 193 1573 l 1,2,-1
 168 1573 l 1,3,-1
 168 1571 l 1,0,-1
166 1563 m 1,4,-1
 168 1563 l 1,5,-1
 168 1571 l 1,6,-1
 166 1571 l 1,7,-1
 166 1563 l 1,4,-1
168 1567 m 1,8,-1
 168 1571 l 1,9,-1
 193 1571 l 1,10,-1
 193 1567 l 1,11,-1
 168 1567 l 1,8,-1
193 1565 m 1,12,-1
 195 1565 l 1,13,-1
 195 1571 l 1,14,-1
 193 1571 l 1,15,-1
 193 1565 l 1,12,-1
168 1565 m 1,16,-1
 168 1567 l 1,17,-1
 172 1567 l 1,18,-1
 172 1565 l 1,19,-1
 168 1565 l 1,16,-1
172 1565 m 1,20,-1
 186 1565 l 1,21,-1
 186 1567 l 1,22,-1
 172 1567 l 1,23,-1
 172 1565 l 1,20,-1
186 1565 m 1,24,-1
 186 1567 l 1,25,-1
 193 1567 l 1,26,-1
 193 1565 l 1,27,-1
 186 1565 l 1,24,-1
168 1563 m 1,28,-1
 168 1565 l 1,29,-1
 170 1565 l 1,30,-1
 170 1563 l 1,31,-1
 168 1563 l 1,28,-1
170 1563 m 1,32,-1
 172 1563 l 1,33,-1
 172 1565 l 1,34,-1
 170 1565 l 1,35,-1
 170 1563 l 1,32,-1
182 1563 m 1,36,-1
 184 1563 l 1,37,-1
 184 1565 l 1,38,-1
 182 1565 l 1,39,-1
 182 1563 l 1,36,-1
184 1563 m 1,40,-1
 184 1565 l 1,41,-1
 190 1565 l 1,42,-1
 190 1563 l 1,43,-1
 184 1563 l 1,40,-1
190 1563 m 1,44,-1
 193 1563 l 1,45,-1
 193 1565 l 1,46,-1
 190 1565 l 1,47,-1
 190 1563 l 1,44,-1
168 1561 m 1,48,-1
 170 1561 l 1,49,-1
 170 1563 l 1,50,-1
 168 1563 l 1,51,-1
 168 1561 l 1,48,-1
180 1561 m 1,52,-1
 182 1561 l 1,53,-1
 182 1563 l 1,54,-1
 180 1563 l 1,55,-1
 180 1561 l 1,52,-1
182 1561 m 1,56,-1
 182 1563 l 1,57,-1
 188 1563 l 1,58,-1
 188 1561 l 1,59,-1
 182 1561 l 1,56,-1
188 1561 m 1,60,-1
 190 1561 l 1,61,-1
 190 1563 l 1,62,-1
 188 1563 l 1,63,-1
 188 1561 l 1,60,-1
172 1559 m 1,64,-1
 180 1559 l 1,65,-1
 180 1561 l 1,66,-1
 172 1561 l 1,67,-1
 172 1559 l 1,64,-1
180 1554 m 1,68,-1
 180 1561 l 1,69,-1
 186 1561 l 1,70,-1
 186 1554 l 1,71,-1
 180 1554 l 1,68,-1
186 1559 m 1,72,-1
 188 1559 l 1,73,-1
 188 1561 l 1,74,-1
 186 1561 l 1,75,-1
 186 1559 l 1,72,-1
170 1554 m 1,76,-1
 172 1554 l 1,77,-1
 172 1559 l 1,78,-1
 170 1559 l 1,79,-1
 170 1554 l 1,76,-1
172 1554 m 1,80,-1
 172 1559 l 1,81,-1
 180 1559 l 1,82,-1
 180 1554 l 1,83,-1
 172 1554 l 1,80,-1
186 1554 m 1,84,-1
 186 1559 l 1,85,-1
 188 1559 l 1,86,-1
 188 1554 l 1,87,-1
 186 1554 l 1,84,-1
188 1554 m 1,88,-1
 190 1554 l 1,89,-1
 190 1559 l 1,90,-1
 188 1559 l 1,91,-1
 188 1554 l 1,88,-1
172 1552 m 1,92,-1
 174 1552 l 1,93,-1
 174 1554 l 1,94,-1
 172 1554 l 1,95,-1
 172 1552 l 1,92,-1
174 1552 m 1,96,-1
 174 1554 l 1,97,-1
 180 1554 l 1,98,-1
 180 1552 l 1,99,-1
 174 1552 l 1,96,-1
180 1552 m 1,100,-1
 188 1552 l 1,101,-1
 188 1554 l 1,102,-1
 180 1554 l 1,103,-1
 180 1552 l 1,100,-1
170 1550 m 1,104,-1
 172 1550 l 1,105,-1
 172 1552 l 1,106,-1
 170 1552 l 1,107,-1
 170 1550 l 1,104,-1
172 1550 m 1,108,-1
 172 1552 l 1,109,-1
 178 1552 l 1,110,-1
 178 1550 l 1,111,-1
 172 1550 l 1,108,-1
178 1550 m 1,112,-1
 180 1550 l 1,113,-1
 180 1552 l 1,114,-1
 178 1552 l 1,115,-1
 178 1550 l 1,112,-1
190 1550 m 1,116,-1
 193 1550 l 1,117,-1
 193 1552 l 1,118,-1
 190 1552 l 1,119,-1
 190 1550 l 1,116,-1
168 1548 m 1,120,-1
 170 1548 l 1,121,-1
 170 1550 l 1,122,-1
 168 1550 l 1,123,-1
 168 1548 l 1,120,-1
170 1548 m 1,124,-1
 170 1550 l 1,125,-1
 176 1550 l 1,126,-1
 176 1548 l 1,127,-1
 170 1548 l 1,124,-1
176 1546 m 1,128,-1
 178 1546 l 1,129,-1
 178 1550 l 1,130,-1
 176 1550 l 1,131,-1
 176 1546 l 1,128,-1
188 1548 m 1,132,-1
 190 1548 l 1,133,-1
 190 1550 l 1,134,-1
 188 1550 l 1,135,-1
 188 1548 l 1,132,-1
190 1542 m 1,136,-1
 190 1550 l 1,137,-1
 193 1550 l 1,138,-1
 193 1542 l 1,139,-1
 190 1542 l 1,136,-1
193 1542 m 1,140,-1
 195 1542 l 1,141,-1
 195 1550 l 1,142,-1
 193 1550 l 1,143,-1
 193 1542 l 1,140,-1
166 1542 m 1,144,-1
 168 1542 l 1,145,-1
 168 1548 l 1,146,-1
 166 1548 l 1,147,-1
 166 1542 l 1,144,-1
168 1542 m 1,148,-1
 168 1548 l 1,149,-1
 174 1548 l 1,150,-1
 174 1542 l 1,151,-1
 168 1542 l 1,148,-1
174 1546 m 1,152,-1
 176 1546 l 1,153,-1
 176 1548 l 1,154,-1
 174 1548 l 1,155,-1
 174 1546 l 1,152,-1
178 1546 m 1,156,-1
 188 1546 l 1,157,-1
 188 1548 l 1,158,-1
 178 1548 l 1,159,-1
 178 1546 l 1,156,-1
188 1542 m 1,160,-1
 188 1548 l 1,161,-1
 190 1548 l 1,162,-1
 190 1542 l 1,163,-1
 188 1542 l 1,160,-1
174 1542 m 1,164,-1
 174 1546 l 1,165,-1
 188 1546 l 1,166,-1
 188 1542 l 1,167,-1
 174 1542 l 1,164,-1
168 1540 m 1,168,-1
 193 1540 l 1,169,-1
 193 1542 l 1,170,-1
 168 1542 l 1,171,-1
 168 1540 l 1,168,-1
EndSplineSet
Validated: 5
EndChar

StartChar: Y
Encoding: 89 89 25
Width: 2048
Flags: W
LayerCount: 2
Fore
SplineSet
133 1571 m 1,0,-1
 139 1571 l 1,1,-1
 139 1573 l 1,2,-1
 133 1573 l 1,3,-1
 133 1571 l 1,0,-1
156 1571 m 1,4,-1
 162 1571 l 1,5,-1
 162 1573 l 1,6,-1
 156 1573 l 1,7,-1
 156 1571 l 1,4,-1
131 1569 m 1,8,-1
 133 1569 l 1,9,-1
 133 1571 l 1,10,-1
 131 1571 l 1,11,-1
 131 1569 l 1,8,-1
133 1569 m 1,12,-1
 133 1571 l 1,13,-1
 139 1571 l 1,14,-1
 139 1569 l 1,15,-1
 133 1569 l 1,12,-1
139 1569 m 1,16,-1
 141 1569 l 1,17,-1
 141 1571 l 1,18,-1
 139 1571 l 1,19,-1
 139 1569 l 1,16,-1
154 1569 m 1,20,-1
 156 1569 l 1,21,-1
 156 1571 l 1,22,-1
 154 1571 l 1,23,-1
 154 1569 l 1,20,-1
156 1569 m 1,24,-1
 156 1571 l 1,25,-1
 162 1571 l 1,26,-1
 162 1569 l 1,27,-1
 156 1569 l 1,24,-1
162 1569 m 1,28,-1
 164 1569 l 1,29,-1
 164 1571 l 1,30,-1
 162 1571 l 1,31,-1
 162 1569 l 1,28,-1
133 1567 m 1,32,-1
 135 1567 l 1,33,-1
 135 1569 l 1,34,-1
 133 1569 l 1,35,-1
 133 1567 l 1,32,-1
135 1567 m 1,36,-1
 135 1569 l 1,37,-1
 141 1569 l 1,38,-1
 141 1567 l 1,39,-1
 135 1567 l 1,36,-1
141 1567 m 1,40,-1
 143 1567 l 1,41,-1
 143 1569 l 1,42,-1
 141 1569 l 1,43,-1
 141 1567 l 1,40,-1
152 1567 m 1,44,-1
 154 1567 l 1,45,-1
 154 1569 l 1,46,-1
 152 1569 l 1,47,-1
 152 1567 l 1,44,-1
154 1567 m 1,48,-1
 154 1569 l 1,49,-1
 160 1569 l 1,50,-1
 160 1567 l 1,51,-1
 154 1567 l 1,48,-1
160 1567 m 1,52,-1
 162 1567 l 1,53,-1
 162 1569 l 1,54,-1
 160 1569 l 1,55,-1
 160 1567 l 1,52,-1
135 1565 m 1,56,-1
 137 1565 l 1,57,-1
 137 1567 l 1,58,-1
 135 1567 l 1,59,-1
 135 1565 l 1,56,-1
137 1565 m 1,60,-1
 137 1567 l 1,61,-1
 143 1567 l 1,62,-1
 143 1565 l 1,63,-1
 137 1565 l 1,60,-1
143 1565 m 1,64,-1
 145 1565 l 1,65,-1
 145 1567 l 1,66,-1
 143 1567 l 1,67,-1
 143 1565 l 1,64,-1
150 1565 m 1,68,-1
 152 1565 l 1,69,-1
 152 1567 l 1,70,-1
 150 1567 l 1,71,-1
 150 1565 l 1,68,-1
152 1565 m 1,72,-1
 152 1567 l 1,73,-1
 158 1567 l 1,74,-1
 158 1565 l 1,75,-1
 152 1565 l 1,72,-1
158 1565 m 1,76,-1
 160 1565 l 1,77,-1
 160 1567 l 1,78,-1
 158 1567 l 1,79,-1
 158 1565 l 1,76,-1
137 1563 m 1,80,-1
 139 1563 l 1,81,-1
 139 1565 l 1,82,-1
 137 1565 l 1,83,-1
 137 1563 l 1,80,-1
139 1563 m 1,84,-1
 139 1565 l 1,85,-1
 145 1565 l 1,86,-1
 145 1563 l 1,87,-1
 139 1563 l 1,84,-1
145 1563 m 1,88,-1
 150 1563 l 1,89,-1
 150 1565 l 1,90,-1
 145 1565 l 1,91,-1
 145 1563 l 1,88,-1
150 1563 m 1,92,-1
 150 1565 l 1,93,-1
 156 1565 l 1,94,-1
 156 1563 l 1,95,-1
 150 1563 l 1,92,-1
156 1563 m 1,96,-1
 158 1563 l 1,97,-1
 158 1565 l 1,98,-1
 156 1565 l 1,99,-1
 156 1563 l 1,96,-1
139 1561 m 1,100,-1
 141 1561 l 1,101,-1
 141 1563 l 1,102,-1
 139 1563 l 1,103,-1
 139 1561 l 1,100,-1
141 1561 m 1,104,-1
 141 1563 l 1,105,-1
 154 1563 l 1,106,-1
 154 1561 l 1,107,-1
 141 1561 l 1,104,-1
154 1561 m 1,108,-1
 156 1561 l 1,109,-1
 156 1563 l 1,110,-1
 154 1563 l 1,111,-1
 154 1561 l 1,108,-1
141 1559 m 1,112,-1
 143 1559 l 1,113,-1
 143 1561 l 1,114,-1
 141 1561 l 1,115,-1
 141 1559 l 1,112,-1
143 1559 m 1,116,-1
 143 1561 l 1,117,-1
 152 1561 l 1,118,-1
 152 1559 l 1,119,-1
 143 1559 l 1,116,-1
152 1559 m 1,120,-1
 154 1559 l 1,121,-1
 154 1561 l 1,122,-1
 152 1561 l 1,123,-1
 152 1559 l 1,120,-1
143 1546 m 1,124,-1
 145 1546 l 1,125,-1
 145 1559 l 1,126,-1
 143 1559 l 1,127,-1
 143 1546 l 1,124,-1
145 1542 m 1,128,-1
 145 1559 l 1,129,-1
 150 1559 l 1,130,-1
 150 1542 l 1,131,-1
 145 1542 l 1,128,-1
150 1546 m 1,132,-1
 152 1546 l 1,133,-1
 152 1559 l 1,134,-1
 150 1559 l 1,135,-1
 150 1546 l 1,132,-1
141 1544 m 1,136,-1
 143 1544 l 1,137,-1
 143 1546 l 1,138,-1
 141 1546 l 1,139,-1
 141 1544 l 1,136,-1
143 1542 m 1,140,-1
 143 1546 l 1,141,-1
 145 1546 l 1,142,-1
 145 1542 l 1,143,-1
 143 1542 l 1,140,-1
150 1542 m 1,144,-1
 150 1546 l 1,145,-1
 152 1546 l 1,146,-1
 152 1542 l 1,147,-1
 150 1542 l 1,144,-1
152 1544 m 1,148,-1
 154 1544 l 1,149,-1
 154 1546 l 1,150,-1
 152 1546 l 1,151,-1
 152 1544 l 1,148,-1
139 1542 m 1,152,-1
 141 1542 l 1,153,-1
 141 1544 l 1,154,-1
 139 1544 l 1,155,-1
 139 1542 l 1,152,-1
141 1542 m 1,156,-1
 141 1544 l 1,157,-1
 143 1544 l 1,158,-1
 143 1542 l 1,159,-1
 141 1542 l 1,156,-1
152 1542 m 1,160,-1
 152 1544 l 1,161,-1
 154 1544 l 1,162,-1
 154 1542 l 1,163,-1
 152 1542 l 1,160,-1
154 1542 m 1,164,-1
 156 1542 l 1,165,-1
 156 1544 l 1,166,-1
 154 1544 l 1,167,-1
 154 1542 l 1,164,-1
141 1540 m 1,168,-1
 154 1540 l 1,169,-1
 154 1542 l 1,170,-1
 141 1542 l 1,171,-1
 141 1540 l 1,168,-1
EndSplineSet
Validated: 5
EndChar
